<svg
    xmlns="http://www.w3.org/2000/svg"
    viewBox="0 0 1140 705"
    id="vector">
    <path
        id="path"
        d="M 24.16 464.85 C 31.37 478.22 46.68 483.97 46.68 483.97 C 46.68 483.97 50.29 468.03 43.08 454.65 C 35.87 441.27 20.56 435.53 20.56 435.53 C 20.56 435.53 16.95 451.48 24.16 464.85 Z"
        fill="#3f3d56"/>
    <path
        id="path_1"
        d="M 29.11 460.45 C 42.13 468.28 47.14 483.84 47.14 483.84 C 47.14 483.84 31.05 486.7 18.03 478.87 C 5.01 471.04 0 455.48 0 455.48 C 0 455.48 16.09 452.62 29.11 460.45 Z"
        fill="#6c63ff"/>
    <path
        id="path_2"
        d="M 710.71 242.97 C 710.71 349.9 647.14 387.24 568.72 387.24 C 490.3 387.24 426.73 349.91 426.73 242.97 C 426.73 136.03 568.72 0 568.72 0 C 568.72 0 710.71 136.04 710.71 242.97 Z"
        fill="#f2f2f2"/>
    <path
        id="path_3"
        d="M 563.54 370.89 L 564.99 281.4 L 625.51 170.68 L 565.22 267.36 L 565.87 227.12 L 607.58 147.02 L 566.04 216.47 L 566.04 216.47 L 567.22 144.1 L 611.88 80.33 L 567.4 132.72 L 568.13 0.01 L 563.51 175.69 L 563.89 168.44 L 518.48 98.93 L 563.16 182.35 L 558.93 263.18 L 558.8 261.04 L 506.45 187.89 L 558.64 268.61 L 558.11 278.72 L 558.02 278.87 L 558.06 279.7 L 547.33 484.77 L 561.67 484.77 L 563.39 378.85 L 615.45 298.32 L 563.52 370.88 Z"
        fill="#3f3d56"/>
    <path
        id="path_4"
        d="M 1107.71 242.97 C 1107.71 349.9 1044.14 387.24 965.72 387.24 C 887.3 387.24 823.73 349.91 823.73 242.97 C 823.73 136.03 965.72 0 965.72 0 C 965.72 0 1107.71 136.04 1107.71 242.97 Z"
        fill="#f2f2f2"/>
    <path
        id="path_5"
        d="M 960.54 370.89 L 961.99 281.4 L 1022.51 170.68 L 962.22 267.36 L 962.87 227.12 L 1004.58 147.02 L 963.04 216.47 L 963.04 216.47 L 964.22 144.1 L 1008.88 80.33 L 964.4 132.72 L 965.13 0.01 L 960.51 175.69 L 960.89 168.44 L 915.48 98.93 L 960.16 182.35 L 955.93 263.18 L 955.8 261.04 L 903.45 187.89 L 955.64 268.61 L 955.11 278.72 L 955.02 278.87 L 955.06 279.7 L 944.33 484.77 L 958.67 484.77 L 960.39 378.85 L 1012.45 298.32 L 960.52 370.88 Z"
        fill="#3f3d56"/>
    <path
        id="path_6"
        d="M 109.22 274.47 M 54.9 274.47 C 54.743 262.901 58.286 251.579 65.011 242.163 C 71.735 232.748 81.295 225.723 92.289 222.117 C 103.283 218.512 115.147 218.512 126.141 222.117 C 137.135 225.723 146.695 232.748 153.419 242.163 C 160.144 251.579 163.687 262.901 163.53 274.47 C 163.687 286.039 160.144 297.361 153.419 306.777 C 146.695 316.192 137.135 323.217 126.141 326.823 C 115.147 330.428 103.283 330.428 92.289 326.823 C 81.295 323.217 71.735 316.192 65.011 306.777 C 58.286 297.361 54.743 286.039 54.9 274.47"
        fill="#ff6584"/>
    <path
        id="path_7"
        d="M 40.3 376.64 L 32.33 363.35 L 106.75 299.56 L 298.11 299.56 L 298.11 318.16 L 229.01 392.58 L 149.28 408.53 L 40.31 376.64 Z"
        fill="#3f3d56"/>
    <path
        id="path_8"
        d="M 331.04 336.99 L 331.04 295.41 L 305.99 295.41 L 305.99 308.52 L 298.1 299.56 L 234.31 363.35 L 223.68 373.98 L 210.39 427.13 L 234.31 485.6 L 356.57 485.6 L 356.57 366 L 331.04 336.99 Z"
        fill="#cccccc"/>
    <path
        id="path_9"
        d="M 32.33 363.35 L 234.32 363.35 L 234.32 485.61 L 32.33 485.61 Z"
        fill="#f2f2f2"/>
    <path
        id="path_10"
        d="M 163.89 401.88 L 206.41 401.88 L 206.41 439.09 L 163.89 439.09 Z"
        fill="#3f3d56"/>
    <path
        id="path_11"
        d="M 109.4 400.55 L 146.61 400.55 L 146.61 485.6 L 109.4 485.6 Z"
        fill="#cccccc"/>
    <path
        id="path_12"
        d="M 66.88 413.84 L 66.88 400.55 L 50.93 400.55 L 50.93 413.84 L 65.55 413.84 L 66.88 413.84 Z"
        fill="#3f3d56"/>
    <path
        id="path_13"
        d="M 65.55 424.47 L 50.93 424.47 L 50.93 437.76 L 66.88 437.76 L 66.88 424.47 L 65.55 424.47 Z"
        fill="#3f3d56"/>
    <path
        id="path_14"
        d="M 77.51 400.55 L 93.46 400.55 L 93.46 413.84 L 77.51 413.84 Z"
        fill="#3f3d56"/>
    <path
        id="path_15"
        d="M 77.51 424.47 L 93.46 424.47 L 93.46 437.76 L 77.51 437.76 Z"
        fill="#3f3d56"/>
    <path
        id="path_16"
        d="M 291.46 415.17 L 291.46 401.88 L 275.51 401.88 L 275.51 415.17 L 290.13 415.17 L 291.46 415.17 Z"
        fill="#3f3d56"/>
    <path
        id="path_17"
        d="M 290.13 425.8 L 275.51 425.8 L 275.51 439.09 L 291.46 439.09 L 291.46 425.8 L 290.13 425.8 Z"
        fill="#3f3d56"/>
    <path
        id="path_18"
        d="M 302.09 401.88 L 318.04 401.88 L 318.04 415.17 L 302.09 415.17 Z"
        fill="#3f3d56"/>
    <path
        id="path_19"
        d="M 302.09 425.8 L 318.04 425.8 L 318.04 439.09 L 302.09 439.09 Z"
        fill="#3f3d56"/>
    <path
        id="path_20"
        d="M 423.81 376.56 L 415.84 363.27 L 490.26 299.48 L 681.62 299.48 L 681.62 318.08 L 612.52 392.5 L 532.79 408.45 L 423.82 376.56 Z"
        fill="#3f3d56"/>
    <path
        id="path_21"
        d="M 714.55 336.92 L 714.55 295.34 L 689.5 295.34 L 689.5 308.45 L 681.61 299.49 L 617.83 363.28 L 607.2 373.91 L 593.91 427.06 L 617.83 485.53 L 740.08 485.53 L 740.08 365.93 L 714.55 336.92 Z"
        fill="#cccccc"/>
    <path
        id="path_22"
        d="M 415.84 363.27 L 617.83 363.27 L 617.83 485.53 L 415.84 485.53 Z"
        fill="#f2f2f2"/>
    <path
        id="path_23"
        d="M 547.4 401.81 L 589.92 401.81 L 589.92 439.02 L 547.4 439.02 Z"
        fill="#3f3d56"/>
    <path
        id="path_24"
        d="M 492.91 400.48 L 530.12 400.48 L 530.12 485.53 L 492.91 485.53 Z"
        fill="#cccccc"/>
    <path
        id="path_25"
        d="M 450.39 413.77 L 450.39 400.48 L 434.44 400.48 L 434.44 413.77 L 449.06 413.77 L 450.39 413.77 Z"
        fill="#3f3d56"/>
    <path
        id="path_26"
        d="M 449.06 424.4 L 434.44 424.4 L 434.44 437.69 L 450.39 437.69 L 450.39 424.4 L 449.06 424.4 Z"
        fill="#3f3d56"/>
    <path
        id="path_27"
        d="M 461.02 400.48 L 476.97 400.48 L 476.97 413.77 L 461.02 413.77 Z"
        fill="#3f3d56"/>
    <path
        id="path_28"
        d="M 461.02 424.4 L 476.97 424.4 L 476.97 437.69 L 461.02 437.69 Z"
        fill="#3f3d56"/>
    <path
        id="path_29"
        d="M 674.97 415.1 L 674.97 401.81 L 659.02 401.81 L 659.02 415.1 L 673.64 415.1 L 674.97 415.1 Z"
        fill="#3f3d56"/>
    <path
        id="path_30"
        d="M 673.64 425.73 L 659.02 425.73 L 659.02 439.02 L 674.97 439.02 L 674.97 425.73 L 673.64 425.73 Z"
        fill="#3f3d56"/>
    <path
        id="path_31"
        d="M 685.6 401.81 L 701.55 401.81 L 701.55 415.1 L 685.6 415.1 Z"
        fill="#3f3d56"/>
    <path
        id="path_32"
        d="M 685.6 425.73 L 701.55 425.73 L 701.55 439.02 L 685.6 439.02 Z"
        fill="#3f3d56"/>
    <path
        id="path_33"
        d="M 795.81 376.56 L 787.84 363.27 L 862.26 299.48 L 1053.62 299.48 L 1053.62 318.08 L 984.52 392.5 L 904.79 408.45 L 795.82 376.56 Z"
        fill="#3f3d56"/>
    <path
        id="path_34"
        d="M 1086.55 336.92 L 1086.55 295.34 L 1061.5 295.34 L 1061.5 308.45 L 1053.61 299.49 L 989.82 363.28 L 979.19 373.91 L 965.9 427.06 L 989.82 485.53 L 1112.08 485.53 L 1112.08 365.93 L 1086.55 336.92 Z"
        fill="#cccccc"/>
    <path
        id="path_35"
        d="M 787.84 363.27 L 989.83 363.27 L 989.83 485.53 L 787.84 485.53 Z"
        fill="#f2f2f2"/>
    <path
        id="path_36"
        d="M 919.4 401.81 L 961.92 401.81 L 961.92 439.02 L 919.4 439.02 Z"
        fill="#3f3d56"/>
    <path
        id="path_37"
        d="M 864.91 400.48 L 902.12 400.48 L 902.12 485.53 L 864.91 485.53 Z"
        fill="#cccccc"/>
    <path
        id="path_38"
        d="M 822.39 413.77 L 822.39 400.48 L 806.44 400.48 L 806.44 413.77 L 821.06 413.77 L 822.39 413.77 Z"
        fill="#3f3d56"/>
    <path
        id="path_39"
        d="M 821.06 424.4 L 806.44 424.4 L 806.44 437.69 L 822.39 437.69 L 822.39 424.4 L 821.06 424.4 Z"
        fill="#3f3d56"/>
    <path
        id="path_40"
        d="M 833.02 400.48 L 848.97 400.48 L 848.97 413.77 L 833.02 413.77 Z"
        fill="#3f3d56"/>
    <path
        id="path_41"
        d="M 833.02 424.4 L 848.97 424.4 L 848.97 437.69 L 833.02 437.69 Z"
        fill="#3f3d56"/>
    <path
        id="path_42"
        d="M 1046.97 415.1 L 1046.97 401.81 L 1031.02 401.81 L 1031.02 415.1 L 1045.64 415.1 L 1046.97 415.1 Z"
        fill="#3f3d56"/>
    <path
        id="path_43"
        d="M 1045.64 425.73 L 1031.02 425.73 L 1031.02 439.02 L 1046.97 439.02 L 1046.97 425.73 L 1045.64 425.73 Z"
        fill="#3f3d56"/>
    <path
        id="path_44"
        d="M 1057.6 401.81 L 1073.55 401.81 L 1073.55 415.1 L 1057.6 415.1 Z"
        fill="#3f3d56"/>
    <path
        id="path_45"
        d="M 1057.6 425.73 L 1073.55 425.73 L 1073.55 439.02 L 1057.6 439.02 Z"
        fill="#3f3d56"/>
    <path
        id="path_46"
        d="M 759.08 406.6 L 761.08 406.6 L 761.08 485.6 L 759.08 485.6 Z"
        fill="#3f3d56"/>
    <path
        id="path_47"
        d="M 779.54 416.67 C 779.67 444.29 760.23 466.78 760.23 466.78 C 760.23 466.78 740.59 444.48 740.46 416.85 C 740.33 389.22 759.77 366.74 759.77 366.74 C 759.77 366.74 779.41 389.04 779.54 416.67 Z"
        fill="#6c63ff"/>
    <path
        id="path_48"
        d="M 395.08 404.6 L 397.08 404.6 L 397.08 483.6 L 395.08 483.6 Z"
        fill="#3f3d56"/>
    <path
        id="path_49"
        d="M 415.54 414.67 C 415.67 442.29 396.23 464.78 396.23 464.78 C 396.23 464.78 376.59 442.48 376.46 414.85 C 376.33 387.22 395.77 364.74 395.77 364.74 C 395.77 364.74 415.41 387.04 415.54 414.67 Z"
        fill="#6c63ff"/>
    <path
        id="path_50"
        d="M 415.54 414.67 C 415.67 442.29 396.23 464.78 396.23 464.78 C 396.23 464.78 376.59 442.48 376.46 414.85 C 376.33 387.22 395.77 364.74 395.77 364.74 C 395.77 364.74 415.41 387.04 415.54 414.67 Z"
        fill="#000000"
        fill-opacity="0.1"
        stroke-opacity="0.1"/>
    <path
        id="path_129"
        d="M 369.08 404.6 L 371.08 404.6 L 371.08 483.6 L 369.08 483.6 Z"
        fill="#3f3d56"/>
    <path
        id="path_130"
        d="M 389.54 414.67 C 389.67 442.29 370.23 464.78 370.23 464.78 C 370.23 464.78 350.59 442.48 350.46 414.85 C 350.33 387.22 369.77 364.74 369.77 364.74 C 369.77 364.74 389.41 387.04 389.54 414.67 Z"
        fill="#6c63ff"/>
    <path
        id="path_131"
        d="M 3.71 483.6 L 1140.71 483.6 L 1140.71 485.6 L 3.71 485.6 Z"
        fill="#3f3d56"/>
    <path
        id="path_132"
        d="M 261.13 423.76 C 261.13 423.76 262.15 424.93 260.4 427.21 C 258.65 429.49 260.06 434.41 263.4 434.54 C 266.74 434.67 268.35 436.06 267.55 437.9 C 266.75 439.74 265.78 444.11 269.41 443.45 C 273.04 442.79 274.19 444.23 273.55 445.34 C 272.91 446.45 275.17 443.13 275.17 443.13 C 275.17 443.13 277.19 446.14 279.68 444.03 C 282.17 441.92 283.15 422.79 278.09 422.47 C 273.03 422.15 261.13 423.76 261.13 423.76 Z"
        fill="#2f2e41"/>
    <path
        id="path_133"
        d="M 286.8 514.73 L 287.95 522.81 L 293.14 522.81 L 291.41 513.58 L 286.8 514.73 Z"
        fill="#ffb8b8"/>
    <path
        id="path_134"
        d="M 293.72 517.91 C 293.72 517.91 300.64 524.26 298.91 524.83 C 297.18 525.4 290.83 532.33 289.68 532.91 C 288.65 533.43 277.56 536.95 279.3 532.91 C 280.572 530.282 282.576 528.077 285.07 526.56 L 286.22 519.64 Z"
        fill="#f2f2f2"/>
    <path
        id="path_135"
        d="M 293.72 517.91 C 293.72 517.91 300.64 524.26 298.91 524.83 C 297.18 525.4 290.83 532.33 289.68 532.91 C 288.65 533.43 277.56 536.95 279.3 532.91 C 280.572 530.282 282.576 528.077 285.07 526.56 L 286.22 519.64 Z"
        fill="#000000"
        fill-opacity="0.1"
        stroke-opacity="0.1"/>
    <path
        id="path_136"
        d="M 293.72 508.68 L 294.87 516.76 L 300.06 516.76 L 298.33 507.53 L 293.72 508.68 Z"
        fill="#ffb8b8"/>
    <path
        id="path_137"
        d="M 272.02 487.24 L 279.58 462.24 C 279.58 462.24 266.89 450.7 275.54 447.24 C 284.19 443.78 286.51 461.08 286.51 461.08 L 283.63 491.08 L 272.08 491.08 Z"
        fill="#ffb8b8"/>
    <path
        id="path_138"
        d="M 289.68 468.87 C 289.68 468.87 274.77 487.99 277.03 490.84 C 279.29 493.69 283.33 510.99 283.33 510.99 C 283.33 510.99 282.75 517.91 285.06 517.91 C 287.37 517.91 293.14 516.76 293.14 515.03 C 293.14 513.3 287.95 491.38 287.95 491.38 L 302.95 471.76 Z"
        fill="#6c63ff"/>
    <path
        id="path_139"
        d="M 290.84 470.02 L 305.84 461.94 C 305.84 461.94 316.22 467.13 313.34 471.75 C 310.46 476.37 297.19 488.48 297.19 488.48 C 297.19 488.48 301.23 508.1 300.65 508.67 C 300.07 509.24 293.73 511.55 292 510.98 C 290.27 510.41 281.04 487.9 283.35 486.75 C 285.66 485.6 293.16 473.48 293.16 473.48 Z"
        fill="#6c63ff"/>
    <path
        id="path_140"
        d="M 249.87 690.76 C 249.87 690.76 260.25 697.11 261.41 697.11 C 262.57 697.11 278.14 701.15 271.22 704.03 C 264.3 706.91 237.76 702.88 238.34 701.15 C 238.92 699.42 238.34 689.03 239.49 689.03 C 240.64 689.03 249.87 690.76 249.87 690.76 Z"
        fill="#2f2e41"/>
    <path
        id="path_141"
        d="M 261.41 689.83 C 261.41 689.83 271.79 696.18 272.95 696.18 C 274.11 696.18 289.68 700.22 282.76 703.1 C 275.84 705.98 249.3 701.95 249.88 700.22 C 250.46 698.49 249.88 688.1 251.03 688.1 C 252.18 688.1 261.41 689.83 261.41 689.83 Z"
        fill="#2f2e41"/>
    <path
        id="path_142"
        d="M 249.45 569.52 C 249.45 569.52 252.18 585.17 255.07 591.52 C 257.96 597.87 254.49 627.87 252.76 632.48 C 251.03 637.09 234.3 691.9 239.49 692.48 C 244.68 693.06 255.07 692.48 255.07 692.48 L 271.8 639.98 L 268.91 569.6 Z"
        fill="#575a88"/>
    <path
        id="path_143"
        d="M 249.45 569.52 C 249.45 569.52 252.18 585.17 255.07 591.52 C 257.96 597.87 254.49 627.87 252.76 632.48 C 251.03 637.09 234.3 691.9 239.49 692.48 C 244.68 693.06 255.07 692.48 255.07 692.48 L 271.8 639.98 L 268.91 569.6 Z"
        fill="#000000"
        fill-opacity="0.1"
        stroke-opacity="0.1"/>
    <path
        id="path_144"
        d="M 253.91 568.1 C 253.91 568.1 256.22 583.68 261.41 587.14 C 266.6 590.6 264.87 594.06 264.87 594.06 L 262.57 624.64 C 262.57 624.64 240.07 680.02 246.99 686.95 C 253.91 693.88 260.26 690.99 263.14 690.41 C 266.02 689.83 271.22 677.72 268.33 674.26 C 265.44 670.8 274.1 650.03 276.41 646.57 C 278.72 643.11 276.41 638.49 279.29 637.34 C 282.17 636.19 288.52 628.69 288.52 623.49 C 288.52 618.29 296.6 562.91 291.4 559.45 C 286.2 555.99 252.93 566.59 252.93 566.59 Z"
        fill="#575a88"/>
    <path
        id="path_145"
        d="M 242.95 474.64 M 230.26 474.64 C 230.26 471.276 231.598 468.046 233.977 465.667 C 236.356 463.288 239.586 461.95 242.95 461.95 C 246.314 461.95 249.544 463.288 251.923 465.667 C 254.302 468.046 255.64 471.276 255.64 474.64 C 255.64 478.004 254.302 481.234 251.923 483.613 C 249.544 485.992 246.314 487.33 242.95 487.33 C 239.586 487.33 236.356 485.992 233.977 483.613 C 231.598 481.234 230.26 478.004 230.26 474.64"
        fill="#ffb8b8"/>
    <path
        id="path_146"
        d="M 271.8 428.48 M 261.42 428.48 C 261.413 426.283 262.104 424.139 263.392 422.359 C 264.68 420.579 266.5 419.253 268.59 418.572 C 270.679 417.892 272.931 417.892 275.02 418.572 C 277.11 419.253 278.93 420.579 280.218 422.359 C 281.506 424.139 282.197 426.283 282.19 428.48 C 282.197 430.677 281.506 432.821 280.218 434.601 C 278.93 436.381 277.11 437.707 275.02 438.388 C 272.931 439.068 270.679 439.068 268.59 438.388 C 266.5 437.707 264.68 436.381 263.392 434.601 C 262.104 432.821 261.413 430.677 261.42 428.48"
        fill="#ffb8b8"/>
    <path
        id="path_147"
        d="M 251.6 474.64 C 251.6 474.64 258.52 487.33 261.98 487.33 C 265.44 487.33 248.13 500.6 248.13 500.6 C 248.13 500.6 242.36 483.87 241.21 483.29 C 240.06 482.71 251.6 474.64 251.6 474.64 Z"
        fill="#ffb8b8"/>
    <path
        id="path_148"
        d="M 253.91 486.18 C 253.91 486.18 238.91 491.37 239.49 493.1 C 240.07 494.83 235.45 498.87 235.45 500.6 C 235.45 502.33 234.3 517.91 241.22 530.6 C 248.14 543.29 259.1 552.52 253.91 558.29 C 248.72 564.06 240.64 573.87 249.29 573.87 C 257.94 573.87 271.79 561.18 284.48 565.79 C 297.17 570.4 294.29 553.1 294.29 553.1 C 294.29 553.1 296.02 539.83 292.56 535.79 C 289.1 531.75 276.98 502.91 276.98 499.44 C 276.98 495.97 265.45 482.72 262.57 482.72 C 259.69 482.72 253.91 486.18 253.91 486.18 Z"
        fill="#8985a8"/>
    <path
        id="path_149"
        d="M 271.8 434.83"
        fill="#00000000"
        stroke="#2f2e41"
        stroke-width="1"/>
    <path
        id="path_150"
        d="M 274.68 434.83 C 274.68 434.83 279.38 443.76 279.63 445.35 C 279.88 446.94 287.95 434.83 287.95 434.83 L 278.72 428.48 Z"
        fill="#ffb8b8"/>
    <path
        id="path_151"
        d="M 276.41 441.75 L 286.22 431.37 L 297.76 436.56 C 297.76 436.56 308.52 460.21 309.2 461.94 C 309.88 463.67 291.99 471.75 290.26 471.75 C 288.53 471.75 276.41 453.87 276.41 453.87 C 276.41 453.87 273.53 445.22 276.41 441.75 Z"
        fill="#f2f2f2"/>
    <path
        id="path_152"
        d="M 271.8 455.6 L 271.8 465.98 L 278.72 465.98 L 276.44 455.6 L 271.79 455.6 Z"
        fill="#ffb8b8"/>
    <path
        id="path_153"
        d="M 275.75 463.39 C 274.876 463.378 274.019 463.634 273.294 464.121 C 272.569 464.609 272.009 465.306 271.69 466.12 C 271.24 467.34 271.39 468.62 273.53 469.16 C 278.15 470.31 278.72 469.16 278.72 469.16 C 278.72 469.16 286.73 468.01 285.03 465.7 C 283.33 463.39 278.72 463.39 278.72 463.39 Z"
        fill="#ffb8b8"/>
    <path
        id="path_154"
        d="M 300.64 513.29 C 300.64 513.29 307.56 519.64 305.83 520.21 C 304.1 520.78 297.75 527.71 296.6 528.29 C 295.57 528.81 284.48 532.33 286.22 528.29 C 287.492 525.662 289.496 523.457 291.99 521.94 L 293.14 515.02 Z"
        fill="#f2f2f2"/>
    <path
        id="path_155"
        d="M 238.43 464.87 C 239.22 464.4 240.16 463.83 240.18 462.91 C 240.16 462.572 240.041 462.247 239.838 461.975 C 239.636 461.703 239.358 461.496 239.04 461.38 C 238.401 461.159 237.725 461.067 237.05 461.11 C 236.791 461.098 236.531 461.125 236.28 461.19 C 235.62 461.39 235.24 462.06 234.73 462.51 C 233.91 463.084 232.969 463.46 231.98 463.61 C 230.362 464.03 228.811 464.673 227.37 465.52 C 227.085 465.664 226.836 465.869 226.64 466.12 C 226.415 466.583 226.315 467.097 226.35 467.61 C 226.22 469.57 225.05 471.27 224.17 473.03 C 223.29 474.79 222.72 476.97 223.75 478.64 C 224.158 479.16 224.538 479.701 224.89 480.26 C 225.62 481.78 224.71 483.65 225.24 485.25 C 225.474 485.881 225.85 486.449 226.34 486.91 C 227.355 487.931 228.605 488.686 229.98 489.11 C 231.29 489.51 232.92 489.78 233.43 491.05 C 233.545 491.626 233.709 492.192 233.92 492.74 C 234.155 493.02 234.445 493.249 234.771 493.412 C 235.098 493.575 235.455 493.67 235.82 493.69 C 236.626 493.875 237.456 493.936 238.28 493.87 C 238.691 493.835 239.092 493.717 239.456 493.523 C 239.82 493.328 240.142 493.062 240.4 492.74 C 240.634 492.286 240.922 491.863 241.26 491.48 C 242.1 490.78 243.36 491.33 244.44 491.15 C 244.875 491.068 245.277 490.864 245.6 490.561 C 245.922 490.258 246.151 489.869 246.26 489.44 C 246.289 488.982 246.415 488.536 246.63 488.13 C 247.3 487.28 249.05 487.88 249.49 486.89 C 249.78 486.25 249.18 485.57 248.6 485.17 C 247.611 484.592 246.662 483.947 245.76 483.24 C 245.311 482.881 244.963 482.41 244.75 481.875 C 244.538 481.341 244.469 480.76 244.55 480.19 C 244.95 478.52 247.13 477.6 247.2 475.88 C 247.168 475.388 247.019 474.91 246.765 474.488 C 246.511 474.065 246.16 473.709 245.74 473.45 C 244.897 472.94 244.089 472.376 243.32 471.76 C 242.8 471.26 242.41 470.63 241.85 470.18 C 240.74 469.49 239.457 469.129 238.15 469.14 C 237.46 469.07 234.68 468.75 234.79 467.69 C 234.85 466.8 237.72 465.28 238.43 464.87 Z"
        fill="#2f2e41"/>
    <path
        id="path_156"
        d="M 276.41 441.18 C 276.41 441.18 270.06 443.49 270.06 446.37 C 270.06 449.25 267.18 458.49 270.06 458.49 C 272.94 458.49 278.71 456.28 278.71 456.28 Z"
        fill="#f2f2f2"/>
    <path
        id="path_157"
        d="M 274.68 482.72 C 274.68 482.72 291.41 476.95 291.99 476.95 C 292.57 476.95 300.64 472.33 300.07 470.6 L 297.76 456.18 C 297.76 456.18 288.53 437.14 294.88 437.14 C 301.23 437.14 304.69 452.14 304.69 452.14 C 304.69 452.14 318.54 478.1 311.04 483.87 C 303.54 489.64 272.39 500.02 270.66 498.29 C 268.93 496.56 274.68 482.72 274.68 482.72 Z"
        fill="#ffb8b8"/>
    <path
        id="path_158"
        d="M 290.84 445.22 L 294.73 448.97 L 289.68 453.87 C 289.68 453.87 282.76 450.99 283.33 452.72 C 283.9 454.45 287.37 459.64 289.68 459.64 C 291.99 459.64 304 452.14 304.05 449.83 C 304.1 447.52 296.6 439.45 294.87 438.87 C 293.14 438.29 290.84 445.22 290.84 445.22 Z"
        fill="#ffb8b8"/>
    <path
        id="path_159"
        d="M 283.51 441.19 C 283.51 441.19 291.99 448.67 293.14 448.67 C 294.29 448.67 296.39 437.43 296.39 437.43 C 296.39 437.43 289.55 432.97 287.02 434.19 C 284.49 435.41 283.51 441.19 283.51 441.19 Z"
        fill="#f2f2f2"/>
    <path
        id="path_160"
        d="M 253.91 489.64 C 253.91 489.64 253.91 481.56 271.22 481.56 L 278.72 481.56 L 275.26 500.6 L 263.72 504.06 Z"
        fill="#8985a8"/>
    <path
        id="path_161"
        d="M 291.72 424.28 C 290.025 424.273 288.333 424.169 286.65 423.97 C 285.33 420.77 283.64 418.09 281.82 417.09 C 280.348 415.962 278.712 415.065 276.97 414.43 C 273.13 412.8 266.73 413.82 266.35 415.67 C 258.79 419.28 260.7 425.63 260.7 425.63 C 261.88 428.11 264.51 427.01 266.75 425.89 C 266.958 426.787 267.44 427.597 268.13 428.207 C 268.821 428.816 269.684 429.195 270.6 429.29 C 274.29 429.43 276.09 430.98 275.19 433.01 C 274.29 435.04 273.23 439.89 277.25 439.15 C 281.27 438.41 282.54 440.02 281.83 441.25 C 281.12 442.48 283.62 438.8 283.62 438.8 C 283.62 438.8 285.86 442.14 288.61 439.8 C 288.887 439.532 289.084 439.193 289.18 438.82 C 290.044 439.329 291.065 439.506 292.05 439.32 C 295.35 437.85 293.3 434.38 293.3 434.38 C 293.3 434.38 297.7 433.71 296.28 433.82 C 294.86 433.93 293.97 432.09 296.36 428.78 C 298.75 425.47 293.94 424.35 291.72 424.28 Z"
        fill="#2f2e41"/>
    <path
        id="path_162"
        d="M 267.76 421.13 L 269.4 421.68 L 267.76 426.61 L 266.12 426.06 Z"
        fill="#6c63ff"/>
    <path
        id="path_163"
        d="M 104.71 703.6 L 391.71 703.6 L 391.71 705.6 L 104.71 705.6 Z"
        fill="#3f3d56"/>
    <path
        id="path_164"
        d="M 721.71 609.6 L 1008.71 609.6 L 1008.71 611.6 L 721.71 611.6 Z"
        fill="#3f3d56"/>
    <path
        id="path_165"
        d="M 933.42 429.99 L 949.55 426.84 C 949.55 426.84 953.48 413.47 958.2 415.04 C 962.92 416.61 955.05 429.99 955.05 429.99 L 932.63 440.22 Z"
        fill="#a0616a"/>
    <path
        id="path_166"
        d="M 835.47 443.37 L 828.39 452.42 C 828.39 452.42 818.16 452.03 821.31 457.53 C 824.46 463.03 831.54 459.89 831.93 458.71 C 832.32 457.53 843.73 447.3 843.73 447.3 Z"
        fill="#a0616a"/>
    <path
        id="path_167"
        d="M 864.38 432.94 L 870.28 429.79 C 870.28 429.79 895.46 427.82 904.9 434.12 C 914.34 440.42 865.17 441.2 865.17 441.2 Z"
        fill="#6c63ff"/>
    <path
        id="path_168"
        d="M 875.59 427.24 C 875.59 427.24 872.44 419.77 876.77 418.98 C 879.236 418.497 881.774 418.497 884.24 418.98 L 879.52 422.91 Z"
        fill="#3f3d56"/>
    <path
        id="path_169"
        d="M 875.59 427.24 C 875.59 427.24 872.44 419.77 876.77 418.98 C 879.236 418.497 881.774 418.497 884.24 418.98 L 879.52 422.91 Z"
        fill="#000000"
        fill-opacity="0.1"
        stroke-opacity="0.1"/>
    <path
        id="path_170"
        d="M 853.96 472.48 L 842.55 471.69 L 844.52 475.23 C 844.52 475.23 828.79 479.95 833.9 493.32 C 837.491 502.322 841.833 511.006 846.88 519.28 L 851.99 529.11 C 851.99 529.11 862.61 530.68 863 527.54 C 863.39 524.4 863 522.82 861.03 521.25 C 859.226 519.625 858.1 517.378 857.88 514.96 C 857.88 513.39 858.27 511.81 857.09 511.03 C 855.91 510.25 855.52 509.06 855.52 506.7 C 855.52 504.34 851.19 495.69 851.19 495.69 C 851.19 495.69 864.96 495.3 869.28 498.84 C 873.6 502.38 887.77 515.75 887.77 515.75 C 888.554 516.568 889.217 517.494 889.74 518.5 C 890.53 520.07 890.53 520.86 892.1 521.65 C 893.67 522.44 892.49 525.58 892.1 525.98 C 891.71 526.38 887.79 542.1 887.79 542.1 C 887.79 542.1 883.46 549.57 888.18 549.97 C 892.9 550.37 897.23 550.76 897.62 549.97 C 898.056 548.879 898.581 547.825 899.19 546.82 C 900.37 544.85 899.19 540.53 899.19 540.53 C 899.19 540.53 910.6 525.98 907.06 516.93 C 903.52 507.88 896.05 487.43 896.05 487.43 L 884.64 482.71 L 863.79 475.24 Z"
        fill="#2f2e41"/>
    <path
        id="path_171"
        d="M 853.17 527.15 C 853.17 527.15 850.81 536.2 850.02 536.59 C 849.23 536.98 840.58 544.46 846.48 545.64 C 852.38 546.82 856.71 546.43 857.89 545.25 C 859.07 544.07 858.68 542.89 860.64 542.5 C 862.6 542.11 866.15 540.93 865.75 538.17 C 865.35 535.41 863.39 527.94 862.21 527.16 C 861.03 526.38 853.17 527.15 853.17 527.15 Z"
        fill="#2f2e41"/>
    <path
        id="path_172"
        d="M 887.39 547.21 C 887.39 547.21 883.85 549.96 885.82 555.08 C 887.79 560.2 890.54 565.7 890.54 565.7 C 890.54 565.7 893.69 575.53 898.8 573.96 C 899.721 573.634 900.54 573.071 901.175 572.329 C 901.81 571.586 902.24 570.69 902.42 569.73 C 902.782 568.336 902.841 566.88 902.595 565.46 C 902.348 564.041 901.801 562.691 900.99 561.5 L 898.01 557.04 L 894.86 548.78 Z"
        fill="#2f2e41"/>
    <path
        id="path_173"
        d="M 877.56 431.57 C 877.56 431.57 872.84 431.18 872.05 432.36 C 871.26 433.54 867.72 449.27 872.05 450.85 C 876.38 452.43 889.36 455.18 891.32 453.21 C 893.28 451.24 894.07 433.94 894.07 433.94 Z"
        fill="#a0616a"/>
    <path
        id="path_174"
        d="M 877.56 431.57 C 877.56 431.57 872.84 431.18 872.05 432.36 C 871.26 433.54 867.72 449.27 872.05 450.85 C 876.38 452.43 889.36 455.18 891.32 453.21 C 893.28 451.24 894.07 433.94 894.07 433.94 Z"
        fill="#000000"
        fill-opacity="0.1"
        stroke-opacity="0.1"/>
    <path
        id="path_175"
        d="M 870.48 444.55 C 870.48 444.55 875.99 450.06 879.53 449.27 C 883.07 448.48 891.33 444.94 892.12 443.37 C 892.91 441.8 902.74 441.4 902.74 441.4 L 892.12 470.9 L 899.59 495.68 C 899.59 495.68 903.92 490.57 892.12 490.17 C 880.32 489.77 864.58 483.88 861.83 476.01 C 861.83 476.01 844.52 473.65 843.74 473.26 C 842.96 472.87 845.7 470.51 845.7 470.51 L 857.11 467.36 L 865.37 456.74 Z"
        fill="#f2f2f2"/>
    <path
        id="path_176"
        d="M 874.02 432.35 C 874.02 432.35 875.99 429.6 874.02 429.6 C 870.868 429.534 867.715 429.664 864.58 429.99 C 862.61 430.38 855.14 428.42 854.35 430.78 C 853.56 433.14 853.56 447.69 855.14 448.87 C 856.72 450.05 857.5 450.05 855.53 452.41 C 853.56 454.77 848.84 462.64 850.02 465.39 C 851.2 468.14 837.43 468.93 839.4 472.08 C 839.933 472.979 840.677 473.736 841.567 474.285 C 842.457 474.833 843.467 475.158 844.51 475.23 C 844.51 475.23 845.3 468.94 850.02 472.08 C 854.74 475.22 861.03 483.09 866.15 477.98 C 871.27 472.87 873.23 468.15 873.62 461.46 C 874.031 456.464 873.765 451.435 872.83 446.51 C 872.05 442.58 874.02 432.35 874.02 432.35 Z"
        fill="#6c63ff"/>
    <path
        id="path_177"
        d="M 894.47 439.83 C 894.47 439.83 897.62 442.58 894.47 449.27 C 891.32 455.96 883.06 471.69 889.75 481.92 C 896.44 492.15 899.19 494.9 897.62 496.87 C 896.664 498.117 896.115 499.63 896.05 501.2 L 900.38 499.63 C 900.855 496.413 901.645 493.252 902.74 490.19 C 904.31 486.26 899.59 474.46 899.59 474.46 L 901.16 459.12 C 901.16 459.12 907.45 449.29 908.24 448.89 C 909.03 448.49 906.67 431.58 906.67 431.58 C 906.67 431.58 902.74 430.4 900.77 431.58 C 898.8 432.76 894.47 439.83 894.47 439.83 Z"
        fill="#6c63ff"/>
    <path
        id="path_178"
        d="M 856.71 431.17 L 854.35 431.17 L 838.22 439.43 C 838.22 439.43 837.04 434.32 836.25 435.5 C 835.46 436.68 835.86 439.83 833.89 440.61 C 831.92 441.39 830.74 442.58 833.89 444.15 C 837.04 445.72 837.43 444.54 837.43 447.3 C 837.43 450.06 839.79 450.45 841.76 449.66 C 843.73 448.87 844.12 448.48 846.09 449.27 C 848.06 450.06 846.88 451.24 849.63 450.06 C 852.38 448.88 859.46 449.27 859.46 449.27 Z"
        fill="#6c63ff"/>
    <path
        id="path_179"
        d="M 903.91 432.35 L 906.66 431.56 C 906.66 431.56 914.92 432.35 916.89 432.35 C 918.86 432.35 920.82 431.96 922 431.96 C 923.18 431.96 929.08 431.17 929.87 430.39 C 930.66 429.61 934.2 427.64 934.59 428.82 C 934.98 430 939.31 437.47 935.38 441.01 C 931.45 444.55 930.66 442.98 928.3 444.55 C 925.94 446.12 907.06 449.27 906.66 448.88 C 906.26 448.49 903.91 432.35 903.91 432.35 Z"
        fill="#6c63ff"/>
    <path
        id="path_180"
        d="M 887.79 435.5 M 875.99 435.5 C 875.99 432.372 877.234 429.368 879.446 427.156 C 881.658 424.944 884.662 423.7 887.79 423.7 C 890.918 423.7 893.922 424.944 896.134 427.156 C 898.346 429.368 899.59 432.372 899.59 435.5 C 899.59 438.628 898.346 441.632 896.134 443.844 C 893.922 446.056 890.918 447.3 887.79 447.3 C 884.662 447.3 881.658 446.056 879.446 443.844 C 877.234 441.632 875.99 438.628 875.99 435.5"
        fill="#a0616a"/>
    <path
        id="path_181"
        d="M 879.1 435.97 C 879.233 436.228 879.315 436.51 879.34 436.8 C 879.498 437.469 879.875 438.067 880.411 438.498 C 880.947 438.93 881.612 439.169 882.3 439.18 C 882.225 439.519 882.246 439.872 882.362 440.199 C 882.478 440.527 882.684 440.815 882.956 441.031 C 883.228 441.246 883.555 441.381 883.9 441.42 C 884.696 440.399 885.29 439.234 885.65 437.99 C 885.737 437.5 885.939 437.037 886.24 436.64 C 886.712 436.245 887.305 436.022 887.92 436.01 C 891.062 435.604 894.223 435.367 897.39 435.3 C 897.818 435.332 898.247 435.245 898.63 435.05 C 899.52 434.48 899.22 433.09 898.66 432.2 C 897.553 430.448 895.869 429.136 893.9 428.49 C 892.468 428.103 891 427.858 889.52 427.76 C 887.56 427.445 885.583 427.238 883.6 427.14 C 881.599 427.049 879.617 427.58 877.93 428.66 C 876.75 429.49 874.81 431.83 875.76 433.3 C 875.91 433.54 876.39 433.65 876.6 433.89 C 876.88 434.22 876.88 434.71 877.2 435.01 C 877.72 435.51 878.68 435.35 879.1 435.97 Z"
        fill="#2f2e41"/>
    <path
        id="path_182"
        d="M 887.79 415.83 C 887.79 415.83 874.42 420.55 875.6 427.24 C 876.78 433.93 880.32 441.79 887.79 441.4 C 895.26 441.01 899.2 432.87 899.2 432.87 L 897.23 421.73 C 897.23 421.73 889.75 415.83 887.79 415.83 Z"
        fill="#3f3d56"/>
    <path
        id="path_183"
        d="M 886.1 439.44 C 886.1 439.44 891.36 433.74 894.01 437.04 C 894 437.04 893.88 436.88 886.1 439.44 Z"
        fill="#2f2e41"/>
    <path
        id="path_184"
        d="M 896.03 585.3 C 888.98 585.3 880.25 582.96 871.75 574.52 C 850.94 553.85 831.16 551.78 830.97 551.76 L 831.04 550.98 C 831.24 551 851.29 553.1 872.3 573.97 C 883.1 584.69 894.24 585.35 901.69 584.01 C 906.61 583.117 911.296 581.228 915.46 578.46 L 915.92 579.09 C 911.669 581.92 906.884 583.853 901.86 584.77 C 899.936 585.12 897.985 585.297 896.03 585.3 Z"
        fill="#2f2e41"/>
    <path
        id="path_185"
        d="M 841.57 563.54 M 836.85 563.54 C 836.85 562.289 837.348 561.087 838.232 560.202 C 839.117 559.318 840.319 558.82 841.57 558.82 C 842.821 558.82 844.023 559.318 844.908 560.202 C 845.792 561.087 846.29 562.289 846.29 563.54 C 846.29 564.791 845.792 565.993 844.908 566.878 C 844.023 567.762 842.821 568.26 841.57 568.26 C 840.319 568.26 839.117 567.762 838.232 566.878 C 837.348 565.993 836.85 564.791 836.85 563.54"
        fill="#2f2e41"/>
    <path
        id="path_186"
        d="M 875 585.57 M 870.28 585.57 C 870.28 584.319 870.778 583.117 871.662 582.232 C 872.547 581.348 873.749 580.85 875 580.85 C 876.251 580.85 877.453 581.348 878.338 582.232 C 879.222 583.117 879.72 584.319 879.72 585.57 C 879.72 586.821 879.222 588.023 878.338 588.908 C 877.453 589.792 876.251 590.29 875 590.29 C 873.749 590.29 872.547 589.792 871.662 588.908 C 870.778 588.023 870.28 586.821 870.28 585.57"
        fill="#2f2e41"/>
</svg>
