<svg
    xmlns="http://www.w3.org/2000/svg"
    viewBox="0 0 1137 824"
    id="vector">
    <path
        id="path"
        d="M 1106.77 185.67 C 1061.34 112.93 984.77 61.78 901.98 48.78 C 827.27 37.06 748.56 56.57 686.67 101.29 L 700.31 90.52 C 651.56 122.37 588.23 120.29 532.77 103.71 C 477.31 87.13 426.37 57.56 372.32 36.56 C 327.051 18.978 279.657 7.455 231.37 2.29 C 162.5 -5.11 85.56 3.85 37.61 55.42 C -15.82 112.85 -11.72 216.42 46.08 269.16 C 75.47 295.98 113.97 309.16 147.54 330.07 C 181.11 350.98 212.19 385.78 209.33 426.19 C 206.68 463.6 175.91 492.29 144.07 510.29 C 119.45 524.22 89.14 539.42 86.17 568.29 C 83.3 596.19 108.79 618.05 133.17 630.49 C 212.57 671.04 310.39 670.65 389.49 629.49 C 417.71 614.8 443.65 595.25 473.24 583.8 C 550.94 553.73 636.56 584 718.84 595.07 C 788.712 604.425 859.757 599.595 927.72 580.87 C 968.47 569.63 1009.37 552.45 1037.99 520.45 C 1058.56 497.29 1071.45 468.12 1083.56 439.29 Q 1102.88 393.15 1120.69 346.36 C 1127.81 327.63 1134.83 308.54 1136.69 288.51 C 1139.97 252.19 1125.91 216.29 1106.77 185.67 Z M 306.3 190.8 L 233.46 190.8 C 231.456 190.8 229.532 190.003 228.114 188.586 C 226.697 187.168 225.9 185.244 225.9 183.24 C 225.9 181.236 226.697 179.312 228.114 177.894 C 229.532 176.477 231.456 175.68 233.46 175.68 L 258.46 175.68 C 257.723 174.499 257.328 173.137 257.319 171.746 C 257.309 170.354 257.685 168.987 258.406 167.796 C 259.126 166.605 260.163 165.637 261.4 165 L 253.21 165 C 251.206 165 249.282 164.203 247.864 162.786 C 246.447 161.368 245.65 159.444 245.65 157.44 C 245.65 155.436 246.447 153.512 247.864 152.094 C 249.282 150.677 251.206 149.88 253.21 149.88 L 326.04 149.88 C 327.736 149.872 329.387 150.434 330.725 151.477 C 332.062 152.519 333.011 153.983 333.417 155.629 C 333.824 157.276 333.664 159.013 332.965 160.558 C 332.265 162.103 331.065 163.369 329.56 164.15 L 337.76 164.15 C 339.764 164.15 341.688 164.947 343.106 166.364 C 344.523 167.782 345.32 169.706 345.32 171.71 C 345.32 173.714 344.523 175.638 343.106 177.056 C 341.688 178.473 339.764 179.27 337.76 179.27 L 312.76 179.27 C 313.515 180.467 313.914 181.855 313.91 183.27 C 313.897 185.276 313.088 187.197 311.662 188.608 C 310.236 190.019 308.306 190.808 306.3 190.8 Z M 426.38 298.63 L 401.38 298.63 C 402.338 300.16 402.715 301.984 402.442 303.769 C 402.169 305.553 401.265 307.182 399.894 308.356 C 398.523 309.53 396.775 310.174 394.97 310.17 L 322.14 310.17 C 320.136 310.17 318.212 309.373 316.794 307.956 C 315.377 306.538 314.58 304.614 314.58 302.61 C 314.58 300.606 315.377 298.682 316.794 297.264 C 318.212 295.847 320.136 295.05 322.14 295.05 L 347.14 295.05 C 346.404 293.869 346.009 292.506 346.001 291.114 C 345.993 289.722 346.37 288.354 347.092 287.164 C 347.814 285.973 348.852 285.006 350.09 284.37 L 341.89 284.37 C 339.886 284.37 337.962 283.573 336.544 282.156 C 335.127 280.738 334.33 278.814 334.33 276.81 C 334.33 274.806 335.127 272.882 336.544 271.464 C 337.962 270.047 339.886 269.25 341.89 269.25 L 414.72 269.25 C 416.414 269.246 418.061 269.812 419.395 270.856 C 420.728 271.901 421.672 273.364 422.074 275.01 C 422.475 276.656 422.312 278.39 421.609 279.931 C 420.907 281.472 419.706 282.733 418.2 283.51 L 426.39 283.51 C 428.394 283.51 430.318 284.307 431.736 285.724 C 433.153 287.142 433.95 289.066 433.95 291.07 C 433.95 293.074 433.153 294.998 431.736 296.416 C 430.318 297.833 428.394 298.63 426.39 298.63 Z M 536.02 217.69 L 537.2 219.53 C 534.709 219.82 532.184 219.567 529.8 218.79 C 526.14 218.506 522.637 217.176 519.71 214.96 L 526.1 213.89 C 526.02 211.98 526.71 209.45 528.61 206.09 L 532.87 212.76 L 544.29 210.86 C 542.211 213.85 539.35 216.213 536.02 217.69 Z M 704.27 294.53 L 705.45 296.37 C 702.959 296.654 700.436 296.402 698.05 295.63 C 694.39 295.346 690.887 294.016 687.96 291.8 L 694.35 290.73 C 694.27 288.82 694.96 286.29 696.86 282.93 L 701.12 289.6 L 712.54 287.7 C 710.461 290.69 707.6 293.053 704.27 294.53 Z M 836.9 231.29 L 838.08 233.13 C 835.589 233.42 833.064 233.167 830.68 232.39 C 827.004 232.097 823.49 230.75 820.56 228.51 L 826.95 227.44 C 826.87 225.53 827.56 223 829.46 219.64 L 833.72 226.31 L 845.13 224.41 C 843.071 227.415 840.223 229.796 836.9 231.29 Z M 926.56 151.98 L 901.56 151.98 C 902.518 153.51 902.895 155.334 902.622 157.119 C 902.349 158.903 901.445 160.532 900.074 161.706 C 898.703 162.88 896.955 163.524 895.15 163.52 L 822.34 163.52 C 820.74 163.525 819.18 163.022 817.884 162.085 C 816.588 161.147 815.623 159.822 815.128 158.301 C 814.632 156.78 814.632 155.14 815.128 153.619 C 815.623 152.098 816.588 150.773 817.884 149.835 C 819.18 148.898 820.74 148.395 822.34 148.4 L 847.34 148.4 C 846.606 147.214 846.216 145.848 846.213 144.454 C 846.21 143.059 846.594 141.691 847.323 140.502 C 848.051 139.314 849.096 138.35 850.34 137.72 L 842.14 137.72 C 840.136 137.72 838.212 136.923 836.794 135.506 C 835.377 134.088 834.58 132.164 834.58 130.16 C 834.58 128.156 835.377 126.232 836.794 124.814 C 838.212 123.397 840.136 122.6 842.14 122.6 L 914.97 122.6 C 916.664 122.596 918.311 123.162 919.645 124.206 C 920.978 125.251 921.922 126.714 922.324 128.36 C 922.725 130.006 922.562 131.74 921.859 133.281 C 921.157 134.822 919.956 136.083 918.45 136.86 L 926.56 136.86 C 928.16 136.855 929.72 137.358 931.016 138.295 C 932.312 139.233 933.277 140.558 933.772 142.079 C 934.268 143.6 934.268 145.24 933.772 146.761 C 933.277 148.282 932.312 149.607 931.016 150.545 C 929.72 151.482 928.16 151.985 926.56 151.98 Z"
        fill="#6c63ff"
        fill-opacity="0.1"
        stroke-opacity="0.1"/>
    <path
        id="path_1"
        d="M 565.66 806.55 C 565.66 811.333 571.746 815.924 582.569 819.306 C 593.391 822.688 608.085 824.59 623.39 824.59 C 638.695 824.59 653.389 822.688 664.211 819.306 C 675.034 815.924 681.12 811.333 681.12 806.55 C 681.12 801.767 675.034 797.176 664.211 793.794 C 653.389 790.412 638.695 788.51 623.39 788.51 C 608.085 788.51 593.391 790.412 582.569 793.794 C 571.746 797.176 565.66 801.767 565.66 806.55 Z"
        fill="#6c63ff"
        fill-opacity="0.1"
        stroke-opacity="0.1"/>
    <path
        id="path_2"
        d="M 680.37 694.9 C 680.37 696.95 682.448 698.949 686.306 700.607 C 690.163 702.266 695.605 703.501 701.846 704.135 C 708.087 704.768 714.813 704.768 721.054 704.135 C 727.295 703.501 732.737 702.266 736.594 700.607 C 740.452 698.949 742.53 696.95 742.53 694.9 C 742.53 692.85 740.452 690.851 736.594 689.193 C 732.737 687.534 727.295 686.299 721.054 685.665 C 714.813 685.032 708.087 685.032 701.846 685.665 C 695.605 686.299 690.163 687.534 686.306 689.193 C 682.448 690.851 680.37 692.85 680.37 694.9 Z"
        fill="#6c63ff"
        fill-opacity="0.1"
        stroke-opacity="0.1"/>
    <path
        id="path_3"
        d="M 841.02 722.1 C 841.02 724.674 844.297 727.146 850.123 728.966 C 855.95 730.786 863.86 731.81 872.1 731.81 C 880.34 731.81 888.25 730.786 894.077 728.966 C 899.903 727.146 903.18 724.674 903.18 722.1 C 903.18 719.526 899.903 717.054 894.077 715.234 C 888.25 713.414 880.34 712.39 872.1 712.39 C 863.86 712.39 855.95 713.414 850.123 715.234 C 844.297 717.054 841.02 719.526 841.02 722.1 Z"
        fill="#6c63ff"
        fill-opacity="0.1"
        stroke-opacity="0.1"/>
    <path
        id="path_4"
        d="M 876.28 795.89 C 876.241 799.707 880.08 803.431 887.241 806.523 C 894.402 809.615 904.521 811.919 916.136 813.101 C 927.75 814.282 940.27 814.282 951.884 813.101 C 963.499 811.919 973.618 809.615 980.779 806.523 C 987.94 803.431 991.779 799.707 991.74 795.89 C 991.779 792.073 987.94 788.349 980.779 785.257 C 973.618 782.165 963.499 779.861 951.884 778.679 C 940.27 777.498 927.75 777.498 916.136 778.679 C 904.521 779.861 894.402 782.165 887.241 785.257 C 880.08 788.349 876.241 792.073 876.28 795.89 Z"
        fill="#6c63ff"
        fill-opacity="0.1"
        stroke-opacity="0.1"/>
    <path
        id="path_5"
        d="M 1086 323.82 C 1081.64 315.22 1075.76 337.58 1075.76 340.23 C 1075.76 341.37 1074.46 342.67 1072.97 343.78 C 1072.72 343.97 1072.47 344.15 1072.21 344.32 C 1071.745 343.433 1070.995 342.728 1070.08 342.32 C 1064.96 340.89 1057.29 349.2 1057.29 349.2 C 1057.29 349.2 1043.36 354.65 1035.12 356.08 C 1026.88 357.51 1019.78 363.25 1019.78 363.25 C 1019.78 363.25 1006.42 368.13 1001.59 365.55 C 998.53 363.91 989.31 362.97 981.88 362.42 C 981.8 362.26 981.73 362.1 981.66 361.94 C 979.798 358.091 977.371 354.542 974.46 351.41 C 971.95 348.72 969.02 346.24 967.64 342.83 C 967.52 342.53 967.42 342.23 967.32 341.92 C 972.48 337.2 977.85 331.03 977.95 325.69 C 978.06 319.69 969.13 318.57 961.69 318.69 C 959.79 318.69 957.92 318.69 956.24 318.82 C 955.156 317.143 953.843 315.625 952.34 314.31 L 952.14 312.98 L 949.62 296.44 C 946.763 291.659 942.612 287.781 937.649 285.255 C 932.685 282.729 927.107 281.656 921.56 282.16 C 921.56 282.16 899.56 284.64 898.08 294.39 C 897.215 299.747 896.067 305.055 894.64 310.29 C 894.49 310.8 894.37 311.21 894.28 311.53 C 892.2 312.1 890.67 312.53 889.88 312.81 C 882.18 313.62 872.83 316.29 872.27 324.44 C 871.71 332.59 872.27 339.44 876.78 344.24 C 877.53 345.68 878.32 347.1 878.93 348.6 C 880.108 351.586 880.536 354.816 880.177 358.006 C 879.817 361.196 878.682 364.25 876.87 366.9 C 873.77 371.32 868.98 374.21 865.23 378.08 C 862.063 381.3 860.018 385.457 859.4 389.93 L 858.92 390 C 856.285 394.179 854.264 398.716 852.92 403.47 C 851.21 410.35 837.86 424.69 837.86 424.69 C 837.86 424.69 825.1 440.99 819.7 443.29 C 814.3 445.59 812.31 447.59 812.31 447.59 L 809.46 449.59 C 809.46 449.59 807.19 453.03 804.92 454.46 C 802.65 455.89 771.92 479.41 771.92 479.41 C 771.92 479.41 757.43 484.85 755.44 489.15 C 754.93 490.24 755.65 492.15 757 494.32 L 755.63 495.05 C 751.93 497.05 747.36 499.39 743.55 501.05 C 743.553 500.99 743.553 500.93 743.55 500.87 C 743.55 500.87 741.26 495.96 739.38 491.42 C 739.05 490.61 738.72 489.81 738.38 489.05 C 740.16 489.19 741.28 489.31 741.28 489.31 C 741.28 489.31 740.52 481.66 742.8 481.31 C 745.08 480.96 741.15 474.81 741.15 474.81 L 740.15 469.08 C 740.15 469.08 742.43 454.93 740.15 451.87 C 737.87 448.81 735.23 440.41 735.23 440.41 C 735.23 440.41 737.5 433.14 735.23 430.85 C 732.96 428.56 731.82 421.67 731.82 421.67 C 731.82 421.67 729.92 407.15 725 397.97 C 720.08 388.79 711.73 371.21 711.73 371.21 L 705.29 350.21 L 705.29 350.21 C 705.29 350.21 685.97 314.65 667.02 302.43 C 648.07 290.21 621.02 288.43 621.02 288.43 C 620.93 288.2 620.83 287.98 620.74 287.75 C 620.013 285.906 619.398 284.019 618.9 282.1 C 618.82 281.78 618.76 281.46 618.69 281.1 C 625.345 275.397 629.732 267.486 631.046 258.821 C 632.36 250.155 630.515 241.3 625.85 233.88 C 625.57 233.44 625.28 233.02 624.98 232.6 C 626.877 231.586 628.503 230.131 629.721 228.358 C 630.939 226.585 631.714 224.545 631.98 222.41 C 632.58 217.15 625.98 212.59 622.09 209.87 C 621.7 209.59 621.29 209.32 620.88 209.07 L 620.36 208.75 L 619.66 208.35 C 619.44 208.23 619.21 208.1 618.97 207.99 L 618.44 207.72 C 615.82 206.378 612.913 205.691 609.97 205.72 C 606.32 205.84 602.82 207.28 599.18 207.5 C 591.08 208 582.74 202.5 575.23 205.63 C 569.71 207.91 566.15 214.39 560.23 215.02 C 558.57 215.2 556.9 214.87 555.23 214.96 C 554.393 214.936 553.564 215.125 552.82 215.51 C 552.077 215.895 551.443 216.463 550.98 217.16 C 550.32 218.41 550.54 219.93 550.71 221.34 C 551.433 227.504 550.697 233.753 548.56 239.58 C 542.91 237.49 525.33 245.16 524.11 248.58 C 523.18 251.22 516.6 258.81 512.2 263.71 L 511.08 264.95 C 511.041 264.419 511.123 263.885 511.32 263.39 L 500.32 270.27 C 500.32 270.27 488.96 272.54 484.79 282.11 C 480.62 291.68 468.56 294.01 468.56 294.01 L 460.99 306.62 C 460.99 306.62 442.04 314.62 440.9 338.73 C 439.76 362.84 455.25 361.29 455.25 361.29 L 455.25 361.29 C 461.68 363.2 492.37 361.29 492.37 361.29 C 492.37 361.29 516.63 345.23 518.52 357.08 C 520.41 368.93 528 408.68 533.69 412.89 C 539.38 417.1 542.02 431.62 542.02 431.62 C 542.02 431.62 531.02 454.18 539.37 466.41 C 544.698 474.443 549.141 483.03 552.62 492.02 L 553.83 492.33 L 553.06 494.42 L 548.46 506.74 C 548.46 506.74 558.31 513.04 557.93 516.11 C 557.55 519.18 555.28 531.78 555.28 531.78 C 555.28 531.78 564.38 549.36 562.86 552.42 C 561.34 555.48 563.03 561.21 563.03 561.21 C 563.03 561.21 569.3 599.44 574.22 609.38 C 577.295 615.876 579.201 622.863 579.85 630.02 C 579.85 630.02 575.75 639.19 578.02 642.25 C 580.29 645.31 579.85 650.66 579.85 650.66 C 579.85 650.66 579.49 657.16 579.85 659.08 C 580.21 661 581.01 667.86 582.14 669.01 C 583.27 670.16 583.67 701.89 599.14 734.01 L 599.14 741.66 C 599.14 741.66 595.73 745.86 599.14 749.66 C 600.14 750.74 603.74 750.59 608.41 749.81 C 608.76 750.48 609.11 751.19 609.48 751.93 C 611.773 756.386 613.567 761.081 614.83 765.93 C 614.92 766.28 614.99 766.63 615.06 766.98 C 612.9 767.98 611.29 769.48 611.84 771.81 C 613.26 777.81 607.3 794.75 607.3 794.75 C 607.3 794.75 601.04 804.21 605.02 808.51 C 609 812.81 643.67 815.97 645.09 812.24 C 646.51 808.51 641.09 785.24 641.09 785.24 L 635.96 767.85 L 635.66 766.53 C 634.58 761.83 632.72 753.53 631.26 746.44 C 631.11 745.7 630.97 744.98 630.82 744.27 C 635.36 742.96 638.53 741.95 638.53 741.95 C 638.53 741.95 631.71 732.77 633.22 728.95 C 634.73 725.13 629.06 662.05 629.06 662.05 C 629.06 662.05 626.56 654.49 628.05 650.29 C 629.54 646.09 623.12 639.59 623.12 639.59 L 625.78 568.87 C 625.78 568.87 643.21 625.06 663.29 638.45 C 663.29 638.45 688.68 641.5 693.99 631.94 C 694.27 631.44 694.53 630.94 694.78 630.34 C 695.02 630.65 695.25 630.96 695.46 631.28 C 696.24 632.428 696.935 633.631 697.54 634.88 Q 697.96 635.72 698.29 636.53 L 698.29 636.53 C 698.29 636.53 704.02 653.15 705.35 660.32 C 706.68 667.49 720.79 654.87 725.06 652.32 C 729.33 649.77 726.76 631.97 720.79 626.52 C 717.79 623.83 717.05 619.1 716.2 613.6 L 715.98 610.6 C 715.98 610.6 715.88 610.47 715.68 610.25 C 714.9 605.48 713.8 600.35 711.13 595.54 C 708.13 590.24 703.23 589.14 698.68 589.54 C 696.883 589.699 695.175 590.401 693.785 591.55 C 692.394 592.7 691.385 594.245 690.89 595.98 L 690.48 596.18 C 689.495 596.173 688.511 596.253 687.54 596.42 C 687.54 596.42 687.54 586.87 685.64 581.89 C 683.74 576.91 686.4 562.4 686.4 562.4 C 686.4 562.4 687.17 558.58 684.89 551.32 C 682.61 544.06 683.76 503.15 683.76 503.15 C 683.031 500.144 682.15 497.177 681.12 494.26 C 681 493.93 680.87 493.6 680.74 493.26 C 680.926 493.021 681.05 492.739 681.1 492.44 C 681.48 489 676.17 477.15 682.99 473.33 C 689.81 469.51 679.99 452.69 679.99 452.69 L 677.71 402.23 C 677.71 402.23 670.27 388.63 671.32 385.6 L 683.02 399.93 C 683.02 399.93 691.02 415.23 691.36 417.52 C 691.7 419.81 693.26 425.52 695.53 424.78 C 697.8 424.04 698.94 435.49 698.94 435.49 C 698.94 435.49 705 448.49 703.87 453.07 C 702.74 457.65 705.38 461.86 705.38 461.86 C 705.38 461.86 711.44 472.18 710.69 476.01 C 709.94 479.84 714.04 491.14 714.09 491.29 L 714.09 491.29 C 714.09 491.29 714.24 491.92 714.45 492.96 C 715.13 496.25 716.45 503.58 716.04 506.78 C 715.42 510.98 713.43 540.51 728.78 534.21 C 730.598 533.456 732.27 532.39 733.72 531.06 C 734.437 531.679 735.32 532.076 736.26 532.2 C 743.5 533.2 758.93 517.04 766.6 508.4 L 767.67 507.19 C 769.37 508.97 770.56 510.12 770.56 510.12 L 778.56 506.12 C 778.56 506.12 827.94 486.29 832.77 477.69 C 837.6 469.09 865.85 450.45 865.85 450.45 C 865.85 450.45 870.28 471.95 867.16 475.11 C 864.16 478.11 854.77 498.25 856.34 504.64 C 856.399 504.939 856.5 505.229 856.64 505.5 C 852.1 508.65 856.64 549.08 856.64 549.08 C 856.64 549.08 858.06 567.71 855.56 580.29 C 855.02 583.472 854.993 586.72 855.48 589.91 C 856.48 598.28 859.74 607.48 861.07 613.33 C 861.6 615.63 861.83 617.42 861.52 618.42 C 860.1 623.01 863.52 638.49 866.92 640.78 C 870.32 643.07 868.06 652.78 868.06 652.78 C 868.06 652.78 865.5 667.4 868.06 671.7 C 868.553 672.536 868.987 673.404 869.36 674.3 L 868.69 675.15 C 863.98 681.15 856.69 692.66 859.44 703.15 C 863.44 718.24 873.09 726.47 880.28 717.67 C 887.47 708.87 886.86 693.29 886.86 693.29 C 886.86 693.29 886.86 690.29 887.04 686.73 C 887.04 685.98 887.15 685.21 887.22 684.43 C 887.922 684.481 888.628 684.481 889.33 684.43 C 895.33 683.86 896.15 680.13 901.83 677.84 C 907.51 675.55 912.63 665.84 912.63 665.84 L 912.92 634.84 C 912.92 634.84 915.76 663.84 917.46 670.96 C 919.16 678.08 915.46 708.24 915.46 708.24 L 912.62 735.24 L 911.2 744.98 C 911.94 746.79 914.13 748.14 917.09 749.14 C 916.94 749.8 916.79 750.51 916.62 751.28 C 915.47 756.68 913.99 764.38 913.76 768.87 C 913.38 776.33 919.64 797.93 920.95 798.12 C 922.26 798.31 958.09 808.44 953.95 795.44 C 949.81 782.44 943.15 781.3 944.11 776.33 C 944.73 773.04 943.7 761.59 942.92 754.25 C 942.84 753.42 942.75 752.66 942.68 751.96 C 946.14 751.96 948.46 751.87 948.46 751.87 L 947.89 740.68 C 947.89 740.68 958.98 697.39 957.89 689.08 C 956.8 680.77 961.56 662.29 961.56 662.29 C 961.56 662.29 965.83 626.46 965.56 620.57 C 965.29 614.68 970.68 593.77 970.68 593.77 C 974.87 579.261 978.209 564.519 980.68 549.62 C 984.37 526.4 974.42 503.17 974.42 503.17 C 974.42 503.17 974.33 502.76 974.2 502.04 C 973.2 496.91 969.46 475.9 974.42 467.62 C 980.11 458.16 981.81 438.67 981.81 438.67 C 981.81 438.67 996.31 416.3 994.89 410.57 C 994.89 410.57 1041.5 395.37 1044.34 390.5 C 1047.18 385.63 1067.07 375.33 1067.07 375.33 L 1080.72 371 C 1080.72 371 1080.1 367.91 1079.09 363.76 L 1080.03 362.98 C 1083.3 360.26 1087.16 357.24 1088.2 357.24 C 1089.97 357.29 1090.35 332.42 1086 323.82 Z M 534.07 293.23 L 524.98 293.23 C 524.98 293.23 522.98 294.23 520.07 295.91 C 519.21 296.39 518.29 296.91 517.32 297.52 C 518.5 293.52 519.67 289.71 519.67 289.71 L 526.87 282.14 C 526.87 282.14 525.99 281.54 524.66 280.52 C 525.18 280.28 525.74 280.02 526.33 279.78 C 527.961 279.02 529.716 278.563 531.51 278.43 C 535.21 278.43 543.45 264.95 543.45 264.95 C 545.22 261.11 546.792 257.181 548.16 253.18 C 548.692 253.819 549.277 254.411 549.91 254.95 C 550.223 255.971 550.799 256.892 551.58 257.62 C 553.09 259.04 555.07 260.12 555.84 262.05 C 557.03 264.99 554.84 268.68 556.46 271.42 C 557.179 272.449 558.146 273.281 559.27 273.84 C 561.92 275.42 564.63 276.89 567.37 278.31 L 567.37 278.31 L 569.52 279.43 L 569.52 279.7 C 569.47 282.64 569.33 285.79 569.04 288.98 C 569.04 289.31 568.97 289.64 568.94 289.98 L 568.94 289.98 C 568.94 289.98 550.36 281.79 546.58 285.23 C 542.8 288.67 535.97 287.9 535.97 287.9 C 535.97 287.9 537.48 293.23 534.07 293.23 Z"
        fill="none"/>
    <path
        id="path_6"
        d="M 636.76 318.55 L 595.47 342.8 C 595.47 342.8 545.81 329.92 559.47 318.92 C 565.55 314.03 568.1 303.58 569.04 293.48 C 569.33 290.32 569.47 287.19 569.52 284.28 C 569.604 279.147 569.41 274.012 568.94 268.9 C 568.94 268.9 626.53 259.06 619.33 273.84 C 617.58 277.43 617.72 281.91 618.91 286.65 C 619.407 288.553 620.021 290.423 620.75 292.25 C 625.96 305.42 636.76 318.55 636.76 318.55 Z"
        fill="#ffccd0"/>
    <path
        id="path_7"
        d="M 619.33 273.84 C 617.58 277.43 617.72 281.91 618.91 286.65 C 612.398 292.271 604.073 295.361 595.47 295.35 C 586 295.35 582.37 287.29 575.94 281.35 C 575.44 280.88 572.36 282.16 571.94 281.67 C 572.08 273.02 568.94 268.93 568.94 268.93 C 568.94 268.93 626.56 259.06 619.33 273.84 Z"
        fill="#000000"
        fill-opacity="0.1"
        stroke-opacity="0.1"/>
    <path
        id="path_8"
        d="M 631.47 258.21 C 631.465 266.875 628.331 275.254 622.649 281.796 C 616.967 288.338 609.109 292.614 600.529 293.832 C 591.95 295.049 583.213 293.13 575.934 288.427 C 568.656 283.725 563.314 276.549 560.898 268.228 C 558.482 259.906 559.149 250.985 562.777 243.116 C 566.405 235.247 572.756 228.946 580.653 225.38 C 588.55 221.813 597.476 221.215 605.778 223.696 C 614.081 226.178 621.215 231.575 625.86 238.89 C 629.528 244.665 631.474 251.368 631.47 258.21 Z"
        fill="#ffccd0"/>
    <path
        id="path_9"
        d="M 625.86 238.89 C 625.222 239.207 624.551 239.455 623.86 239.63 C 621.02 240.35 618.05 240.04 615.14 239.76 C 614.68 239.664 614.202 239.724 613.78 239.93 C 613.27 240.26 613.14 240.93 612.95 241.53 C 612.16 243.86 609.75 245.22 607.43 246.02 C 602.693 247.62 597.581 247.749 592.77 246.39 C 592.131 246.151 591.451 246.046 590.77 246.08 C 589.2 246.27 588.27 247.96 588.02 249.52 C 587.77 251.08 587.92 252.74 587.33 254.19 C 586.33 256.73 583.47 257.89 580.99 259.01 C 578.51 260.13 575.78 261.92 575.66 264.65 C 575.58 266.22 576.41 267.65 576.66 269.21 C 576.849 270.583 576.625 271.982 576.018 273.228 C 575.411 274.474 574.447 275.512 573.25 276.21 C 572.687 279.037 571.935 281.823 571 284.55 C 564.934 278.957 560.972 271.446 559.78 263.281 C 558.589 255.117 560.24 246.787 564.455 239.694 C 568.669 232.601 575.197 227.168 582.937 224.311 C 590.677 221.454 599.169 221.343 606.981 223.996 C 614.794 226.65 621.461 231.91 625.86 238.89 Z"
        fill="#000000"
        fill-opacity="0.1"
        stroke-opacity="0.1"/>
    <path
        id="path_10"
        d="M 622.13 215.09 C 618.629 212.474 614.38 211.047 610.01 211.02 C 606.36 211.14 602.86 212.56 599.22 212.78 C 591.12 213.28 582.78 207.86 575.27 210.93 C 569.75 213.19 566.19 219.61 560.27 220.24 C 558.61 220.41 556.94 220.09 555.27 220.17 C 553.6 220.25 551.81 220.88 551.02 222.35 C 550.512 223.674 550.418 225.121 550.75 226.5 C 551.497 232.848 550.662 239.283 548.32 245.23 C 547.19 248.08 545.69 251.04 546.22 254.06 C 546.752 256.329 548.061 258.343 549.92 259.75 C 550.236 260.764 550.811 261.678 551.59 262.4 C 553.1 263.8 555.08 264.87 555.85 266.78 C 557.04 269.71 554.85 273.36 556.47 276.08 C 557.191 277.1 558.157 277.922 559.28 278.47 Q 564.35 281.47 569.64 284.07 C 570.658 281.129 571.477 278.122 572.09 275.07 C 573.287 274.372 574.251 273.334 574.858 272.088 C 575.465 270.842 575.689 269.443 575.5 268.07 C 575.22 266.53 574.39 265.07 574.5 263.51 C 574.63 260.78 577.34 258.98 579.83 257.86 C 582.32 256.74 585.16 255.58 586.18 253.05 C 586.77 251.59 586.61 249.94 586.86 248.38 C 587.11 246.82 588.04 245.12 589.61 244.93 C 590.291 244.899 590.972 245.008 591.61 245.25 C 596.423 246.601 601.533 246.468 606.27 244.87 C 608.6 244.08 611.01 242.71 611.79 240.38 C 611.98 239.79 612.11 239.11 612.63 238.78 C 613.048 238.573 613.524 238.513 613.98 238.61 C 616.89 238.89 619.87 239.19 622.7 238.49 C 625.166 237.776 627.368 236.353 629.03 234.397 C 630.692 232.441 631.743 230.038 632.05 227.49 C 632.62 222.29 626 217.79 622.13 215.09 Z"
        fill="#e3787d"/>
    <path
        id="path_11"
        d="M 622.13 215.09 C 620.733 214.112 619.242 213.275 617.68 212.59 C 618.42 213.01 619.16 213.46 619.86 213.95 C 623.73 216.65 630.35 221.17 629.74 226.38 C 629.436 228.928 628.388 231.331 626.727 233.287 C 625.066 235.243 622.865 236.667 620.4 237.38 C 617.56 238.09 614.59 237.78 611.68 237.5 C 611.22 237.408 610.743 237.468 610.32 237.67 C 609.8 238 609.68 238.67 609.48 239.27 C 608.71 241.61 606.3 242.97 603.97 243.76 C 599.232 245.368 594.115 245.501 589.3 244.14 C 588.662 243.9 587.981 243.792 587.3 243.82 C 585.73 244.01 584.8 245.71 584.55 247.27 C 584.3 248.83 584.46 250.48 583.87 251.94 C 582.87 254.47 580 255.64 577.51 256.76 C 575.02 257.88 572.32 259.67 572.19 262.4 C 572.11 263.96 572.93 265.4 573.19 266.96 C 573.379 268.333 573.155 269.732 572.548 270.978 C 571.941 272.224 570.977 273.262 569.78 273.96 C 569.163 276.987 568.348 279.97 567.34 282.89 C 568.1 283.28 568.84 283.69 569.6 284.06 C 570.618 281.119 571.437 278.112 572.05 275.06 C 573.247 274.362 574.211 273.324 574.818 272.078 C 575.425 270.832 575.649 269.433 575.46 268.06 C 575.18 266.52 574.35 265.06 574.46 263.5 C 574.59 260.77 577.3 258.97 579.79 257.85 C 582.28 256.73 585.12 255.57 586.14 253.04 C 586.73 251.58 586.57 249.93 586.82 248.37 C 587.07 246.81 588 245.11 589.57 244.92 C 590.251 244.889 590.932 244.998 591.57 245.24 C 596.383 246.591 601.493 246.458 606.23 244.86 C 608.56 244.07 610.97 242.7 611.75 240.37 C 611.94 239.78 612.07 239.1 612.59 238.77 C 613.008 238.563 613.484 238.503 613.94 238.6 C 616.85 238.88 619.83 239.18 622.66 238.48 C 625.126 237.766 627.328 236.343 628.99 234.387 C 630.652 232.431 631.703 230.028 632.01 227.48 C 632.62 222.29 626 217.79 622.13 215.09 Z"
        fill="#000000"
        fill-opacity="0.1"
        stroke-opacity="0.1"/>
    <path
        id="path_12"
        d="M 543.45 269.66 C 543.45 269.66 535.21 283.02 531.51 283.02 C 529.717 283.154 527.963 283.608 526.33 284.36 C 524.694 285.039 523.104 285.824 521.57 286.71 L 508.21 272.79 C 508.21 272.79 509.91 270.99 512.21 268.46 C 516.61 263.61 523.21 256.08 524.12 253.46 C 525.54 249.46 549.12 239.81 550.27 246.35 C 551.42 252.89 543.45 269.66 543.45 269.66 Z"
        fill="#ffccd0"/>
    <path
        id="path_13"
        d="M 771.1 505.75 C 771.1 505.75 769.34 507.86 766.57 510.95 C 758.9 519.51 743.47 535.52 736.23 534.54 C 726.39 533.21 731.68 507.07 737.56 505.93 C 741.13 505.24 749.56 501 755.66 497.76 C 759.66 495.66 762.57 493.99 762.57 493.99 Z"
        fill="#ce828d"/>
    <path
        id="path_14"
        d="M 728.75 536.53 C 713.4 542.79 715.39 513.53 716.01 509.34 C 716.47 506.17 715.1 498.9 714.42 495.64 C 714.21 494.64 714.06 493.99 714.06 493.99 L 717.95 484.15 C 717.95 484.15 736.95 484.52 736.95 487.08 C 736.95 488.13 738.06 491.08 739.36 494.2 C 741.24 498.7 743.53 503.57 743.53 503.57 C 743.53 503.57 744.1 530.29 728.75 536.53 Z"
        fill="#ffccd0"/>
    <path
        id="path_15"
        d="M 636.67 770.72 C 636.67 770.72 613.08 783.79 615.35 774.13 C 615.799 771.525 615.655 768.852 614.93 766.31 C 613.666 761.493 611.872 756.831 609.58 752.41 C 607.25 747.71 605.12 744.29 605.12 744.29 C 605.12 744.29 628.99 729.22 629.28 734.91 C 629.775 738.987 630.479 743.036 631.39 747.04 C 632.85 754.1 634.71 762.29 635.79 766.95 Z"
        fill="#ff748e"/>
    <path
        id="path_16"
        d="M 636.67 770.72 C 636.67 770.72 613.08 783.79 615.35 774.13 C 615.799 771.525 615.655 768.852 614.93 766.31 C 617.626 765.234 620.481 764.609 623.38 764.46 C 626.49 762.18 634.2 766.09 635.79 766.95 Z"
        fill="#000000"
        fill-opacity="0.1"
        stroke-opacity="0.1"/>
    <path
        id="path_17"
        d="M 623.38 765.6 C 623.38 765.6 610.52 766.17 611.94 772.14 C 613.36 778.11 607.4 794.87 607.4 794.87 C 607.4 794.87 601.14 804.25 605.12 808.52 C 609.1 812.79 643.77 815.91 645.19 812.21 C 646.61 808.51 641.19 785.5 641.19 785.5 L 636.09 768.29 C 636.09 768.29 626.86 763.04 623.38 765.6 Z"
        fill="#4d507f"/>
    <path
        id="path_18"
        d="M 717.95 638.66 L 700.23 643.66 C 699.587 641.134 698.685 638.681 697.54 636.34 C 696.935 635.101 696.24 633.908 695.46 632.77 C 692.65 628.71 688.46 625.47 682.52 627.29 C 669.52 631.29 682.52 601.57 682.52 601.57 C 682.52 601.57 686.04 600.07 689.59 598.39 L 690.42 597.98 C 693.29 596.57 696.02 595.09 696.69 594.23 C 697.97 592.61 709.79 605.39 714.28 610.35 C 715.34 611.52 715.98 612.26 715.98 612.26 L 716.81 623.41 Z"
        fill="#ff748e"/>
    <path
        id="path_19"
        d="M 717.95 638.66 L 700.23 643.66 C 699.587 641.134 698.685 638.681 697.54 636.34 C 698.26 633.97 700.19 629.98 704.88 630.58 C 710.28 631.28 709.52 612.4 701.94 607.85 C 694.36 603.3 689.81 603.02 689.81 603.02 C 689.326 601.524 689.25 599.925 689.59 598.39 L 690.42 597.98 C 693.29 596.57 696.02 595.09 696.69 594.23 C 697.97 592.61 709.79 605.39 714.28 610.35 C 715.17 615.25 715.56 619.86 716.81 623.41 Z"
        fill="#000000"
        fill-opacity="0.1"
        stroke-opacity="0.1"/>
    <path
        id="path_20"
        d="M 690.95 603.04 C 690.396 601.33 690.371 599.492 690.878 597.767 C 691.385 596.043 692.402 594.511 693.794 593.373 C 695.185 592.235 696.889 591.544 698.68 591.39 C 703.23 591 708.18 592.1 711.13 597.39 C 717.67 609.05 714.82 622.7 720.79 628.1 C 726.76 633.5 729.32 651.1 725.06 653.67 C 720.8 656.24 706.68 668.73 705.35 661.62 C 704.02 654.51 698.29 638.04 698.29 638.04 C 698.29 638.04 699.43 629.79 706.01 630.64 C 711.42 631.34 710.66 612.46 703.08 607.91 C 695.5 603.36 690.95 603.08 690.95 603.08 Z"
        fill="#4d507f"/>
    <path
        id="path_21"
        d="M 631.39 747.04 C 625.29 748.8 616.47 751.19 609.58 752.41 C 607.25 747.71 605.12 744.29 605.12 744.29 C 605.12 744.29 628.99 729.22 629.28 734.91 C 629.775 738.987 630.479 743.036 631.39 747.04 Z"
        fill="#000000"
        fill-opacity="0.1"
        stroke-opacity="0.1"/>
    <path
        id="path_22"
        d="M 695.46 632.79 C 692.65 628.73 688.46 625.49 682.52 627.31 C 669.52 631.31 682.52 601.59 682.52 601.59 C 682.52 601.59 686.61 599.85 690.42 598 C 692.77 597.84 696.84 598.08 698.15 601.24 C 700 605.69 700.4 623.16 695.46 632.79 Z"
        fill="#000000"
        fill-opacity="0.1"
        stroke-opacity="0.1"/>
    <path
        id="path_23"
        d="M 693.99 633.45 C 688.68 642.92 663.29 639.89 663.29 639.89 C 643.21 626.63 625.78 570.89 625.78 570.89 L 623.12 641 C 623.12 641 629.56 647.43 628.05 651.61 C 626.54 655.79 629.19 663.35 629.19 663.35 C 629.19 663.35 634.87 725.87 633.35 729.67 C 631.83 733.47 638.66 742.55 638.66 742.55 C 638.66 742.55 602.66 753.92 599.24 750.13 C 595.82 746.34 599.24 742.13 599.24 742.13 L 599.24 734.54 C 583.72 702.71 583.33 671.26 582.24 670.12 C 581.15 668.98 580.35 662.12 579.95 660.28 C 579.55 658.44 579.95 651.93 579.95 651.93 C 579.95 651.93 580.39 646.63 578.12 643.6 C 575.85 640.57 579.95 631.47 579.95 631.47 C 579.3 624.37 577.394 617.443 574.32 611.01 C 569.4 601.16 563.13 563.26 563.13 563.26 C 563.13 563.26 561.44 557.57 562.96 554.55 C 564.48 551.53 555.38 534.09 555.38 534.09 C 555.38 534.09 557.66 521.58 558.03 518.55 C 558.4 515.52 548.56 509.26 548.56 509.26 L 553.16 497.05 L 558.03 484.05 C 558.03 484.05 670.95 486.32 675.5 487.83 C 677.7 488.56 679.71 492.72 681.21 496.83 C 682.241 499.719 683.123 502.66 683.85 505.64 C 683.85 505.64 682.71 546.18 684.98 553.38 C 687.25 560.58 686.49 564.38 686.49 564.38 C 686.49 564.38 683.85 578.78 685.73 583.7 C 687.61 588.62 687.63 598.11 687.63 598.11 C 687.63 598.11 695.21 596.59 697.1 601.11 C 698.99 605.63 699.28 623.98 693.99 633.45 Z"
        fill="#aacaf5"/>
    <path
        id="path_24"
        d="M 920.96 798.09 C 919.65 797.91 913.39 776.49 913.77 769.09 C 914 764.64 915.48 757.01 916.63 751.65 C 917.39 748.14 918 745.65 918 745.65 L 942.19 748.29 C 942.19 748.29 942.51 750.93 942.9 754.63 C 943.68 761.9 944.71 773.25 944.09 776.51 C 943.09 781.45 949.77 782.58 953.93 795.46 C 958.09 808.34 922.29 798.29 920.96 798.09 Z"
        fill="#4d507f"/>
    <path
        id="path_25"
        d="M 889.13 677.02 C 887.84 679.12 887.28 683.81 887.04 687.76 C 886.81 691.31 886.86 694.27 886.86 694.27 C 886.86 694.27 887.43 709.81 880.23 718.51 C 873.03 727.21 863.37 719.08 859.39 704.12 C 856.63 693.72 863.93 682.34 868.64 676.36 C 870.71 673.74 872.27 672.16 872.27 672.16 C 872.27 672.16 891.56 673.04 889.13 677.02 Z"
        fill="#4d507f"/>
    <path
        id="path_26"
        d="M 900.02 316.84 C 900.02 316.84 873.22 314.76 872.27 328.59 C 871.32 342.42 873.68 353.07 894.2 354.76 C 914.72 356.45 907.32 317.11 907.32 317.11 Z"
        fill="#575a89"/>
    <path
        id="path_27"
        d="M 949.62 323.78 C 949.62 323.78 975.91 319.68 975.72 329.92 C 975.53 340.16 955.65 353.47 955.65 353.47 Z"
        fill="#575a89"/>
    <path
        id="path_28"
        d="M 901.01 316.84 C 901.01 316.84 874.22 314.76 873.27 328.59 C 872.32 342.42 874.67 353.07 895.19 354.76 C 915.71 356.45 908.32 317.11 908.32 317.11 Z"
        fill="#000000"
        fill-opacity="0.15"
        stroke-opacity="0.15"/>
    <path
        id="path_29"
        d="M 951.85 323.78 C 951.85 323.78 978.14 319.68 977.95 329.92 C 977.76 340.16 957.87 353.47 957.87 353.47 Z"
        fill="#000000"
        fill-opacity="0.15"
        stroke-opacity="0.15"/>
    <path
        id="path_30"
        d="M 907.56 312.92 C 900.202 315.876 893.281 319.822 886.99 324.65 C 886.101 325.192 885.431 326.032 885.1 327.02 C 885.047 327.817 885.064 328.616 885.15 329.41 C 884.99 333.41 878.94 333.75 876.22 336.72 C 874.29 338.82 874.32 342.12 875.22 344.82 C 876.12 347.52 877.83 349.9 878.91 352.54 C 880.088 355.499 880.516 358.704 880.156 361.869 C 879.797 365.033 878.661 368.06 876.85 370.68 C 873.75 375.07 868.96 377.93 865.21 381.77 C 860.21 386.94 857.14 395.35 861.12 401.39 C 863.55 405.09 868 407.02 870.6 410.59 C 873.4 414.46 873.6 419.65 872.93 424.38 C 872.26 429.11 870.83 433.76 870.79 438.54 C 870.7 447.88 876.12 456.74 883.67 462.25 C 891.22 467.76 900.67 470.25 909.98 470.75 C 913.29 470.94 916.73 470.88 919.74 469.5 C 922.75 468.12 925.11 465.5 927.17 462.84 C 933.381 454.847 938.149 445.832 941.26 436.2 C 942.61 432.03 943.73 427.6 946.63 424.32 C 948.752 422.182 951.22 420.417 953.93 419.1 L 967.25 411.64 C 971.62 409.19 976.41 406.21 977.56 401.34 C 978.86 395.82 975.02 389.4 978.14 384.66 C 979.14 383.12 980.78 382.07 981.93 380.66 C 985.16 376.58 983.93 370.56 981.64 365.89 C 979.774 362.067 977.347 358.545 974.44 355.44 C 971.93 352.78 969 350.33 967.62 346.94 C 966.56 344.34 966.52 341.41 965.57 338.77 C 963.57 333.27 958.15 329.92 954.51 325.35 C 951.51 321.56 949.68 316.85 946.17 313.54 C 940.48 308.16 934.17 309.88 927.17 310.09 C 923.71 310.2 920.49 308.92 917.08 308.86 C 913.08 308.75 911.33 311.41 907.56 312.92 Z"
        fill="#663d5c"/>
    <path
        id="path_31"
        d="M 952.93 322.5 L 894.07 316.5 C 894.07 316.5 894.28 315.8 894.64 314.5 C 896.055 309.324 897.193 304.077 898.05 298.78 C 899.56 289.18 921.56 286.72 921.56 286.72 C 927.104 286.209 932.681 287.271 937.649 289.784 C 942.617 292.298 946.777 296.161 949.65 300.93 L 952.14 317.29 Z"
        fill="#ff748e"/>
    <path
        id="path_32"
        d="M 964.07 386.19 L 954.98 409.49 L 916.61 416.03 C 916.61 416.03 871.71 406.37 892.45 386.19 C 894.863 383.873 897.096 381.376 899.13 378.72 C 901.158 376.106 902.786 373.204 903.96 370.11 C 907.28 360.85 902.12 356.35 902.12 356.35 C 902.12 356.35 939.91 339.01 940.48 358.62 C 940.605 363.032 941.925 367.329 944.3 371.05 C 945.618 373.107 947.172 375.003 948.93 376.7 C 953.308 380.822 958.452 384.047 964.07 386.19 Z"
        fill="#ce828d"/>
    <path
        id="path_33"
        d="M 1088.08 361.18 C 1087.08 361.18 1083.18 364.18 1079.91 366.86 C 1077.25 369.05 1075 371.03 1075 371.03 L 1068.75 350.38 C 1070.218 349.628 1071.629 348.769 1072.97 347.81 C 1074.46 346.71 1075.76 345.41 1075.76 344.29 C 1075.76 341.66 1081.64 319.49 1086 328.02 C 1090.36 336.55 1089.97 361.18 1088.08 361.18 Z"
        fill="#ce828d"/>
    <path
        id="path_34"
        d="M 636.76 318.55 L 595.47 342.8 C 595.47 342.8 545.81 329.92 559.47 318.92 C 565.55 314.03 568.1 303.58 569.04 293.48 C 577.32 307.61 590.9 308.48 597.11 307.99 C 598.98 307.86 600.86 307.87 602.73 307.82 C 611.33 307.58 619.23 294.87 620.73 292.25 C 625.96 305.42 636.76 318.55 636.76 318.55 Z"
        fill="#000000"
        fill-opacity="0.1"
        stroke-opacity="0.1"/>
    <path
        id="path_35"
        d="M 681.12 496.94 C 681.12 497.11 681.12 497.27 681.12 497.4 C 680.74 500.81 664.82 506.5 664.82 506.5 C 664.82 506.5 591.69 515.59 585.25 509.5 C 579.25 503.9 556.51 497.98 553.09 497.1 L 557.96 484.1 C 557.96 484.1 670.88 486.37 675.43 487.88 C 677.61 488.66 679.62 492.82 681.12 496.94 Z"
        fill="#000000"
        fill-opacity="0.1"
        stroke-opacity="0.1"/>
    <path
        id="path_36"
        d="M 679.96 455.73 C 679.96 455.73 689.81 472.39 682.96 476.19 C 676.11 479.99 681.45 491.72 681.07 495.13 C 680.69 498.54 664.77 504.22 664.77 504.22 C 664.77 504.22 591.64 513.32 585.2 507.22 C 578.76 501.12 552.6 494.71 552.6 494.71 C 549.118 485.794 544.675 477.284 539.35 469.33 C 531.01 457.2 542 434.84 542 434.84 C 542 434.84 539.35 420.45 533.67 416.27 C 527.99 412.09 520.43 372.74 518.56 360.99 C 516.69 349.24 492.41 365.16 492.41 365.16 C 492.41 365.16 461.72 367.06 455.29 365.16 C 455.161 365.124 455.04 365.066 454.93 364.99 C 450.15 361.76 480.29 326.88 480.29 326.88 C 480.29 326.88 503.03 322.72 502.64 315.88 C 502.38 311.1 513.43 304.1 520.09 300.33 C 522.96 298.7 525.01 297.68 525.01 297.68 L 534.1 297.68 C 537.51 297.68 536 292.38 536 292.38 C 536 292.38 542.82 293.14 546.61 289.73 C 550.4 286.32 568.97 294.44 568.97 294.44 C 577.24 308.72 590.91 309.56 597.14 309.1 C 599.01 308.98 600.89 308.99 602.76 308.93 C 612.35 308.67 621.06 292.93 621.06 292.93 C 621.06 292.93 648.16 294.68 667.06 306.81 C 685.96 318.94 705.33 354.17 705.33 354.17 C 705.33 354.17 676.91 389.42 672.33 388.67 C 667.75 387.92 677.62 405.72 677.62 405.72 Z"
        fill="#dce6f2"/>
    <path
        id="path_37"
        d="M 520.06 300.35 C 519 303.92 517.79 308.06 517.39 309.83 C 516.64 313.24 508.69 316.66 508.69 316.66 C 508.69 316.66 501.1 326.88 501.86 328.78 C 502.62 330.68 495.42 337.87 492.38 344.69 C 489.34 351.51 457.56 365.16 457.56 365.16 C 456.68 365.209 455.797 365.152 454.93 364.99 C 450.15 361.76 480.29 326.88 480.29 326.88 C 480.29 326.88 503.03 322.72 502.64 315.88 C 502.35 311.12 513.4 304.12 520.06 300.35 Z"
        fill="#000000"
        fill-opacity="0.1"
        stroke-opacity="0.1"/>
    <path
        id="path_38"
        d="M 526.33 284.36 C 524.694 285.039 523.104 285.824 521.57 286.71 L 508.21 272.79 C 508.21 272.79 509.91 270.99 512.21 268.46 C 512.37 273.55 522.29 281.39 526.33 284.36 Z"
        fill="#000000"
        fill-opacity="0.1"
        stroke-opacity="0.1"/>
    <path
        id="path_39"
        d="M 511.33 268.15 L 500.33 274.97 C 500.33 274.97 488.96 277.22 484.79 286.7 C 480.62 296.18 468.56 298.46 468.56 298.46 L 460.99 310.97 C 460.99 310.97 442.04 318.97 440.9 342.8 C 439.76 366.63 455.3 365.16 455.3 365.16 C 455.3 365.16 487.13 351.52 490.16 344.69 C 493.19 337.86 500.4 330.69 499.64 328.78 C 498.88 326.87 506.46 316.66 506.46 316.66 C 506.46 316.66 514.46 313.24 515.17 309.83 C 515.88 306.42 519.72 294.21 519.72 294.21 L 526.92 286.7 C 526.92 286.7 508.68 274.21 511.33 268.15 Z"
        fill="#dce6f2"/>
    <path
        id="path_40"
        d="M 739.4 494.2 C 733.68 493.72 717.16 492.62 714.4 495.64 C 714.19 494.64 714.04 493.99 714.04 493.99 L 717.93 484.15 C 717.93 484.15 736.93 484.52 736.93 487.08 C 736.99 488.13 738.1 491.08 739.4 494.2 Z"
        fill="#000000"
        fill-opacity="0.1"
        stroke-opacity="0.1"/>
    <path
        id="path_41"
        d="M 691.33 342.8 L 705.33 354.17 L 711.77 375.01 C 711.77 375.01 720.11 392.44 725.04 401.54 C 729.97 410.64 731.86 425.03 731.86 425.03 C 731.86 425.03 732.99 431.85 735.27 434.12 C 737.55 436.39 735.27 443.6 735.27 443.6 C 735.27 443.6 737.92 451.93 740.19 454.97 C 742.46 458.01 740.19 472.02 740.19 472.02 L 741.19 477.7 C 741.19 477.7 745.11 483.77 742.84 484.14 C 740.57 484.51 741.32 492.14 741.32 492.14 C 741.32 492.14 715.17 489.49 714.04 494.04 C 714.04 494.04 709.87 482.67 710.63 478.88 C 711.39 475.09 705.32 464.88 705.32 464.88 C 705.32 464.88 702.67 460.71 703.81 456.16 C 704.95 451.61 698.88 438.73 698.88 438.73 C 698.88 438.73 697.74 427.36 695.47 428.12 C 693.2 428.88 691.68 423.2 691.3 420.92 C 690.92 418.64 682.96 403.49 682.96 403.49 L 667.05 384.16 Z"
        fill="#dce6f2"/>
    <path
        id="path_42"
        d="M 944.3 371.05 C 938.477 375.512 931.299 377.853 923.964 377.682 C 916.63 377.512 909.569 374.839 903.96 370.11 C 907.28 360.85 902.12 356.35 902.12 356.35 C 902.12 356.35 939.91 339.01 940.48 358.62 C 940.605 363.032 941.925 367.329 944.3 371.05 Z"
        fill="#000000"
        fill-opacity="0.1"
        stroke-opacity="0.1"/>
    <path
        id="path_43"
        d="M 924.71 344.29 M 892.45 344.29 C 892.45 335.737 895.851 327.526 901.899 321.479 C 907.946 315.431 916.157 312.03 924.71 312.03 C 933.263 312.03 941.474 315.431 947.521 321.479 C 953.569 327.526 956.97 335.737 956.97 344.29 C 956.97 352.843 953.569 361.054 947.521 367.101 C 941.474 373.149 933.263 376.55 924.71 376.55 C 916.157 376.55 907.946 373.149 901.899 367.101 C 895.851 361.054 892.45 352.843 892.45 344.29"
        fill="#ce828d"/>
    <path
        id="path_44"
        d="M 964.07 386.19 L 954.98 409.49 L 916.61 416.03 C 916.61 416.03 871.71 406.37 892.45 386.19 C 894.863 383.873 897.096 381.376 899.13 378.72 C 908.95 403.29 925.56 400.97 925.56 400.97 C 948.56 396.62 949.29 381.25 948.97 376.7 C 953.336 380.818 958.466 384.042 964.07 386.19 Z"
        fill="#000000"
        fill-opacity="0.1"
        stroke-opacity="0.1"/>
    <path
        id="path_45"
        d="M 1079.91 366.86 C 1077.25 369.05 1075 371.03 1075 371.03 L 1068.75 350.38 C 1070.218 349.628 1071.629 348.769 1072.97 347.81 C 1075.67 351.29 1078.27 360.22 1079.91 366.86 Z"
        fill="#000000"
        fill-opacity="0.1"
        stroke-opacity="0.1"/>
    <path
        id="path_46"
        d="M 771.1 505.75 C 771.1 505.75 769.34 507.86 766.57 510.95 C 763.33 507.62 758.17 502.01 755.66 497.76 C 759.66 495.66 762.57 493.99 762.57 493.99 Z"
        fill="#000000"
        fill-opacity="0.1"
        stroke-opacity="0.1"/>
    <path
        id="path_47"
        d="M 1080.56 374.82 L 1066.91 379.11 C 1066.91 379.11 1047.02 389.32 1044.18 394.11 C 1041.34 398.9 994.73 414 994.73 414 C 996.15 419.68 981.65 441.85 981.65 441.85 C 981.65 441.85 979.95 461.18 974.26 470.56 C 969.26 478.77 973.02 499.56 974.04 504.67 C 974.17 505.39 974.26 505.8 974.26 505.8 C 974.26 505.8 859.44 513.19 856.6 508.07 C 856.458 507.803 856.357 507.517 856.3 507.22 C 854.73 500.89 864.14 480.93 867.12 477.95 C 870.24 474.82 865.81 453.51 865.81 453.51 C 865.81 453.51 837.56 471.98 832.73 480.51 C 827.9 489.04 778.45 508.65 778.45 508.65 L 770.45 512.65 C 770.45 512.65 753.4 496.17 755.39 491.9 C 757.38 487.63 771.95 482.29 771.95 482.29 C 771.95 482.29 802.64 458.99 804.95 457.56 C 806.724 456.217 808.259 454.584 809.49 452.73 L 812.34 450.73 C 812.34 450.73 814.34 448.73 819.73 446.47 C 825.12 444.21 837.92 428 837.92 428 C 837.92 428 851.27 413.79 852.98 407 C 854.325 402.28 856.346 397.78 858.98 393.64 C 865.225 392.627 871.092 389.977 875.98 385.96 C 884.45 379.19 898.65 379.17 898.84 379.17 C 908.62 404.48 925.53 402.17 925.53 402.17 C 952.63 397.06 948.8 376.62 948.8 376.62 C 948.8 376.62 968.06 365.51 972.32 365.8 C 976.58 366.09 996.77 366.93 1001.6 369.49 C 1006.43 372.05 1019.79 367.22 1019.79 367.22 C 1019.79 367.22 1026.89 361.53 1035.13 360.11 C 1043.37 358.69 1057.3 353.29 1057.3 353.29 C 1057.3 353.29 1064.97 345.05 1070.09 346.47 C 1075.21 347.89 1080.56 374.82 1080.56 374.82 Z"
        fill="#ff748e"/>
    <path
        id="path_48"
        d="M 974.3 505.84 C 974.3 505.84 859.48 513.23 856.64 508.11 C 856.498 507.843 856.397 507.557 856.34 507.26 C 856.43 507.157 856.531 507.063 856.64 506.98 L 875.12 508.77 C 875.12 508.77 883.49 495.04 886.97 487.08 C 886.97 487.08 899.27 465.48 899.27 458.38 C 899.27 458.38 954.12 457.24 962.37 453.26 C 962.37 453.26 963.9 502.26 968.37 505.07 L 974.06 504.71 C 974.21 505.43 974.3 505.84 974.3 505.84 Z"
        fill="#000000"
        fill-opacity="0.1"
        stroke-opacity="0.1"/>
    <path
        id="path_49"
        d="M 889.13 677.02 C 887.84 679.12 887.28 683.81 887.04 687.76 C 880.71 687.43 871.14 684.32 871.14 684.32 C 870.735 681.538 869.891 678.838 868.64 676.32 C 870.71 673.7 872.27 672.12 872.27 672.12 C 872.27 672.12 891.56 673.04 889.13 677.02 Z"
        fill="#000000"
        fill-opacity="0.1"
        stroke-opacity="0.1"/>
    <path
        id="path_50"
        d="M 942.9 754.61 C 935.9 754.61 923.76 754.21 916.63 751.61 C 917.39 748.1 918 745.61 918 745.61 L 942.19 748.29 C 942.19 748.29 942.56 750.91 942.9 754.61 Z"
        fill="#000000"
        fill-opacity="0.1"
        stroke-opacity="0.1"/>
    <path
        id="path_129"
        d="M 980.56 551.88 C 978.088 566.654 974.749 581.269 970.56 595.65 C 970.56 595.65 965.16 616.38 965.44 622.21 C 965.72 628.04 961.44 663.57 961.44 663.57 C 961.44 663.57 956.61 681.76 957.75 690 C 958.89 698.24 947.75 741.16 947.75 741.16 L 948.32 752.24 C 948.32 752.24 914.5 753.67 911.09 745.42 L 912.51 735.76 L 915.35 709.05 C 915.35 709.05 919.05 679.2 917.35 672.05 C 915.65 664.9 912.92 636.29 912.92 636.29 L 912.63 666.98 C 912.63 666.98 907.52 676.65 901.83 678.92 C 896.14 681.19 895.29 684.92 889.33 685.46 C 883.37 686 871.14 682.05 871.14 682.05 C 870.677 678.847 869.615 675.76 868.01 672.95 C 865.45 668.69 868.01 654.19 868.01 654.19 C 868.01 654.19 870.28 644.53 866.87 642.26 C 863.46 639.99 860.05 624.64 861.47 620.09 C 861.78 619.09 861.55 617.33 861.02 615.09 C 859.69 609.29 856.47 600.18 855.43 591.88 C 854.954 588.697 854.998 585.459 855.56 582.29 C 858.11 569.78 856.69 551.29 856.69 551.29 C 856.69 551.29 852.15 511.22 856.69 508.09 L 875.17 509.89 C 875.17 509.89 883.54 496.16 887.02 488.2 C 887.02 488.2 899.32 466.6 899.32 459.49 C 899.32 459.49 954.17 458.36 962.42 454.38 C 962.42 454.38 963.95 503.38 968.42 506.18 L 974.33 505.82 C 974.33 505.82 984.25 528.86 980.56 551.88 Z"
        fill="#575a89"/>
    <path
        id="path_130"
        d="M 953.67 658.29 C 953.597 659.347 953.283 660.374 952.75 661.29 C 951.06 665 947.39 670.66 945.31 671.86 C 941.9 673.86 926.56 666.46 926.31 663.76 C 926.274 661.916 926.51 660.076 927.01 658.3 C 927.37 656.8 927.73 655.66 927.73 655.66 C 927.73 655.66 949.05 660.5 952.73 658.22 L 952.79 658.22 C 953.35 657.8 953.62 657.88 953.67 658.29 Z"
        fill="#ce828d"/>
    <path
        id="path_131"
        d="M 912.98 434.19 C 912.89 437.97 912.98 446.68 912.98 452.83 C 912.98 456.67 913.05 459.51 913.05 459.51 L 898.14 459.51 C 898.14 459.51 898 456.91 897.85 452.83 C 897.68 448.12 897.5 441.46 897.53 434.56 C 897.53 432.81 897.53 431.05 897.59 429.29 C 897.69 424.19 897.94 419.21 898.42 415.04 C 900.26 398.83 884.68 381.04 884.68 381.04 C 888.27 376.78 897.68 379.04 897.68 379.04 C 897.68 379.04 902.96 394.21 907.07 405.44 C 909.743 412.916 911.659 420.641 912.79 428.5 C 912.997 429.803 913.084 431.121 913.05 432.44 C 913.03 432.81 913.01 433.39 912.98 434.19 Z"
        fill="#000000"
        fill-opacity="0.1"
        stroke-opacity="0.1"/>
    <path
        id="path_132"
        d="M 914.12 434.19 C 914.03 437.97 914.12 446.68 914.12 452.83 C 914.12 456.67 914.19 459.51 914.19 459.51 L 899.27 459.51 C 899.27 459.51 899.14 456.91 898.99 452.83 C 898.82 448.12 898.64 441.46 898.67 434.56 C 898.67 432.81 898.67 431.05 898.73 429.29 C 898.83 424.19 899.08 419.21 899.56 415.04 C 901.4 398.83 885.81 381.04 885.81 381.04 C 889.41 376.78 898.81 379.04 898.81 379.04 C 898.81 379.04 904.08 394.21 908.2 405.44 C 910.868 412.917 912.785 420.642 913.92 428.5 C 914.127 429.803 914.214 431.121 914.18 432.44 C 914.17 432.81 914.14 433.39 914.12 434.19 Z"
        fill="#575a89"/>
    <path
        id="path_133"
        d="M 975.86 424.14 C 975.59 425.51 975.34 427.76 975.08 430.39 C 974.54 435.7 973.97 442.57 973.08 447.01 C 972.58 449.43 971.97 451.11 971.22 451.42 L 967.56 452.83 L 963.46 454.4 L 958.08 455.25 L 959.08 452.83 C 959.72 451.32 960.59 449.23 961.5 447.01 C 963.58 441.95 965.84 436.16 965.99 434.64 C 966.06 433.97 966.29 432.43 966.56 430.39 C 966.8 428.61 967.06 426.45 967.26 424.14 C 967.83 417.85 967.97 410.46 965.99 406.65 C 962.44 399.83 953.99 374.23 953.99 374.23 C 954.659 372.386 955.997 370.859 957.737 369.953 C 959.478 369.048 961.496 368.829 963.39 369.34 C 963.39 369.34 971.1 394.71 971.23 398.13 C 971.36 401.55 977 418.45 975.86 424.14 Z"
        fill="#000000"
        fill-opacity="0.1"
        stroke-opacity="0.1"/>
    <path
        id="path_134"
        d="M 974.72 424.14 C 974.45 425.51 974.2 427.76 973.94 430.39 C 973.41 435.7 972.84 442.57 971.94 447.01 C 971.44 449.43 970.83 451.11 970.08 451.42 L 966.5 452.83 C 965.039 453.441 963.673 454.256 962.44 455.25 L 956.51 456.17 C 956.51 456.17 957.43 454.31 958.05 452.83 C 958.67 451.35 959.56 449.23 960.47 447.01 C 962.55 441.95 964.82 436.16 964.96 434.64 C 965.03 433.97 965.26 432.43 965.53 430.39 C 965.77 428.61 966.03 426.45 966.24 424.14 C 966.81 417.85 966.94 410.46 964.96 406.65 C 961.42 399.83 952.96 374.23 952.96 374.23 C 953.629 372.386 954.967 370.859 956.707 369.953 C 958.448 369.048 960.466 368.829 962.36 369.34 C 962.36 369.34 970.07 394.71 970.21 398.13 C 970.35 401.55 975.86 418.45 974.72 424.14 Z"
        fill="#575a89"/>
    <path
        id="path_135"
        d="M 914.2 432.51 C 914.2 432.81 914.14 433.39 914.12 434.19 L 898.67 434.56 C 898.67 432.81 898.67 431.05 898.73 429.29 L 913.94 428.57 C 914.147 429.873 914.234 431.191 914.2 432.51 Z"
        fill="#ffffff"/>
    <path
        id="path_136"
        d="M 914.2 459.51 L 899.27 459.51 C 899.27 459.51 899.14 456.91 898.99 452.83 L 914.13 452.83 C 914.17 456.67 914.2 459.51 914.2 459.51 Z"
        fill="#ffffff"/>
    <path
        id="path_137"
        d="M 974.72 424.14 C 974.45 425.51 974.2 427.76 973.94 430.39 L 965.49 430.39 C 965.73 428.61 965.99 426.45 966.2 424.14 Z"
        fill="#ffffff"/>
    <path
        id="path_138"
        d="M 971.9 447.01 C 971.4 449.43 970.79 451.11 970.04 451.42 L 966.46 452.83 L 958.01 452.83 C 958.65 451.32 959.52 449.23 960.43 447.01 Z"
        fill="#ffffff"/>
    <path
        id="path_139"
        d="M 644.32 342.8 C 644.32 342.8 647.81 373.52 658.77 376.55 C 669.73 379.58 664.25 365.18 664.25 365.18 L 654.97 353.47 Z"
        fill="#000000"
        fill-opacity="0.05"
        stroke-opacity="0.05"/>
    <path
        id="path_140"
        d="M 571.56 398.02 C 571.56 398.02 613.21 439.63 631.25 431.56 C 649.29 423.49 591.01 427.86 571.56 398.02 Z"
        fill="#000000"
        fill-opacity="0.05"
        stroke-opacity="0.05"/>
    <path
        id="path_141"
        d="M 618.91 454.4 C 618.91 454.4 646.69 456.07 654.97 447.01 C 663.25 437.95 618.91 454.4 618.91 454.4 Z"
        fill="#000000"
        fill-opacity="0.05"
        stroke-opacity="0.05"/>
    <path
        id="path_142"
        d="M 598.98 489.77 C 597.76 488.9 649.31 487.28 663.26 476.77 C 677.21 466.26 632.36 513.68 598.98 489.77 Z"
        fill="#000000"
        fill-opacity="0.05"
        stroke-opacity="0.05"/>
    <path
        id="path_143"
        d="M 511.28 326.08 C 511.28 326.08 522.28 337.24 523.28 346.24 C 524.28 355.24 511.28 326.08 511.28 326.08 Z"
        fill="#000000"
        fill-opacity="0.05"
        stroke-opacity="0.05"/>
    <path
        id="path_144"
        d="M 539.19 335.77 C 539.19 335.77 538.19 365.4 550.38 371.03 C 562.57 376.66 535.2 358.16 539.19 335.77 Z"
        fill="#000000"
        fill-opacity="0.05"
        stroke-opacity="0.05"/>
    <path
        id="path_145"
        d="M 698.29 415.29 C 698.29 415.29 720.06 406.29 723.55 412.14 C 727.04 417.99 720.55 418.98 720.55 418.98 Z"
        fill="#000000"
        fill-opacity="0.05"
        stroke-opacity="0.05"/>
    <path
        id="path_146"
        d="M 726.56 444.29 C 717.56 449.92 710.81 449.43 711.46 454.41 C 712.11 459.39 712.91 457.46 718.99 456.18 C 725.07 454.9 726.56 444.29 726.56 444.29 Z"
        fill="#000000"
        fill-opacity="0.05"
        stroke-opacity="0.05"/>
    <path
        id="path_147"
        d="M 733.19 467.47 C 733.19 467.47 722.36 476.81 718.97 477.31 C 715.58 477.81 733.19 467.47 733.19 467.47 Z"
        fill="#000000"
        fill-opacity="0.05"
        stroke-opacity="0.05"/>
    <path
        id="path_148"
        d="M 886.98 543.58 C 885.56 542.17 933.82 543.58 945.28 540.58 C 945.28 540.58 951.09 549.05 939.96 551.05 C 928.83 553.05 879.51 556.05 879.51 556.05 C 879.51 556.05 894.44 551.06 886.98 543.58 Z"
        fill="#000000"
        fill-opacity="0.1"
        stroke-opacity="0.1"/>
    <path
        id="path_149"
        d="M 874.07 603.37 C 872.31 606.37 866.44 611.07 861.07 615.04 C 859.74 609.24 856.52 600.13 855.48 591.83 L 865.9 586.93 C 865.56 586.93 877.56 597.39 874.07 603.37 Z"
        fill="#000000"
        fill-opacity="0.1"
        stroke-opacity="0.1"/>
    <path
        id="path_150"
        d="M 822.82 450.96 C 822.82 450.96 855.12 445.62 865.07 434.56 C 865.07 434.56 861.31 453.51 822.82 450.96 Z"
        fill="#000000"
        fill-opacity="0.1"
        stroke-opacity="0.1"/>
    <path
        id="path_151"
        d="M 814.73 469.84 C 814.73 469.84 819.73 471.84 828.19 469.84 C 836.65 467.84 814.73 469.84 814.73 469.84 Z"
        fill="#000000"
        fill-opacity="0.1"
        stroke-opacity="0.1"/>
    <path
        id="path_152"
        d="M 885.81 467.47 C 885.81 467.47 867.68 482.61 872.1 485.94 C 876.52 489.27 885.81 467.47 885.81 467.47 Z"
        fill="#000000"
        fill-opacity="0.1"
        stroke-opacity="0.1"/>
    <path
        id="path_153"
        d="M 885.81 439.44 C 885.81 439.44 870.12 439.13 874.07 447.01 C 878.02 454.89 885.81 439.44 885.81 439.44 Z"
        fill="#000000"
        fill-opacity="0.1"
        stroke-opacity="0.1"/>
    <path
        id="path_154"
        d="M 915.35 336.21 C 916.332 336.105 917.28 335.791 918.13 335.29 C 922.095 333.477 926.551 333.024 930.8 334 C 936.89 335.42 941.96 339.66 947.9 341.63 C 951.32 342.77 955.9 342.68 957.59 339.49 C 959.08 336.66 957.32 333.27 955.59 330.57 C 952.59 325.78 949.3 320.79 944.31 318.07 C 941.438 316.67 938.369 315.716 935.21 315.24 C 928.87 314.01 922.37 313.07 915.96 313.91 C 910.96 314.57 896.49 317.91 898.77 325.6 C 899.91 329.45 903.93 328.91 906.94 330.22 C 909.8 331.48 912.16 336.29 915.35 336.21 Z"
        fill="#000000"
        fill-opacity="0.1"
        stroke-opacity="0.1"/>
    <path
        id="path_155"
        d="M 915.35 333.94 C 916.33 333.826 917.276 333.513 918.13 333.02 C 922.094 331.202 926.551 330.749 930.8 331.73 C 936.89 333.15 941.96 337.38 947.9 339.36 C 951.32 340.5 955.9 340.41 957.59 337.22 C 959.08 334.38 957.32 331 955.59 328.3 C 952.59 323.51 949.3 318.52 944.31 315.8 C 941.44 314.396 938.37 313.441 935.21 312.97 C 928.87 311.74 922.37 310.8 915.96 311.63 C 910.96 312.29 896.49 315.63 898.77 323.33 C 899.91 327.18 903.93 326.63 906.94 327.95 C 909.8 329.2 912.16 333.99 915.35 333.94 Z"
        fill="#663d5c"/>
    <path
        id="path_156"
        d="M 952.93 322.5 L 894.07 316.5 C 894.07 316.5 894.28 315.8 894.64 314.5 C 906.99 311.23 937.52 304.87 952.14 317.25 Z"
        fill="#000000"
        fill-opacity="0.1"
        stroke-opacity="0.1"/>
    <path
        id="path_157"
        d="M 889.27 317.29 C 889.27 317.29 943.15 299.6 956.98 324.36 C 956.98 324.29 928.34 328.5 889.27 317.29 Z"
        fill="#575a89"/>
    <path
        id="path_158"
        d="M 914.73 618.5 C 914.255 618.736 913.706 618.773 913.204 618.605 C 912.701 618.436 912.286 618.074 912.05 617.6 C 911.623 616.619 911.481 615.538 911.64 614.48 L 911.91 609.74 C 912.32 602.52 912.74 595.2 914.98 588.32 C 917.505 581.044 921.602 574.413 926.98 568.9"
        fill="#000000"
        fill-opacity="0.1"
        stroke-opacity="0.1"/>
    <path
        id="path_159"
        d="M 906.56 475.29 C 906.56 475.29 933.56 468.29 939.93 470.73 C 946.3 473.17 944.15 476.96 939.93 477.34 C 935.71 477.72 906.56 475.29 906.56 475.29 Z"
        fill="#000000"
        fill-opacity="0.1"
        stroke-opacity="0.1"/>
    <path
        id="path_160"
        d="M 898.67 494 C 904.67 498.17 952.93 498.17 952.93 498.17 Z"
        fill="#000000"
        fill-opacity="0.1"
        stroke-opacity="0.1"/>
    <path
        id="path_161"
        d="M 676.74 506.5 C 676.74 506.5 678.74 511.43 665.87 516.35 C 653 521.27 676.74 506.5 676.74 506.5 Z"
        fill="#000000"
        fill-opacity="0.1"
        stroke-opacity="0.1"/>
    <path
        id="path_162"
        d="M 667.08 544.02 C 667.08 544.02 650.24 543.64 656.01 551.6 C 661.78 559.56 667.08 544.02 667.08 544.02 Z"
        fill="#000000"
        fill-opacity="0.1"
        stroke-opacity="0.1"/>
    <path
        id="path_163"
        d="M 563.63 510.77 C 563.63 510.77 590.15 525.07 601.14 526.59 C 612.13 528.11 581.06 532.86 563.63 510.77 Z"
        fill="#000000"
        fill-opacity="0.1"
        stroke-opacity="0.1"/>
    <path
        id="path_164"
        d="M 586.36 627.76 C 586.36 627.76 587.68 634.58 598.96 637.99 C 610.24 641.4 618.87 638.75 618.96 637.99 C 619.05 637.23 586.36 627.76 586.36 627.76 Z"
        fill="#000000"
        fill-opacity="0.1"
        stroke-opacity="0.1"/>
    <path
        id="path_165"
        d="M 616.49 777.69 C 616.49 777.69 630.42 784.69 633.54 777.69"
        fill="#000000"
        fill-opacity="0.1"
        stroke-opacity="0.1"/>
    <path
        id="path_166"
        d="M 712.27 639.69 C 712.27 639.69 709.97 647.11 705.73 647.37"
        fill="#000000"
        fill-opacity="0.1"
        stroke-opacity="0.1"/>
    <path
        id="path_167"
        d="M 957.56 334.94 C 955.88 338.14 951.29 338.22 947.87 337.08 C 941.93 335.08 936.87 330.88 930.77 329.45 C 926.521 328.474 922.065 328.927 918.1 330.74 C 917.25 331.243 916.302 331.557 915.32 331.66 C 912.13 331.71 909.77 326.93 906.92 325.66 C 903.92 324.34 899.92 324.88 898.75 321.03 C 898.704 320.882 898.667 320.732 898.64 320.58 C 898.434 321.484 898.472 322.426 898.75 323.31 C 899.89 327.16 903.91 326.61 906.92 327.93 C 909.77 329.18 912.13 333.93 915.32 333.93 C 916.3 333.817 917.246 333.504 918.1 333.01 C 922.064 331.192 926.521 330.739 930.77 331.72 C 936.86 333.14 941.93 337.37 947.87 339.35 C 951.29 340.48 955.87 340.4 957.56 337.21 C 958.11 336.12 958.269 334.873 958.01 333.68 C 957.922 334.12 957.771 334.544 957.56 334.94 Z"
        fill="#000000"
        fill-opacity="0.1"
        stroke-opacity="0.1"/>
    <path
        id="path_168"
        d="M 953.67 658.29 C 953.597 659.347 953.283 660.374 952.75 661.29 L 926.97 658.29 C 927.33 656.79 927.69 655.65 927.69 655.65 C 927.69 655.65 949.01 660.49 952.69 658.21 L 952.75 658.21 Z"
        fill="#000000"
        fill-opacity="0.1"
        stroke-opacity="0.1"/>
    <path
        id="path_169"
        d="M 926.75 653.15 C 926.65 653.44 926.24 657.04 926.24 657.04 L 954.88 660.35 L 954.88 657.35 Z"
        fill="#575a89"/>
    <path
        id="path_170"
        d="M 92.98 680.6 C 92.98 681.716 96.211 682.788 101.957 683.577 C 107.703 684.366 115.504 684.81 123.63 684.81 C 131.756 684.81 139.557 684.366 145.303 683.577 C 151.049 682.788 154.28 681.716 154.28 680.6 C 154.28 679.484 151.049 678.412 145.303 677.623 C 139.557 676.834 131.756 676.39 123.63 676.39 C 115.504 676.39 107.703 676.834 101.957 677.623 C 96.211 678.412 92.98 679.484 92.98 680.6 Z"
        fill="#6c63ff"
        fill-opacity="0.1"
        stroke-opacity="0.1"/>
    <path
        id="path_171"
        d="M 210.39 692.51 C 210.39 693.626 213.621 694.698 219.367 695.487 C 225.113 696.276 232.914 696.72 241.04 696.72 C 249.166 696.72 256.967 696.276 262.713 695.487 C 268.459 694.698 271.69 693.626 271.69 692.51 C 271.69 691.394 268.459 690.322 262.713 689.533 C 256.967 688.744 249.166 688.3 241.04 688.3 C 232.914 688.3 225.113 688.744 219.367 689.533 C 213.621 690.322 210.39 691.394 210.39 692.51 Z"
        fill="#6c63ff"
        fill-opacity="0.1"
        stroke-opacity="0.1"/>
    <path
        id="path_172"
        d="M 348.68 676.39 C 348.68 677.506 351.911 678.578 357.657 679.367 C 363.403 680.156 371.204 680.6 379.33 680.6 C 387.456 680.6 395.257 680.156 401.003 679.367 C 406.749 678.578 409.98 677.506 409.98 676.39 C 409.98 675.274 406.749 674.202 401.003 673.413 C 395.257 672.624 387.456 672.18 379.33 672.18 C 371.204 672.18 363.403 672.624 357.657 673.413 C 351.911 674.202 348.68 675.274 348.68 676.39 Z"
        fill="#6c63ff"
        fill-opacity="0.1"
        stroke-opacity="0.1"/>
    <path
        id="path_173"
        d="M 172.26 726.4 C 172.26 727.193 174.557 727.954 178.642 728.514 C 182.727 729.075 188.273 729.39 194.05 729.39 C 199.827 729.39 205.373 729.075 209.458 728.514 C 213.543 727.954 215.84 727.193 215.84 726.4 C 215.84 725.607 213.543 724.846 209.458 724.286 C 205.373 723.725 199.827 723.41 194.05 723.41 C 188.273 723.41 182.727 723.725 178.642 724.286 C 174.557 724.846 172.26 725.607 172.26 726.4 Z"
        fill="#6c63ff"
        fill-opacity="0.1"
        stroke-opacity="0.1"/>
    <path
        id="path_174"
        d="M 294.11 723.41 C 294.11 724.041 295.567 724.657 298.272 725.167 C 300.976 725.678 304.791 726.059 309.167 726.254 C 313.542 726.449 318.258 726.449 322.633 726.254 C 327.009 726.059 330.824 725.678 333.528 725.167 C 336.233 724.657 337.69 724.041 337.69 723.41 C 337.69 722.779 336.233 722.163 333.528 721.653 C 330.824 721.142 327.009 720.761 322.633 720.566 C 318.258 720.371 313.542 720.371 309.167 720.566 C 304.791 720.761 300.976 721.142 298.272 721.653 C 295.567 722.163 294.11 722.779 294.11 723.41 Z"
        fill="#6c63ff"
        fill-opacity="0.1"
        stroke-opacity="0.1"/>
    <path
        id="path_175"
        d="M 241.69 691.56 C 241.69 691.56 198.69 550.64 248.42 494.2 C 285.61 451.98 327.82 457.03 346.73 462.25 C 351.623 463.552 356.174 465.902 360.068 469.138 C 363.962 472.374 367.105 476.418 369.28 480.99 C 375.89 495.25 374.69 518.4 328.04 545.41 C 249.92 590.64 245.04 652.68 245.04 652.68 Z"
        fill="#6c63ff"/>
    <path
        id="path_176"
        d="M 340 482.29 C 340 482.29 213.29 521.91 241.69 691.61"
        fill="#00000000"
        stroke="#565987"
        stroke-width="1"/>
    <path
        id="path_177"
        d="M 265.99 496.44 C 265.99 496.44 283.44 508.2 277.89 525.87"
        fill="#00000000"
        stroke="#565987"
        stroke-width="1"/>
    <path
        id="path_178"
        d="M 327.29 506.91 C 327.29 506.91 316.62 496.06 303.64 502.04"
        fill="#00000000"
        stroke="#565987"
        stroke-width="1"/>
    <path
        id="path_179"
        d="M 277.2 561.48 C 277.2 561.48 258.47 551.97 253.63 563.88"
        fill="#00000000"
        stroke="#565987"
        stroke-width="1"/>
    <path
        id="path_180"
        d="M 230.85 581.29 C 230.85 581.29 244.92 580.17 245.17 586.9"
        fill="#00000000"
        stroke="#565987"
        stroke-width="1"/>
    <path
        id="path_181"
        d="M 239.96 692.68 C 239.96 692.68 290.3 590.29 304.13 592.5 C 310.7 593.57 313.73 600.03 315.13 606.5 C 316.831 614.892 315.873 623.608 312.39 631.43 C 305.21 647.84 286.02 678.97 239.96 692.68 Z"
        fill="#6c63ff"/>
    <path
        id="path_182"
        d="M 303.76 611.94 C 303.76 611.94 250.91 688.57 240.7 691.94"
        fill="#00000000"
        stroke="#565987"
        stroke-width="1"/>
    <path
        id="path_183"
        d="M 308.62 623.91 L 296.28 623.91"
        fill="#00000000"
        stroke="#565987"
        stroke-width="1"/>
    <path
        id="path_184"
        d="M 293.84 651.94 L 274.51 652.77"
        fill="#00000000"
        stroke="#565987"
        stroke-width="1"/>
    <path
        id="path_185"
        d="M 282.08 629.51 L 284.18 639.58"
        fill="#00000000"
        stroke="#565987"
        stroke-width="1"/>
    <path
        id="path_186"
        d="M 261.52 660.16 L 261.89 669.32"
        fill="#00000000"
        stroke="#565987"
        stroke-width="1"/>
    <path
        id="path_276"
        d="M 241.45 692.68 C 241.45 692.68 191.11 590.29 177.28 592.5 C 170.71 593.57 167.68 600.03 166.28 606.5 C 164.584 614.892 165.542 623.607 169.02 631.43 C 176.2 647.84 195.39 678.97 241.45 692.68 Z"
        fill="#6c63ff"/>
    <path
        id="path_277"
        d="M 177.65 611.94 C 177.65 611.94 230.49 688.57 240.65 691.94"
        fill="#00000000"
        stroke="#565987"
        stroke-width="1"/>
    <path
        id="path_278"
        d="M 172.79 623.91 L 185.13 623.91"
        fill="#00000000"
        stroke="#565987"
        stroke-width="1"/>
    <path
        id="path_279"
        d="M 187.57 651.94 L 206.9 652.77"
        fill="#00000000"
        stroke="#565987"
        stroke-width="1"/>
    <path
        id="path_280"
        d="M 199.33 629.51 L 197.23 639.58"
        fill="#00000000"
        stroke="#565987"
        stroke-width="1"/>
    <path
        id="path_281"
        d="M 219.89 660.16 L 219.52 669.32"
        fill="#00000000"
        stroke="#565987"
        stroke-width="1"/>
    <path
        id="path_282"
        d="M 327.89 716.6 C 329.26 715.487 330.261 713.984 330.76 712.29 C 330.979 711.439 330.9 710.537 330.536 709.737 C 330.173 708.937 329.546 708.285 328.76 707.89 C 326.92 707.19 324.95 708.46 323.46 709.75 C 321.97 711.04 320.27 712.5 318.32 712.23 C 319.323 711.322 320.073 710.169 320.497 708.884 C 320.922 707.6 321.005 706.227 320.74 704.9 C 320.655 704.352 320.423 703.837 320.07 703.41 C 319.07 702.32 317.19 702.79 315.97 703.65 C 312.08 706.38 310.97 711.65 310.97 716.41 C 310.58 714.7 310.91 712.91 310.9 711.15 C 310.89 709.39 310.41 707.45 308.9 706.5 C 307.979 706.006 306.945 705.761 305.9 705.79 C 304.15 705.73 302.21 705.9 301.01 707.18 C 299.53 708.77 299.91 711.43 301.2 713.18 C 302.49 714.93 304.46 716.03 306.26 717.18 C 307.71 718.044 308.947 719.223 309.88 720.63 C 309.984 720.83 310.074 721.037 310.15 721.25 L 321.1 721.25 C 323.564 720.015 325.848 718.451 327.89 716.6 Z"
        fill="#6c63ff"/>
    <path
        id="path_283"
        d="M 136.06 675.35 C 137.426 674.23 138.422 672.724 138.92 671.03 C 139.142 670.177 139.064 669.274 138.7 668.471 C 138.336 667.669 137.708 667.015 136.92 666.62 C 135.08 665.92 133.12 667.19 131.63 668.48 C 130.14 669.77 128.43 671.24 126.48 670.96 C 127.484 670.053 128.235 668.9 128.659 667.615 C 129.083 666.33 129.166 664.957 128.9 663.63 C 128.815 663.082 128.583 662.567 128.23 662.14 C 127.23 661.05 125.36 661.52 124.13 662.38 C 120.25 665.11 119.13 670.38 119.13 675.14 C 118.74 673.43 119.07 671.64 119.06 669.89 C 119.05 668.14 118.57 666.18 117.06 665.23 C 116.139 664.736 115.105 664.491 114.06 664.52 C 112.31 664.46 110.37 664.64 109.17 665.91 C 107.69 667.5 108.08 670.17 109.37 671.91 C 110.66 673.65 112.62 674.76 114.37 675.97 C 115.819 676.83 117.057 678.006 117.99 679.41 C 118.098 679.608 118.188 679.816 118.26 680.03 L 129.21 680.03 C 131.696 678.79 134.001 677.215 136.06 675.35 Z"
        fill="#6c63ff"/>
    <path
        id="path_284"
        d="M 199.99 716.6 C 201.36 715.487 202.361 713.984 202.86 712.29 C 203.079 711.439 203 710.537 202.636 709.737 C 202.273 708.937 201.646 708.285 200.86 707.89 C 199.02 707.19 197.05 708.46 195.56 709.75 C 194.07 711.04 192.36 712.5 190.41 712.23 C 191.412 711.321 192.163 710.169 192.589 708.884 C 193.014 707.6 193.101 706.228 192.84 704.9 C 192.751 704.351 192.517 703.836 192.16 703.41 C 191.16 702.32 189.29 702.79 188.07 703.65 C 184.18 706.38 183.07 711.65 183.07 716.41 C 182.67 714.7 183 712.91 183 711.15 C 183 709.39 182.5 707.45 181 706.5 C 180.079 706.006 179.045 705.761 178 705.79 C 176.25 705.73 174.3 705.9 173.11 707.18 C 171.63 708.77 172.01 711.43 173.3 713.18 C 174.59 714.93 176.55 716.03 178.36 717.18 C 179.81 718.044 181.047 719.223 181.98 720.63 C 182.085 720.829 182.172 721.036 182.24 721.25 L 193.24 721.25 C 195.69 720.012 197.96 718.448 199.99 716.6 Z"
        fill="#6c63ff"/>
    <path
        id="path_285"
        d="M 381.32 633.22 C 381.32 633.22 385.42 638.59 379.42 646.7 C 373.42 654.81 368.47 661.7 370.47 666.7 C 370.47 666.7 379.53 651.7 386.9 651.44 C 394.27 651.18 389.42 642.29 381.32 633.22 Z"
        fill="#6c63ff"/>
    <path
        id="path_286"
        d="M 381.32 633.22 C 381.676 633.737 381.955 634.303 382.15 634.9 C 389.35 643.35 393.15 651.24 386.27 651.44 C 379.83 651.62 372.1 663.13 370.27 666.04 C 370.327 666.265 370.4 666.486 370.49 666.7 C 370.49 666.7 379.55 651.7 386.92 651.44 C 394.29 651.18 389.42 642.29 381.32 633.22 Z"
        fill="#000000"
        fill-opacity="0.1"
        stroke-opacity="0.1"/>
    <path
        id="path_287"
        d="M 388.95 640.06 C 388.95 641.95 388.74 643.49 388.48 643.49 C 388.22 643.49 388 641.95 388 640.06 C 388 638.17 388.27 639.06 388.53 639.06 C 388.79 639.06 388.95 638.17 388.95 640.06 Z"
        fill="#ffd037"/>
    <path
        id="path_288"
        d="M 391.56 642.29 C 389.9 643.19 388.45 643.74 388.33 643.51 C 388.21 643.28 389.45 642.36 391.11 641.51 C 392.77 640.66 392.11 641.26 392.24 641.51 C 392.37 641.76 393.23 641.42 391.56 642.29 Z"
        fill="#ffd037"/>
    <path
        id="path_289"
        d="M 359.62 633.22 C 359.62 633.22 355.52 638.59 361.52 646.7 C 367.52 654.81 372.52 661.7 370.52 666.7 C 370.52 666.7 361.46 651.7 354.09 651.44 C 346.72 651.18 351.56 642.29 359.62 633.22 Z"
        fill="#6c63ff"/>
    <path
        id="path_290"
        d="M 359.62 633.22 C 359.263 633.738 358.98 634.304 358.78 634.9 C 351.59 643.35 347.78 651.24 354.67 651.44 C 361.11 651.62 368.84 663.13 370.67 666.04 C 370.613 666.265 370.54 666.486 370.45 666.7 C 370.45 666.7 361.39 651.7 354.02 651.44 C 346.65 651.18 351.56 642.29 359.62 633.22 Z"
        fill="#000000"
        fill-opacity="0.1"
        stroke-opacity="0.1"/>
    <path
        id="path_291"
        d="M 351.99 640.06 C 351.99 641.95 352.2 643.49 352.46 643.49 C 352.72 643.49 352.94 641.95 352.94 640.06 C 352.94 638.17 352.67 639.06 352.41 639.06 C 352.15 639.06 351.99 638.17 351.99 640.06 Z"
        fill="#ffd037"/>
    <path
        id="path_292"
        d="M 349.37 642.29 C 351.03 643.19 352.48 643.74 352.6 643.51 C 352.72 643.28 351.48 642.36 349.82 641.51 C 348.16 640.66 348.82 641.26 348.69 641.51 C 348.56 641.76 347.71 641.42 349.37 642.29 Z"
        fill="#ffd037"/>
    <path
        id="path_293"
        d="M 353.3 666 C 353.3 666 364.78 665.65 368.24 663.18 C 371.7 660.71 385.9 657.78 386.76 661.73 C 387.62 665.68 404.02 681.38 391.05 681.49 C 378.08 681.6 360.93 679.49 357.48 677.37 C 354.03 675.25 353.3 666 353.3 666 Z"
        fill="#a8a8a8"/>
    <path
        id="path_294"
        d="M 391.28 680.11 C 378.28 680.22 361.16 678.11 357.71 675.99 C 355.08 674.39 354.03 668.64 353.71 665.99 L 353.33 665.99 C 353.33 665.99 354.05 675.25 357.51 677.36 C 360.97 679.47 378.12 681.58 391.08 681.48 C 394.82 681.48 396.08 680.12 396.08 678.15 C 395.5 679.35 394.07 680.09 391.28 680.11 Z"
        fill="#000000"
        fill-opacity="0.2"
        stroke-opacity="0.2"/>
</svg>
