<svg
    xmlns="http://www.w3.org/2000/svg"
    viewBox="0 0 1084 758"
    id="vector">
    <path
        id="path_51"
        d="M 461.23 29.16 C 417.16 12.4 370.59 -1.6 323.05 0.16 C 253.15 2.74 186.05 42.07 153.19 99.82 C 125.31 148.75 121.87 206.1 109.86 260.4 C 95.08 327.29 66.72 390.88 36.44 453.05 C 20.18 486.45 3.02 520.57 0.35 557.18 C -3.35 608.01 22.62 658.66 63.35 692.47 C 104.08 726.28 158.17 744.12 212.46 748.01 C 241.35 750.08 271.54 748.16 297.2 735.58 C 324.35 722.27 344.14 698.22 371.4 685.1 C 396.66 672.94 426.21 671.24 454.57 672.82 C 491.598 674.882 528.152 682.154 563.15 694.42 C 602.79 708.34 639.65 728.51 679.15 742.63 C 718.65 756.75 762.89 764.63 803.31 752.85 C 841.31 741.78 871.31 714.9 898.36 687.68 C 942.591 643.252 983.131 595.297 1019.58 544.29 C 1043.99 510.08 1066.71 473.99 1077.5 434.12 C 1098.14 357.89 1069.74 271.89 1006.75 219.83 C 954.56 176.7 884.52 157.98 815.96 146.62 C 753.44 136.26 681.15 135.62 623.6 108.62 C 568.72 82.84 518.78 51.06 461.23 29.16 Z"
        fill="#6c63ff"
        fill-opacity="0.1"
        stroke-opacity="0.1"/>
    <path
        id="path_52"
        d="M 632.58 619 L 632.58 655.33 L 642.91 655.33 L 640.91 616.33 L 632.58 619 Z"
        fill="#aaabb0"/>
    <path
        id="path_53"
        d="M 477.41 611.67 L 477.41 648 L 487.75 648 L 485.75 609 L 477.41 611.67 Z"
        fill="#aaabb0"/>
    <path
        id="path_54"
        d="M 651.24 551.67 L 651.25 551.67 C 653.016 551.67 654.711 552.373 655.959 553.624 C 657.208 554.874 657.91 556.572 657.91 558.34 L 657.91 609.67 C 657.91 611.438 657.208 613.136 655.959 614.386 C 654.711 615.637 653.016 616.34 651.25 616.34 L 651.24 616.34 C 649.474 616.34 647.779 615.637 646.531 614.386 C 645.282 613.136 644.58 611.438 644.58 609.67 L 644.58 558.34 C 644.58 556.572 645.282 554.874 646.531 553.624 C 647.779 552.373 649.474 551.67 651.24 551.67 Z"
        fill="#aaabb0"/>
    <path
        id="path_55"
        d="M 480.24 537.33 L 480.24 537.33 C 481.41 537.328 482.56 537.635 483.574 538.22 C 484.588 538.805 485.43 539.648 486.016 540.662 C 486.602 541.677 486.91 542.828 486.91 544 L 486.91 609.66 C 486.91 610.832 486.602 611.983 486.016 612.998 C 485.43 614.012 484.588 614.855 483.574 615.44 C 482.56 616.025 481.41 616.332 480.24 616.33 L 480.24 616.33 C 479.071 616.33 477.922 616.022 476.91 615.436 C 475.898 614.851 475.057 614.009 474.472 612.995 C 473.888 611.981 473.58 610.831 473.58 609.66 L 473.58 544 C 473.58 542.829 473.888 541.679 474.472 540.665 C 475.057 539.651 475.898 538.809 476.91 538.224 C 477.922 537.638 479.071 537.33 480.24 537.33 Z"
        fill="#aaabb0"/>
    <path
        id="path_56"
        d="M 674.92 164.67 C 674.92 164.67 688.25 159 690.25 164.67 C 692.25 170.34 693.25 219.34 693.25 219.34 L 680.58 219.34 Z"
        fill="#aaabb0"/>
    <path
        id="path_57"
        d="M 528.92 164.67 C 528.92 164.67 515.58 159 513.58 164.67 C 511.58 170.34 510.58 219.34 510.58 219.34 L 523.25 219.34 Z"
        fill="#aaabb0"/>
    <path
        id="path_58"
        d="M 530.91 116 L 528.91 156.67 L 537.91 156.67 L 537.91 115 L 530.91 116 Z"
        fill="#aaabb0"/>
    <path
        id="path_59"
        d="M 523.25 219.34 L 525.92 160.67 C 525.92 160.67 524.92 147.67 556.58 151.67 C 588.24 155.67 680.92 163.67 680.92 163.67 L 680.92 219.34 Z"
        fill="#33323d"/>
    <path
        id="path_60"
        d="M 649.92 528.34 L 644.92 618 C 644.92 618 571.58 658.67 482.58 620 L 490.58 525.67 Z"
        fill="#33323d"/>
    <path
        id="path_61"
        d="M 580.25 175.33 L 581.91 233.33 L 685.25 233.33 L 679.25 156.67 L 580.25 175.33 Z"
        fill="#444053"/>
    <path
        id="path_62"
        d="M 493.41 490 L 590.75 490 L 590.75 613.33 L 493.41 613.33 Z"
        fill="#4c4981"/>
    <path
        id="path_63"
        d="M 554.92 540.34 C 554.92 540.34 568.92 529.34 571.25 532.67 C 573.58 536 562.93 550.34 558.59 548.67 C 554.25 547 554.92 540.34 554.92 540.34 Z"
        fill="#ffb9b9"/>
    <path
        id="path_64"
        d="M 304.51 216 L 943.48 216 L 943.48 536 L 304.51 536 Z"
        fill="#504f60"/>
    <path
        id="path_65"
        d="M 523.58 113.67 C 523.58 113.67 518.58 67 523.58 61.34 C 528.58 55.68 612.58 2 690.25 65 C 690.25 65 697.58 65.34 696.25 82 C 695.466 92.544 695.52 103.134 696.41 113.67 C 696.41 113.67 529.25 125.67 523.58 113.67 Z"
        fill="#33323d"/>
    <path
        id="path_66"
        d="M 523.58 113.67 C 523.58 113.67 518.58 67 523.58 61.34 C 528.58 55.68 612.58 2 690.25 65 C 690.25 65 697.58 65.34 696.25 82 C 695.466 92.544 695.52 103.134 696.41 113.67 C 696.41 113.67 529.25 125.67 523.58 113.67 Z"
        fill="#000000"
        fill-opacity="0.1"
        stroke-opacity="0.1"/>
    <path
        id="path_67"
        d="M 523.58 119.67 C 523.58 119.67 518.58 73 523.58 67.34 C 528.58 61.68 612.58 8 690.25 71 C 690.25 71 697.58 71.34 696.25 88 C 695.466 98.544 695.52 109.134 696.41 119.67 C 696.41 119.67 529.25 131.67 523.58 119.67 Z"
        fill="#33323d"/>
    <path
        id="path_68"
        d="M 699.25 98.34 C 699.25 98.34 704.58 118.34 702.92 121.67 C 701.26 125 701.56 134.34 701.56 134.34 C 701.56 134.34 701.92 140.34 699.25 141 C 696.58 141.66 694.25 142 696.41 144 C 698.57 146 696.41 149 696.41 149 C 696.41 149 695.24 153.67 696.41 156.67 C 697.58 159.67 689.57 160.92 690.25 164.67 C 690.93 168.42 693.17 179 690.25 179.34 C 687.33 179.68 691.25 192.67 688.62 192.67 C 685.99 192.67 684.12 216 684.12 216 C 684.12 216 665.62 200.34 653.29 204.67 C 653.29 204.67 654.29 191.67 658.29 187 C 662.29 182.33 661.08 170.34 661.08 170.34 L 680.92 110.67 Z"
        fill="#4c4981"/>
    <path
        id="path_69"
        d="M 600.25 374.12 C 595.92 378.91 591.25 353.33 591.25 353.33 C 591.25 353.33 578.92 370.33 570.92 359 C 565.38 351.15 569.75 328.91 572.92 316 C 574.34 310.26 575.54 306.36 575.54 306.36 L 593.54 303.36 C 593.54 303.36 593.6 307.28 594 312.04 C 594.54 318.47 595.71 326.45 598.2 328.36 C 602.59 331.67 604.59 369.29 600.25 374.12 Z"
        fill="#ae6e79"/>
    <path
        id="path_70"
        d="M 590.92 74.67 C 590.92 74.67 559.58 74.34 551.92 91 C 544.26 107.66 543.92 113.34 540.92 116 C 537.92 118.66 573.58 132.67 573.58 132.67 L 575.25 190 C 575.25 190 582.25 182.91 593.58 186.12 C 604.91 189.33 619.25 186.12 619.25 186.12 C 619.25 186.12 618.58 184.91 627.92 186.12 C 637.26 187.33 666.92 171.67 666.92 171.67 C 666.92 171.67 667.41 146.59 666.75 141.25 C 666.09 135.91 687.91 96.67 687.91 96.67 C 687.91 96.67 704.91 80.34 687.25 74.67 C 687.25 74.67 681 65.25 664.92 65.34 C 648.84 65.43 590.92 74.67 590.92 74.67 Z"
        fill="#000000"
        fill-opacity="0.1"
        stroke-opacity="0.1"/>
    <path
        id="path_71"
        d="M 590.92 73.67 C 590.92 73.67 559.58 73.34 551.92 90 C 544.26 106.66 543.92 112.34 540.92 115 C 537.92 117.66 573.58 131.67 573.58 131.67 L 575.25 189 C 575.25 189 582.25 181.91 593.58 185.12 C 604.91 188.33 619.25 185.12 619.25 185.12 C 619.25 185.12 618.58 183.91 627.92 185.12 C 637.26 186.33 666.92 170.67 666.92 170.67 C 666.92 170.67 678.58 151.67 677.92 146.34 C 677.26 141.01 701.25 100.67 701.25 100.67 C 701.25 100.67 704.92 79.34 687.25 73.67 C 687.25 73.67 681 64.25 664.92 64.34 C 648.84 64.43 590.92 73.67 590.92 73.67 Z"
        fill="#4c4981"/>
    <path
        id="path_72"
        d="M 594.08 312.01 C 587.21 309.87 576.43 314.59 573 316.01 C 574.42 310.27 575.62 306.37 575.62 306.37 L 593.62 303.37 C 593.62 303.37 593.65 307.29 594.08 312.01 Z"
        fill="#000000"
        fill-opacity="0.1"
        stroke-opacity="0.1"/>
    <path
        id="path_73"
        d="M 550.58 115 L 540.92 115 C 540.92 115 538.92 135.34 540.92 141.34 C 542.92 147.34 543.92 146.47 543.25 150.91 C 542.58 155.35 547.92 162.15 547.92 162.15 C 547.92 162.15 548.58 178.91 551.92 185.15 C 555.26 191.39 548.25 219.37 548.25 219.37 C 550.162 224.2 552.991 228.615 556.58 232.37 C 562.25 238.03 565.25 259.03 563.58 267.03 C 561.91 275.03 568.25 278.03 568.25 278.03 C 568.25 278.03 570.92 315.37 571.92 315.37 C 572.92 315.37 592.25 305.37 598.25 314.03 L 593.58 279.7 L 593.92 213.37 C 593.92 213.37 587.58 205.03 590.92 197.7 C 594.26 190.37 588.25 173.03 588.25 173.03 L 579.58 134.37 Z"
        fill="#4c4981"/>
    <path
        id="path_74"
        d="M 490.58 642 C 490.58 642 476.58 639 476.25 642 C 475.92 645 459.58 675.67 479.92 684.67 C 500.26 693.67 554.58 713 642.92 688 C 642.92 688 648.58 690 647.25 677.67 C 645.92 665.34 645.92 651.67 645.92 651.67 C 645.92 651.67 632.58 648 622.58 649.34 C 612.58 650.68 525.58 668.34 490.58 642 Z"
        fill="#33323d"/>
    <path
        id="path_75"
        d="M 490.58 642 C 490.58 642 476.58 639 476.25 642 C 475.92 645 459.58 675.67 479.92 684.67 C 500.26 693.67 554.58 713 642.92 688 C 642.92 688 648.58 690 647.25 677.67 C 645.92 665.34 645.92 651.67 645.92 651.67 C 645.92 651.67 632.58 648 622.58 649.34 C 612.58 650.68 525.58 668.34 490.58 642 Z"
        fill="#000000"
        fill-opacity="0.1"
        stroke-opacity="0.1"/>
    <path
        id="path_76"
        d="M 490.58 638 C 490.58 638 476.58 635 476.25 638 C 475.92 641 459.58 671.67 479.92 680.67 C 500.26 689.67 554.58 709 642.92 684 C 642.92 684 648.58 686 647.25 673.67 C 645.92 661.34 645.92 647.67 645.92 647.67 C 645.92 647.67 632.58 644 622.58 645.34 C 612.58 646.68 525.58 664.34 490.58 638 Z"
        fill="#33323d"/>
    <path
        id="path_77"
        d="M 572.22 126.98 C 571.36 131.87 569.41 136.57 569.11 141.52 C 568.81 146.47 570.72 152.1 575.29 154.04 C 576.565 154.421 577.801 154.923 578.98 155.54 C 580.74 156.73 581.46 158.97 581.83 161.07 C 582.321 163.781 582.439 166.547 582.18 169.29 C 581.93 172.05 581.34 175.02 582.7 177.43 C 585.09 181.7 591.32 181.07 596.06 179.87 L 594.43 192.5 C 594.3 193.5 594.22 194.63 594.95 195.31 C 595.295 195.553 595.685 195.724 596.097 195.814 C 596.509 195.903 596.936 195.908 597.35 195.83 C 601.47 195.57 605.71 195 609.24 192.83 C 612.77 190.66 615.4 186.62 614.73 182.55 C 613.95 177.83 609.07 174.08 609.73 169.34 C 610.24 165.67 613.83 163.34 616.19 160.52 C 620.46 155.36 620.69 147.52 617.34 141.68 C 613.99 135.84 607.52 132.22 600.86 131.56 C 597.17 131.19 593.33 131.64 589.86 130.36 C 588.653 129.917 587.564 129.201 586.679 128.268 C 585.795 127.335 585.138 126.209 584.76 124.98"
        fill="#444053"/>
    <path
        id="path_78"
        d="M 455.92 571.67 L 459.41 564.07 C 459.41 564.07 478.25 546.52 482.58 545.29 C 486.91 544.06 504.58 538.7 507.25 538.7 C 509.92 538.7 558.59 536.03 558.59 536.03 L 564.25 549.37 L 503.17 562.78 L 482.58 577.78 Z"
        fill="#767d9f"/>
    <path
        id="path_79"
        d="M 602.67 367 L 599.48 391.55 L 598.25 401 L 583.92 403 C 583.92 403 582.37 399.68 580.18 394.58 C 573.53 379.1 561.01 347.18 568.27 341.67 C 577.92 334.33 580.27 358.67 580.27 358.67 L 591.27 353.33 Z"
        fill="#ffb9b9"/>
    <path
        id="path_80"
        d="M 527.91 412.67 L 600.28 412.67 L 600.28 522 L 527.91 522 Z"
        fill="#ffffff"/>
    <path
        id="path_81"
        d="M 527.91 412.67 L 600.28 412.67 L 600.28 522 L 527.91 522 Z"
        fill="#000000"
        fill-opacity="0.1"
        stroke-opacity="0.1"/>
    <path
        id="path_82"
        d="M 561.21 408.01 L 632.8 418.59 L 616.81 526.74 L 545.22 516.16 Z"
        fill="#ffffff"/>
    <path
        id="path_83"
        d="M 567.95 418.32 L 604.8 423.77 L 596.57 479.43 L 559.72 473.98 Z"
        fill="#6c63ff"/>
    <path
        id="path_84"
        d="M 555.77 489.83 L 600.41 496.43 L 598.62 508.52 L 553.98 501.92 Z"
        fill="#6c63ff"/>
    <path
        id="path_85"
        d="M 619.25 95 M 577.42 95 C 577.42 86.168 580.217 77.558 585.409 70.413 C 590.6 63.267 597.924 57.947 606.324 55.217 C 614.724 52.488 623.776 52.488 632.176 55.217 C 640.576 57.947 647.9 63.267 653.091 70.413 C 658.283 77.558 661.08 86.168 661.08 95 C 661.08 103.832 658.283 112.442 653.091 119.587 C 647.9 126.733 640.576 132.053 632.176 134.783 C 623.776 137.512 614.724 137.512 606.324 134.783 C 597.924 132.053 590.6 126.733 585.409 119.587 C 580.217 112.442 577.42 103.832 577.42 95"
        fill="#000000"
        fill-opacity="0.1"
        stroke-opacity="0.1"/>
    <path
        id="path_86"
        d="M 619.25 94 M 577.42 94 C 577.42 85.168 580.217 76.558 585.409 69.413 C 590.6 62.267 597.924 56.947 606.324 54.217 C 614.724 51.488 623.776 51.488 632.176 54.217 C 640.576 56.947 647.9 62.267 653.091 69.413 C 658.283 76.558 661.08 85.168 661.08 94 C 661.08 102.832 658.283 111.442 653.091 118.587 C 647.9 125.733 640.576 131.053 632.176 133.783 C 623.776 136.512 614.724 136.512 606.324 133.783 C 597.924 131.053 590.6 125.733 585.409 118.587 C 580.217 111.442 577.42 102.832 577.42 94"
        fill="#ae6e79"/>
    <path
        id="path_87"
        d="M 584.76 125 C 584.476 123.923 584.578 122.779 585.05 121.77 C 586.64 118.46 591.17 118.17 594.84 118.34 C 603.47 118.74 612.94 118.79 619.69 113.34 C 622.49 111.1 625.62 105.47 629.69 106.54 C 633.31 107.49 634.82 112.4 638.59 113.49 C 641.32 114.28 644.15 113.02 646.93 112.49 C 650.93 111.7 655.03 112.36 659.09 112.39 C 663.15 112.42 667.56 111.65 670.33 108.68 C 674.07 104.68 673.46 98.43 673.13 92.95 C 672.72 85.871 673.2 78.769 674.56 71.81 C 675.92 64.89 678.01 57.15 674.19 51.22 C 670.55 45.57 663.01 44.02 657.86 39.69 C 653.04 35.69 650.49 29.28 645.4 25.57 C 638.99 20.9 630.28 21.57 622.4 22.38 L 605.3 24.2 C 600.89 24.67 596.3 25.2 592.67 27.83 C 586.12 32.57 585.22 42.42 579.02 47.61 C 576.26 49.91 572.73 51.05 569.58 52.77 C 566.43 54.49 563.39 57.21 563.03 60.77 C 562.73 63.77 564.35 66.54 565.14 69.43 C 567.01 76.33 564.09 83.43 562.22 90.38 C 560.35 97.33 559.99 105.77 565.42 110.38 C 566.52 111.32 567.8 112.04 568.87 113.02 C 572.54 116.37 573.04 122.02 572.19 126.9"
        fill="#444053"/>
    <path
        id="path_88"
        d="M 621.66 143.75 C 621.66 144.413 621.765 145.049 621.953 145.518 C 622.14 145.986 622.395 146.25 622.66 146.25 C 622.925 146.25 623.18 145.986 623.367 145.518 C 623.555 145.049 623.66 144.413 623.66 143.75 C 623.66 143.087 623.555 142.451 623.367 141.982 C 623.18 141.514 622.925 141.25 622.66 141.25 C 622.395 141.25 622.14 141.514 621.953 141.982 C 621.765 142.451 621.66 143.087 621.66 143.75 Z"
        fill="#444053"/>
    <path
        id="path_89"
        d="M 621.66 154.17 C 621.66 154.833 621.765 155.469 621.953 155.938 C 622.14 156.406 622.395 156.67 622.66 156.67 C 622.925 156.67 623.18 156.406 623.367 155.938 C 623.555 155.469 623.66 154.833 623.66 154.17 C 623.66 153.507 623.555 152.871 623.367 152.402 C 623.18 151.934 622.925 151.67 622.66 151.67 C 622.395 151.67 622.14 151.934 621.953 152.402 C 621.765 152.871 621.66 153.507 621.66 154.17 Z"
        fill="#444053"/>
    <path
        id="path_90"
        d="M 600.48 374.05 C 601.55 372.82 602.26 369.66 602.67 365.49 L 590.75 350.63 C 590.75 350.63 595.8 379.44 600.48 374.05 Z"
        fill="#ae6e79"/>
    <path
        id="path_91"
        d="M 613.92 619.67 C 613.92 619.67 594.36 649.91 533.25 646.67 C 475.68 643.67 447.58 615.34 448.92 605.34 C 450.26 595.34 445.25 571 457.58 564 C 464.73 559.95 474.14 562.35 480.78 565.09 C 483.074 566.022 485.585 566.284 488.022 565.847 C 490.459 565.41 492.723 564.291 494.55 562.62 C 500.62 557.15 511.94 550.99 529.81 555.84 C 532.109 556.453 534.535 556.408 536.81 555.71 C 544.25 553.44 561.96 549.5 574.81 558.25 C 576.841 559.65 579.228 560.443 581.693 560.537 C 584.158 560.631 586.599 560.021 588.73 558.78 L 588.91 558.67 C 594.91 555 622.91 589.67 622.91 589.67 C 622.91 589.67 624.25 616.34 613.92 619.67 Z"
        fill="#000000"
        fill-opacity="0.1"
        stroke-opacity="0.1"/>
    <path
        id="path_92"
        d="M 613.92 620.67 C 613.92 620.67 594.36 650.91 533.25 647.67 C 475.68 644.67 447.58 616.34 448.92 606.34 C 450.26 596.34 445.25 572 457.58 565 C 464.73 560.95 474.14 563.35 480.78 566.09 C 483.074 567.022 485.585 567.284 488.022 566.847 C 490.459 566.41 492.723 565.291 494.55 563.62 C 500.62 558.15 511.94 551.99 529.81 556.84 C 532.109 557.453 534.535 557.408 536.81 556.71 C 544.25 554.44 561.96 550.5 574.81 559.25 C 576.841 560.65 579.228 561.443 581.693 561.537 C 584.158 561.631 586.599 561.021 588.73 559.78 L 588.91 559.67 C 594.91 556 622.91 590.67 622.91 590.67 C 622.91 590.67 624.25 617.34 613.92 620.67 Z"
        fill="#767d9f"/>
    <path
        id="path_93"
        d="M 533.25 592.67 M 493.41 592.67 C 493.41 582.108 497.61 571.967 505.079 564.499 C 512.547 557.03 522.688 552.83 533.25 552.83 C 543.812 552.83 553.953 557.03 561.421 564.499 C 568.89 571.967 573.09 582.108 573.09 592.67 C 573.09 603.232 568.89 613.373 561.421 620.841 C 553.953 628.31 543.812 632.51 533.25 632.51 C 522.688 632.51 512.547 628.31 505.079 620.841 C 497.61 613.373 493.41 603.232 493.41 592.67"
        fill="#000000"
        fill-opacity="0.1"
        stroke-opacity="0.1"/>
    <path
        id="path_94"
        d="M 533.25 593.67 M 493.41 593.67 C 493.41 583.108 497.61 572.967 505.079 565.499 C 512.547 558.03 522.688 553.83 533.25 553.83 C 543.812 553.83 553.953 558.03 561.421 565.499 C 568.89 572.967 573.09 583.108 573.09 593.67 C 573.09 604.232 568.89 614.373 561.421 621.841 C 553.953 629.31 543.812 633.51 533.25 633.51 C 522.688 633.51 512.547 629.31 505.079 621.841 C 497.61 614.373 493.41 604.232 493.41 593.67"
        fill="#ffb9b9"/>
    <path
        id="path_95"
        d="M 521.83 559.23 C 517.65 560.36 513.53 562.52 511.49 566.07 C 510.26 568.21 509.83 570.78 508.05 572.56 C 505.53 575.09 501.28 575.14 497.87 576.56 C 494.46 577.98 492.21 582.98 495.55 584.56 C 492.07 584.74 489.49 587.95 489.06 591.14 C 488.63 594.33 489.84 597.51 491.01 600.55 C 494.83 610.39 498.94 620.66 507.36 627.66 C 521.08 639.08 541.76 638.55 560.19 637.34 C 561.696 637.39 563.189 637.045 564.52 636.34 C 566.52 635.02 566.77 632.49 567.1 630.27 C 568.49 620.79 573.63 612.18 576.99 603.13 C 580.35 594.08 581.73 583.45 576.07 575.44 C 567.74 563.56 535.85 555.43 521.83 559.23 Z"
        fill="#b96b6b"/>
    <path
        id="path_96"
        d="M 599.48 391.55 L 598.25 401 L 583.92 403 C 583.92 403 582.37 399.68 580.18 394.58 L 599.25 391 Z"
        fill="#000000"
        fill-opacity="0.1"
        stroke-opacity="0.1"/>
    <path
        id="path_97"
        d="M 614.58 600.34 L 622.92 590.67 L 621.25 537.34 C 622.071 533.492 622.629 529.593 622.92 525.67 C 623.25 520 618.75 507.34 618.75 507.34 C 619.448 504.806 620.396 502.347 621.58 500 C 623.58 496 618.76 487 618.76 487 C 618.76 487 611.58 463.67 614.58 452 C 617.58 440.33 613.85 433.67 613.85 433.67 C 613.85 433.67 610.92 420.67 611.25 415.34 C 611.58 410.01 604.58 405 604.58 405 L 599.25 392 L 577.92 396 L 577.92 441 C 577.92 441 579.25 484 577.92 492.34 C 576.59 500.68 580.58 508.67 580.58 508.67 C 580.58 508.67 578.25 521 580.25 525.67 C 582.25 530.34 586.25 541.67 586.25 541.67 C 585.508 545.719 585.737 549.887 586.92 553.83 C 588.92 559.67 586.92 563 586.92 563 Z"
        fill="#767d9f"/>
    <path
        id="path_98"
        d="M 674.59 68.52 C 673.462 74.374 672.956 80.33 673.08 86.29 C 673.166 81.334 673.684 76.395 674.63 71.53 C 675.51 67.09 676.63 62.31 676.39 57.88 C 676.021 61.462 675.42 65.016 674.59 68.52 Z"
        fill="#000000"
        fill-opacity="0.1"
        stroke-opacity="0.1"/>
    <path
        id="path_99"
        d="M 568.9 109.8 C 567.83 108.8 566.55 108.1 565.45 107.15 C 562.53 104.66 561.3 101.05 561.06 97.15 C 560.77 102.15 561.79 106.99 565.45 110.15 C 566.55 111.1 567.83 111.82 568.9 112.8 C 571.136 115.013 572.433 118.005 572.52 121.15 C 572.81 116.95 571.96 112.58 568.9 109.8 Z"
        fill="#000000"
        fill-opacity="0.1"
        stroke-opacity="0.1"/>
    <path
        id="path_100"
        d="M 565.71 72.46 C 565.885 70.348 565.702 68.221 565.17 66.17 C 564.59 64.03 563.55 61.94 563.17 59.79 C 563.17 60.02 563.09 60.26 563.06 60.51 C 562.77 63.51 564.39 66.28 565.17 69.17 C 565.457 70.246 565.638 71.348 565.71 72.46 Z"
        fill="#000000"
        fill-opacity="0.1"
        stroke-opacity="0.1"/>
    <path
        id="path_101"
        d="M 670.36 105.39 C 667.59 108.39 663.18 109.13 659.12 109.1 C 655.06 109.07 650.95 108.41 646.96 109.21 C 644.18 109.77 641.35 111.02 638.62 110.21 C 634.85 109.12 633.34 104.21 629.73 103.26 C 625.62 102.18 622.49 107.81 619.73 110.05 C 612.98 115.45 603.51 115.4 594.88 115.05 C 591.21 114.88 586.68 115.17 585.1 118.49 C 584.618 119.496 584.515 120.644 584.81 121.72 L 572.59 123.64 C 572.544 124.646 572.434 125.648 572.26 126.64 L 584.81 124.64 C 584.515 123.564 584.618 122.416 585.1 121.41 C 586.68 118.09 591.21 117.8 594.88 117.97 C 603.51 118.37 612.98 118.42 619.73 112.97 C 622.53 110.73 625.66 105.1 629.73 106.18 C 633.34 107.12 634.85 112.04 638.62 113.13 C 641.35 113.91 644.18 112.66 646.96 112.13 C 650.96 111.33 655.06 111.99 659.12 112.02 C 663.18 112.05 667.59 111.28 670.36 108.31 C 673.13 105.34 673.53 100.91 673.36 96.59 C 673.24 99.94 672.55 103.04 670.36 105.39 Z"
        fill="#000000"
        fill-opacity="0.1"
        stroke-opacity="0.1"/>
    <path
        id="path_102"
        d="M 577.79 153.42 C 576.612 152.8 575.376 152.297 574.1 151.92 C 571.931 150.934 570.207 149.171 569.27 146.98 C 570.02 150.43 571.92 153.57 575.1 154.92 C 576.376 155.297 577.612 155.8 578.79 156.42 C 579.543 156.952 580.151 157.664 580.56 158.49 C 580.16 156.53 579.43 154.53 577.79 153.42 Z"
        fill="#000000"
        fill-opacity="0.1"
        stroke-opacity="0.1"/>
    <path
        id="path_103"
        d="M 594.87 177.75 C 590.26 178.92 584.24 179.53 581.71 175.62 C 581.789 176.562 582.061 177.478 582.51 178.31 C 584.67 182.16 589.95 182.03 594.44 181.08 Z"
        fill="#000000"
        fill-opacity="0.1"
        stroke-opacity="0.1"/>
    <path
        id="path_104"
        d="M 613.55 180.49 C 614.19 184.55 611.55 188.6 608.05 190.73 C 604.55 192.86 600.28 193.45 596.16 193.73 C 595.505 193.815 594.839 193.739 594.22 193.51 C 593.968 194.077 593.948 194.72 594.163 195.301 C 594.377 195.883 594.811 196.358 595.371 196.625 C 595.931 196.891 596.573 196.929 597.16 196.73 C 601.28 196.47 605.52 195.9 609.05 193.73 C 612.58 191.56 615.22 187.52 614.54 183.45 C 614.348 182.422 614.015 181.426 613.55 180.49 Z"
        fill="#000000"
        fill-opacity="0.1"
        stroke-opacity="0.1"/>
    <path
        id="path_105"
        d="M 617.99 144.29 C 618.6 146.721 618.647 149.26 618.128 151.712 C 617.608 154.164 616.534 156.466 614.99 158.44 C 612.63 161.3 609.04 163.59 608.53 167.26 C 608.36 168.947 608.709 170.647 609.53 172.13 C 609.44 171.51 609.44 170.88 609.53 170.26 C 610.04 166.59 613.63 164.26 615.99 161.44 C 619.87 156.75 620.41 149.84 617.99 144.29 Z"
        fill="#000000"
        fill-opacity="0.1"
        stroke-opacity="0.1"/>
    <path
        id="path_106"
        d="M 497.88 578.1 C 501.28 576.69 505.53 576.64 508.06 574.1 C 509.84 572.32 510.27 569.75 511.5 567.62 C 513.5 564.06 517.65 561.91 521.83 560.78 C 535.83 556.98 567.75 565.1 576.07 576.87 C 578.508 580.431 579.838 584.635 579.89 588.95 C 580.21 583.969 578.87 579.019 576.08 574.88 C 567.76 563.11 535.87 554.99 521.84 558.79 C 517.66 559.92 513.54 562.07 511.51 565.63 C 510.28 567.76 509.85 570.33 508.07 572.11 C 505.54 574.64 501.29 574.69 497.89 576.11 C 495.3 577.18 493.38 580.34 494.08 582.46 C 494.359 581.501 494.843 580.614 495.5 579.861 C 496.156 579.108 496.968 578.507 497.88 578.1 Z"
        fill="#000000"
        fill-opacity="0.1"
        stroke-opacity="0.1"/>
    <path
        id="path_107"
        d="M 489.08 592.63 C 489.5 589.43 492.08 586.23 495.57 586.05 C 495.204 585.897 494.876 585.664 494.611 585.368 C 494.346 585.073 494.151 584.721 494.04 584.34 C 492.713 584.833 491.545 585.68 490.664 586.789 C 489.783 587.897 489.221 589.226 489.04 590.63 C 488.945 591.444 488.945 592.266 489.04 593.08 C 489.08 592.93 489.08 592.78 489.08 592.63 Z"
        fill="#000000"
        fill-opacity="0.1"
        stroke-opacity="0.1"/>
    <path
        id="path_108"
        d="M 609.91 230.24 L 700.91 230.24 L 700.91 348.91 L 609.91 348.91 Z"
        fill="#ffffff"/>
    <path
        id="path_109"
        d="M 609.91 230.24 L 700.91 230.24 L 700.91 348.91 L 609.91 348.91 Z"
        fill="#000000"
        fill-opacity="0.1"
        stroke-opacity="0.1"/>
    <path
        id="path_110"
        d="M 646 252.63 L 735.68 237.2 L 755.8 354.15 L 666.12 369.58 Z"
        fill="#ffffff"/>
    <path
        id="path_111"
        d="M 667.73 332.35 L 688.8 328.73 L 693.53 356.21 L 672.46 359.83 Z"
        fill="#6c63ff"/>
    <path
        id="path_112"
        d="M 696.89 327.33 L 717.96 323.71 L 722.69 351.19 L 701.62 354.81 Z"
        fill="#6c63ff"/>
    <path
        id="path_113"
        d="M 664.67 296.14 L 738.56 283.45 L 743.3 311.05 L 669.41 323.74 Z"
        fill="#6c63ff"/>
    <path
        id="path_114"
        d="M 658.51 263.2 L 732.4 250.51 L 733.46 256.67 L 659.57 269.36 Z"
        fill="#6c63ff"/>
    <path
        id="path_115"
        d="M 660.93 274.53 L 734.82 261.84 L 735.88 268 L 661.99 280.69 Z"
        fill="#6c63ff"/>
    <path
        id="path_116"
        d="M 661.08 198 C 661.08 198 619.25 240 640.25 250.67 C 661.25 261.34 674.92 215.17 674.92 215.17 L 678.24 204.67 Z"
        fill="#ae6e79"/>
    <path
        id="path_117"
        d="M 657.42 194.29 L 652.25 205.71 C 652.25 205.71 677.75 209.29 683.08 217 L 679.92 196.85 L 676.17 188.25 Z"
        fill="#000000"
        fill-opacity="0.1"
        stroke-opacity="0.1"/>
    <path
        id="path_118"
        d="M 658.42 193.29 L 653.25 204.71 C 653.25 204.71 678.75 208.29 684.08 216 L 680.92 195.85 L 677.17 187.25 Z"
        fill="#4c4981"/>
    <path
        id="path_119"
        d="M 812.78 403.26 L 812.23 403.64 L 812.99 403.98 L 813.81 403.91 L 813.91 403.34 L 812.78 403.26 Z"
        fill="#464a5f"/>
    <path
        id="path_120"
        d="M 812.78 403.26 L 812.23 403.64 L 812.99 403.98 L 813.81 403.91 L 813.91 403.34 L 812.78 403.26 Z"
        fill="#000000"
        fill-opacity="0.1"
        stroke-opacity="0.1"/>
    <path
        id="path_121"
        d="M 812.78 403.26 L 812.22 403.62 L 811.78 403.08 L 812.05 402.64 L 812.3 402.56 L 812.78 403.26 Z"
        fill="#9c9ca1"/>
    <path
        id="path_122"
        d="M 812.78 403.26 L 812.22 403.62 L 811.78 403.08 L 812.05 402.64 L 812.3 402.56 L 812.78 403.26 Z"
        fill="#000000"
        fill-opacity="0.1"
        stroke-opacity="0.1"/>
    <path
        id="path_123"
        d="M 911.21 334.15 L 870.27 275.02 C 869.785 274.315 869.123 273.749 868.35 273.381 C 867.577 273.013 866.721 272.855 865.868 272.924 C 865.015 272.992 864.194 273.284 863.49 273.77 L 772.23 336.41 C 771.163 337.143 770.429 338.27 770.191 339.542 C 769.953 340.815 770.23 342.131 770.96 343.2 L 811.79 403.08 Z"
        fill="#9c9ca1"/>
    <path
        id="path_124"
        d="M 911.21 334.15 L 870.27 275.02 C 869.785 274.315 869.123 273.749 868.35 273.381 C 867.577 273.013 866.721 272.855 865.868 272.924 C 865.015 272.992 864.194 273.284 863.49 273.77 L 772.23 336.41 C 771.163 337.143 770.429 338.27 770.191 339.542 C 769.953 340.815 770.23 342.131 770.96 343.2 L 811.79 403.08 Z"
        fill="#000000"
        fill-opacity="0.1"
        stroke-opacity="0.1"/>
    <path
        id="path_125"
        d="M 912.21 334.29 L 871.27 275.16 C 870.784 274.454 870.121 273.889 869.347 273.52 C 868.573 273.152 867.715 272.994 866.861 273.063 C 866.007 273.131 865.185 273.423 864.48 273.91 L 773.23 336.59 C 772.163 337.323 771.429 338.449 771.189 339.721 C 770.95 340.993 771.223 342.309 771.95 343.38 L 812.78 403.29 Z"
        fill="#9c9ca1"/>
    <path
        id="path_126"
        d="M 946.43 345.98 L 912.43 335.06 L 812.99 403.99 L 847.53 415.29 C 848.303 415.541 849.124 415.609 849.928 415.487 C 850.731 415.366 851.496 415.058 852.16 414.59 L 946.71 347.83 C 946.887 347.731 947.03 347.58 947.119 347.397 C 947.208 347.215 947.24 347.009 947.209 346.808 C 947.179 346.607 947.088 346.42 946.949 346.273 C 946.81 346.125 946.629 346.023 946.43 345.98 Z"
        fill="#464a5f"/>
    <path
        id="path_127"
        d="M 946.43 345.98 L 912.43 335.06 L 812.99 403.99 L 847.53 415.29 C 848.303 415.541 849.124 415.609 849.928 415.487 C 850.731 415.366 851.496 415.058 852.16 414.59 L 946.71 347.83 C 946.887 347.731 947.03 347.58 947.119 347.397 C 947.208 347.215 947.24 347.009 947.209 346.808 C 947.179 346.607 947.088 346.42 946.949 346.273 C 946.81 346.125 946.629 346.023 946.43 345.98 Z"
        fill="#000000"
        fill-opacity="0.1"
        stroke-opacity="0.1"/>
    <path
        id="path_128"
        d="M 946.22 345.29 L 912.22 334.36 L 812.78 403.29 L 847.32 414.57 C 848.092 414.826 848.913 414.896 849.717 414.777 C 850.521 414.657 851.286 414.35 851.95 413.88 L 946.5 347.12 C 946.67 347.018 946.806 346.867 946.891 346.688 C 946.975 346.508 947.004 346.307 946.974 346.111 C 946.944 345.915 946.857 345.732 946.722 345.586 C 946.588 345.439 946.413 345.336 946.22 345.29 Z"
        fill="#464a5f"/>
    <path
        id="path_187"
        d="M 896.15 331.65 L 893.64 328.05 C 893.489 327.841 893.263 327.699 893.01 327.652 C 892.757 327.605 892.495 327.659 892.28 327.8 L 888.55 330.29 C 888.341 330.438 888.196 330.66 888.146 330.911 C 888.095 331.162 888.144 331.423 888.28 331.64 L 890.59 335.19 C 890.735 335.403 890.956 335.551 891.207 335.605 C 891.458 335.659 891.721 335.614 891.94 335.48 L 895.87 333.01 C 896.084 332.864 896.232 332.64 896.285 332.387 C 896.337 332.133 896.288 331.869 896.15 331.65 Z"
        fill="#000000"
        fill-opacity="0.1"
        stroke-opacity="0.1"/>
    <path
        id="path_188"
        d="M 889.45 336.29 L 886.93 332.7 C 886.779 332.491 886.553 332.349 886.3 332.302 C 886.047 332.255 885.785 332.309 885.57 332.45 L 881.85 334.96 C 881.639 335.106 881.492 335.328 881.44 335.579 C 881.388 335.83 881.435 336.092 881.57 336.31 L 883.88 339.86 C 884.023 340.074 884.243 340.225 884.495 340.281 C 884.746 340.337 885.01 340.293 885.23 340.16 L 889.17 337.69 C 889.319 337.593 889.439 337.458 889.518 337.299 C 889.598 337.14 889.633 336.962 889.621 336.785 C 889.609 336.608 889.55 336.437 889.45 336.29 Z"
        fill="#000000"
        fill-opacity="0.1"
        stroke-opacity="0.1"/>
    <path
        id="path_189"
        d="M 882.41 341.16 L 879.89 337.57 C 879.739 337.361 879.513 337.219 879.26 337.172 C 879.007 337.125 878.745 337.179 878.53 337.32 L 874.8 339.83 C 874.588 339.978 874.441 340.202 874.391 340.456 C 874.341 340.709 874.391 340.972 874.53 341.19 L 876.84 344.74 C 876.985 344.953 877.206 345.101 877.457 345.155 C 877.708 345.209 877.971 345.164 878.19 345.03 L 882.12 342.56 C 882.27 342.464 882.391 342.33 882.472 342.171 C 882.553 342.012 882.589 341.835 882.578 341.657 C 882.568 341.479 882.509 341.308 882.41 341.16 Z"
        fill="#000000"
        fill-opacity="0.1"
        stroke-opacity="0.1"/>
    <path
        id="path_190"
        d="M 875.28 346.1 L 872.76 342.5 C 872.609 342.294 872.386 342.153 872.135 342.107 C 871.884 342.06 871.624 342.112 871.41 342.25 L 867.68 344.77 C 867.471 344.918 867.326 345.14 867.276 345.391 C 867.225 345.642 867.274 345.903 867.41 346.12 L 869.72 349.67 C 869.863 349.882 870.081 350.031 870.33 350.086 C 870.579 350.142 870.841 350.1 871.06 349.97 L 875 347.49 C 875.147 347.393 875.266 347.259 875.344 347.101 C 875.422 346.943 875.458 346.768 875.447 346.592 C 875.435 346.416 875.378 346.246 875.28 346.1 Z"
        fill="#000000"
        fill-opacity="0.1"
        stroke-opacity="0.1"/>
    <path
        id="path_191"
        d="M 868.16 351.03 L 865.64 347.44 C 865.489 347.231 865.263 347.089 865.01 347.042 C 864.757 346.995 864.495 347.049 864.28 347.19 L 860.56 349.7 C 860.349 349.846 860.202 350.068 860.15 350.319 C 860.098 350.57 860.145 350.832 860.28 351.05 L 862.59 354.6 C 862.733 354.814 862.953 354.965 863.205 355.021 C 863.456 355.077 863.72 355.033 863.94 354.9 L 867.88 352.42 C 868.027 352.323 868.146 352.189 868.224 352.031 C 868.302 351.873 868.338 351.698 868.327 351.522 C 868.315 351.346 868.258 351.176 868.16 351.03 Z"
        fill="#000000"
        fill-opacity="0.1"
        stroke-opacity="0.1"/>
    <path
        id="path_192"
        d="M 861.35 356.41 L 858.22 351.95 C 858.176 351.884 858.114 351.83 858.043 351.795 C 857.971 351.761 857.891 351.745 857.812 351.751 C 857.732 351.758 857.656 351.785 857.59 351.83 L 853.01 354.92 C 852.943 354.963 852.888 355.024 852.852 355.095 C 852.816 355.167 852.799 355.247 852.804 355.326 C 852.809 355.406 852.835 355.484 852.88 355.55 L 855.75 359.96 C 855.816 360.061 855.919 360.133 856.036 360.159 C 856.154 360.185 856.278 360.164 856.38 360.1 L 861.22 357.1 C 861.298 357.056 861.361 356.99 861.402 356.911 C 861.443 356.831 861.46 356.741 861.45 356.653 C 861.441 356.564 861.406 356.479 861.35 356.41 Z"
        fill="#000000"
        fill-opacity="0.1"
        stroke-opacity="0.1"/>
    <path
        id="path_193"
        d="M 854.23 361.34 L 851.08 356.88 C 851.034 356.813 850.972 356.76 850.899 356.725 C 850.826 356.69 850.745 356.675 850.665 356.681 C 850.584 356.687 850.507 356.714 850.44 356.76 L 845.86 359.85 C 845.762 359.919 845.695 360.023 845.672 360.141 C 845.65 360.258 845.674 360.38 845.74 360.48 L 848.61 364.89 C 848.651 364.96 848.71 365.017 848.782 365.056 C 848.853 365.094 848.934 365.112 849.014 365.107 C 849.095 365.103 849.173 365.076 849.24 365.03 L 854.07 362.03 C 854.153 361.991 854.222 361.928 854.268 361.85 C 854.314 361.771 854.335 361.68 854.328 361.589 C 854.322 361.498 854.287 361.411 854.23 361.34 Z"
        fill="#000000"
        fill-opacity="0.1"
        stroke-opacity="0.1"/>
    <path
        id="path_194"
        d="M 847.92 365.71 L 844.79 361.29 C 844.72 361.194 844.615 361.128 844.497 361.108 C 844.38 361.087 844.259 361.113 844.16 361.18 L 839.58 364.26 C 839.48 364.329 839.41 364.434 839.386 364.554 C 839.361 364.673 839.385 364.797 839.45 364.9 L 842.32 369.31 C 842.387 369.409 842.49 369.479 842.607 369.505 C 842.724 369.531 842.847 369.511 842.95 369.45 L 847.79 366.45 C 847.879 366.408 847.952 366.338 847.999 366.252 C 848.045 366.165 848.063 366.065 848.049 365.968 C 848.035 365.87 847.989 365.78 847.92 365.71 Z"
        fill="#000000"
        fill-opacity="0.1"
        stroke-opacity="0.1"/>
    <path
        id="path_195"
        d="M 840.86 370.59 L 837.73 366.13 C 837.66 366.034 837.555 365.968 837.437 365.948 C 837.32 365.927 837.199 365.953 837.1 366.02 L 832.52 369.1 C 832.452 369.145 832.397 369.206 832.361 369.279 C 832.325 369.351 832.308 369.432 832.313 369.513 C 832.319 369.594 832.345 369.673 832.39 369.74 L 835.26 374.15 C 835.327 374.249 835.43 374.319 835.547 374.345 C 835.664 374.371 835.787 374.351 835.89 374.29 L 840.73 371.29 C 840.808 371.244 840.871 371.177 840.912 371.097 C 840.953 371.016 840.97 370.926 840.961 370.836 C 840.952 370.746 840.917 370.661 840.86 370.59 Z"
        fill="#000000"
        fill-opacity="0.1"
        stroke-opacity="0.1"/>
    <path
        id="path_196"
        d="M 834.02 375.29 L 830.89 370.83 C 830.846 370.764 830.784 370.71 830.713 370.675 C 830.641 370.641 830.561 370.625 830.482 370.631 C 830.402 370.638 830.326 370.665 830.26 370.71 L 825.68 373.8 C 825.613 373.843 825.558 373.904 825.522 373.975 C 825.486 374.047 825.469 374.127 825.474 374.206 C 825.479 374.286 825.505 374.364 825.55 374.43 L 828.42 378.84 C 828.486 378.941 828.589 379.013 828.706 379.039 C 828.824 379.065 828.948 379.044 829.05 378.98 L 833.89 375.98 C 833.968 375.936 834.031 375.87 834.072 375.791 C 834.113 375.711 834.13 375.621 834.12 375.533 C 834.111 375.444 834.076 375.359 834.02 375.29 Z"
        fill="#000000"
        fill-opacity="0.1"
        stroke-opacity="0.1"/>
    <path
        id="path_197"
        d="M 827.18 380.07 L 824.08 375.6 C 824.01 375.504 823.905 375.438 823.787 375.418 C 823.67 375.397 823.549 375.423 823.45 375.49 L 818.87 378.57 C 818.802 378.615 818.747 378.676 818.711 378.749 C 818.675 378.821 818.658 378.902 818.663 378.983 C 818.669 379.064 818.695 379.143 818.74 379.21 L 821.61 383.62 C 821.677 383.719 821.78 383.789 821.897 383.815 C 822.014 383.841 822.137 383.821 822.24 383.76 L 827.08 380.76 C 827.155 380.712 827.214 380.644 827.251 380.564 C 827.288 380.484 827.301 380.394 827.288 380.307 C 827.276 380.219 827.238 380.137 827.18 380.07 Z"
        fill="#000000"
        fill-opacity="0.1"
        stroke-opacity="0.1"/>
    <path
        id="path_198"
        d="M 820.34 384.8 L 817.21 380.34 C 817.166 380.274 817.104 380.22 817.033 380.185 C 816.961 380.151 816.881 380.135 816.802 380.141 C 816.722 380.148 816.646 380.175 816.58 380.22 L 812 383.29 C 811.933 383.333 811.878 383.394 811.842 383.465 C 811.806 383.537 811.789 383.617 811.794 383.696 C 811.799 383.776 811.825 383.854 811.87 383.92 L 814.74 388.33 C 814.806 388.431 814.909 388.503 815.026 388.529 C 815.144 388.555 815.268 388.534 815.37 388.47 L 820.21 385.47 C 820.284 385.426 820.343 385.361 820.382 385.285 C 820.421 385.208 820.438 385.122 820.43 385.036 C 820.423 384.951 820.392 384.869 820.34 384.8 Z"
        fill="#000000"
        fill-opacity="0.1"
        stroke-opacity="0.1"/>
    <path
        id="path_199"
        d="M 891.65 325.14 L 889.13 321.54 C 888.979 321.331 888.753 321.189 888.5 321.142 C 888.247 321.095 887.985 321.149 887.77 321.29 L 884.08 323.81 C 883.869 323.956 883.722 324.178 883.67 324.429 C 883.618 324.68 883.665 324.942 883.8 325.16 L 886.11 328.71 C 886.255 328.923 886.476 329.071 886.727 329.125 C 886.978 329.179 887.241 329.134 887.46 329 L 891.4 326.53 C 891.617 326.379 891.765 326.147 891.812 325.887 C 891.859 325.626 891.801 325.358 891.65 325.14 Z"
        fill="#000000"
        fill-opacity="0.1"
        stroke-opacity="0.1"/>
    <path
        id="path_200"
        d="M 881.8 310.91 L 879.28 307.29 C 879.129 307.084 878.906 306.943 878.655 306.897 C 878.404 306.85 878.144 306.902 877.93 307.04 L 874.2 309.55 C 873.989 309.696 873.842 309.918 873.79 310.169 C 873.738 310.42 873.785 310.682 873.92 310.9 L 876.23 314.45 C 876.373 314.664 876.593 314.815 876.845 314.871 C 877.096 314.927 877.36 314.883 877.58 314.75 L 881.52 312.28 C 881.736 312.134 881.887 311.908 881.939 311.652 C 881.992 311.396 881.942 311.13 881.8 310.91 Z"
        fill="#000000"
        fill-opacity="0.1"
        stroke-opacity="0.1"/>
    <path
        id="path_201"
        d="M 884.94 329.78 L 882.42 326.19 C 882.269 325.984 882.046 325.843 881.795 325.797 C 881.544 325.75 881.284 325.802 881.07 325.94 L 877.34 328.45 C 877.131 328.598 876.986 328.82 876.936 329.071 C 876.885 329.322 876.934 329.583 877.07 329.8 L 879.37 333.35 C 879.513 333.564 879.733 333.715 879.985 333.771 C 880.236 333.827 880.5 333.783 880.72 333.65 L 884.66 331.18 C 884.809 331.083 884.929 330.948 885.008 330.789 C 885.088 330.63 885.123 330.452 885.111 330.275 C 885.099 330.098 885.04 329.927 884.94 329.78 Z"
        fill="#000000"
        fill-opacity="0.1"
        stroke-opacity="0.1"/>
    <path
        id="path_202"
        d="M 877.9 334.65 L 875.38 331.06 C 875.229 330.851 875.003 330.709 874.75 330.662 C 874.497 330.615 874.235 330.669 874.02 330.81 L 870.3 333.29 C 870.086 333.436 869.938 333.66 869.885 333.913 C 869.833 334.167 869.882 334.431 870.02 334.65 L 872.33 338.2 C 872.475 338.413 872.696 338.561 872.947 338.615 C 873.198 338.669 873.461 338.624 873.68 338.49 L 877.62 336.02 C 877.836 335.874 877.987 335.648 878.039 335.392 C 878.092 335.136 878.042 334.87 877.9 334.65 Z"
        fill="#000000"
        fill-opacity="0.1"
        stroke-opacity="0.1"/>
    <path
        id="path_203"
        d="M 870.77 339.59 L 868.26 335.99 C 868.109 335.781 867.883 335.639 867.63 335.592 C 867.377 335.545 867.115 335.599 866.9 335.74 L 863.17 338.29 C 862.961 338.438 862.816 338.66 862.766 338.911 C 862.715 339.162 862.764 339.423 862.9 339.64 L 865.21 343.19 C 865.355 343.403 865.576 343.551 865.827 343.605 C 866.078 343.659 866.341 343.614 866.56 343.48 L 870.49 341.01 C 870.643 340.913 870.766 340.776 870.847 340.614 C 870.928 340.453 870.964 340.272 870.95 340.092 C 870.937 339.911 870.874 339.738 870.77 339.59 Z"
        fill="#000000"
        fill-opacity="0.1"
        stroke-opacity="0.1"/>
    <path
        id="path_204"
        d="M 875.25 315.78 L 872.73 312.19 C 872.579 311.984 872.356 311.843 872.105 311.797 C 871.854 311.75 871.594 311.802 871.38 311.94 L 867.65 314.45 C 867.439 314.596 867.292 314.818 867.24 315.069 C 867.188 315.32 867.235 315.582 867.37 315.8 L 869.68 319.35 C 869.823 319.564 870.043 319.715 870.295 319.771 C 870.546 319.827 870.81 319.783 871.03 319.65 L 874.97 317.18 C 875.119 317.083 875.239 316.948 875.318 316.789 C 875.398 316.63 875.433 316.452 875.421 316.275 C 875.409 316.098 875.35 315.927 875.25 315.78 Z"
        fill="#000000"
        fill-opacity="0.1"
        stroke-opacity="0.1"/>
    <path
        id="path_205"
        d="M 868.21 320.66 L 865.69 317.06 C 865.539 316.851 865.313 316.709 865.06 316.662 C 864.807 316.615 864.545 316.669 864.33 316.81 L 860.61 319.29 C 860.399 319.436 860.252 319.658 860.2 319.909 C 860.148 320.16 860.195 320.422 860.33 320.64 L 862.64 324.19 C 862.785 324.403 863.006 324.551 863.257 324.605 C 863.508 324.659 863.771 324.614 863.99 324.48 L 867.93 322.01 C 868.141 321.864 868.288 321.642 868.34 321.391 C 868.392 321.14 868.345 320.878 868.21 320.66 Z"
        fill="#000000"
        fill-opacity="0.1"
        stroke-opacity="0.1"/>
    <path
        id="path_206"
        d="M 861.08 325.59 L 858.56 322 C 858.411 321.792 858.188 321.65 857.937 321.601 C 857.686 321.553 857.426 321.603 857.21 321.74 L 853.48 324.29 C 853.271 324.438 853.126 324.66 853.076 324.911 C 853.025 325.162 853.074 325.423 853.21 325.64 L 855.52 329.19 C 855.663 329.404 855.883 329.555 856.135 329.611 C 856.386 329.667 856.65 329.623 856.87 329.49 L 860.8 327.01 C 860.953 326.913 861.076 326.776 861.157 326.614 C 861.238 326.453 861.274 326.272 861.26 326.092 C 861.247 325.911 861.184 325.738 861.08 325.59 Z"
        fill="#000000"
        fill-opacity="0.1"
        stroke-opacity="0.1"/>
    <path
        id="path_207"
        d="M 863.65 344.52 L 861.13 340.93 C 860.981 340.722 860.758 340.58 860.507 340.531 C 860.256 340.483 859.996 340.533 859.78 340.67 L 856.08 343.19 C 855.871 343.338 855.726 343.56 855.676 343.811 C 855.625 344.062 855.674 344.323 855.81 344.54 L 858.08 348.09 C 858.223 348.302 858.441 348.451 858.69 348.506 C 858.939 348.562 859.201 348.52 859.42 348.39 L 863.36 345.91 C 863.508 345.814 863.628 345.68 863.708 345.523 C 863.787 345.366 863.824 345.19 863.814 345.014 C 863.804 344.838 863.747 344.667 863.65 344.52 Z"
        fill="#000000"
        fill-opacity="0.1"
        stroke-opacity="0.1"/>
    <path
        id="path_208"
        d="M 856.53 349.45 L 854.01 345.86 C 853.859 345.651 853.633 345.509 853.38 345.462 C 853.127 345.415 852.865 345.469 852.65 345.61 L 848.93 348.12 C 848.719 348.266 848.572 348.488 848.52 348.739 C 848.468 348.99 848.515 349.252 848.65 349.47 L 850.96 353.02 C 851.103 353.234 851.323 353.385 851.575 353.441 C 851.826 353.497 852.09 353.453 852.31 353.32 L 856.25 350.85 C 856.399 350.753 856.519 350.618 856.598 350.459 C 856.678 350.3 856.713 350.122 856.701 349.945 C 856.689 349.768 856.63 349.597 856.53 349.45 Z"
        fill="#000000"
        fill-opacity="0.1"
        stroke-opacity="0.1"/>
    <path
        id="path_209"
        d="M 849.72 354.83 L 846.59 350.37 C 846.546 350.304 846.484 350.25 846.413 350.215 C 846.341 350.181 846.261 350.165 846.182 350.171 C 846.102 350.178 846.026 350.205 845.96 350.25 L 841.38 353.34 C 841.313 353.383 841.258 353.444 841.222 353.515 C 841.186 353.587 841.169 353.667 841.174 353.746 C 841.179 353.826 841.205 353.904 841.25 353.97 L 844.12 358.38 C 844.162 358.448 844.222 358.504 844.293 358.542 C 844.364 358.579 844.444 358.597 844.525 358.593 C 844.605 358.589 844.683 358.564 844.75 358.52 L 849.59 355.52 C 849.668 355.476 849.731 355.41 849.772 355.331 C 849.813 355.251 849.83 355.161 849.82 355.073 C 849.811 354.984 849.776 354.899 849.72 354.83 Z"
        fill="#000000"
        fill-opacity="0.1"
        stroke-opacity="0.1"/>
    <path
        id="path_210"
        d="M 843.41 359.2 L 840.28 354.73 C 840.21 354.634 840.105 354.568 839.987 354.548 C 839.87 354.527 839.749 354.553 839.65 354.62 L 835.08 357.7 C 834.98 357.769 834.91 357.874 834.886 357.994 C 834.861 358.113 834.885 358.237 834.95 358.34 L 837.82 362.75 C 837.887 362.849 837.99 362.919 838.107 362.945 C 838.224 362.971 838.347 362.951 838.45 362.89 L 843.29 359.89 C 843.371 359.848 843.436 359.783 843.478 359.702 C 843.52 359.622 843.536 359.53 843.524 359.44 C 843.511 359.35 843.472 359.266 843.41 359.2 Z"
        fill="#000000"
        fill-opacity="0.1"
        stroke-opacity="0.1"/>
    <path
        id="path_211"
        d="M 836.35 364.08 L 833.22 359.62 C 833.15 359.524 833.045 359.458 832.927 359.438 C 832.81 359.417 832.689 359.443 832.59 359.51 L 828.01 362.59 C 827.943 362.633 827.888 362.694 827.852 362.765 C 827.816 362.837 827.799 362.917 827.804 362.996 C 827.809 363.076 827.835 363.154 827.88 363.22 L 830.75 367.64 C 830.817 367.739 830.92 367.809 831.037 367.835 C 831.154 367.861 831.277 367.841 831.38 367.78 L 836.22 364.78 C 836.298 364.734 836.361 364.667 836.402 364.587 C 836.443 364.506 836.46 364.416 836.451 364.326 C 836.442 364.236 836.407 364.151 836.35 364.08 Z"
        fill="#000000"
        fill-opacity="0.1"
        stroke-opacity="0.1"/>
    <path
        id="path_212"
        d="M 829.51 368.82 L 826.38 364.36 C 826.336 364.294 826.274 364.24 826.203 364.205 C 826.131 364.171 826.051 364.155 825.972 364.161 C 825.892 364.168 825.816 364.195 825.75 364.24 L 821.17 367.29 C 821.103 367.333 821.048 367.394 821.012 367.465 C 820.976 367.537 820.959 367.617 820.964 367.696 C 820.969 367.776 820.995 367.854 821.04 367.92 L 823.91 372.33 C 823.976 372.431 824.079 372.503 824.196 372.529 C 824.314 372.555 824.438 372.534 824.54 372.47 L 829.38 369.47 C 829.45 369.425 829.506 369.363 829.543 369.289 C 829.58 369.215 829.597 369.132 829.591 369.05 C 829.585 368.967 829.557 368.888 829.51 368.82 Z"
        fill="#000000"
        fill-opacity="0.1"
        stroke-opacity="0.1"/>
    <path
        id="path_213"
        d="M 873.21 327.88 L 870.69 324.29 C 870.539 324.084 870.316 323.943 870.065 323.897 C 869.814 323.85 869.554 323.902 869.34 324.04 L 865.61 326.56 C 865.401 326.708 865.256 326.93 865.206 327.181 C 865.155 327.432 865.204 327.693 865.34 327.91 L 867.65 331.46 C 867.794 331.67 868.014 331.817 868.262 331.871 C 868.511 331.925 868.772 331.881 868.99 331.75 L 872.93 329.28 C 873.079 329.183 873.199 329.048 873.278 328.889 C 873.358 328.73 873.393 328.552 873.381 328.375 C 873.369 328.198 873.31 328.027 873.21 327.88 Z"
        fill="#000000"
        fill-opacity="0.1"
        stroke-opacity="0.1"/>
    <path
        id="path_214"
        d="M 866.08 332.82 L 863.56 329.22 C 863.409 329.011 863.183 328.869 862.93 328.822 C 862.677 328.775 862.415 328.829 862.2 328.97 L 858.48 331.49 C 858.269 331.636 858.122 331.858 858.07 332.109 C 858.018 332.36 858.065 332.622 858.2 332.84 L 860.51 336.39 C 860.653 336.604 860.873 336.755 861.125 336.811 C 861.376 336.867 861.64 336.823 861.86 336.69 L 865.8 334.21 C 865.947 334.113 866.066 333.979 866.144 333.821 C 866.222 333.663 866.258 333.488 866.247 333.312 C 866.235 333.136 866.178 332.966 866.08 332.82 Z"
        fill="#000000"
        fill-opacity="0.1"
        stroke-opacity="0.1"/>
    <path
        id="path_215"
        d="M 858.97 337.75 L 856.45 334.16 C 856.299 333.951 856.073 333.809 855.82 333.762 C 855.567 333.715 855.305 333.769 855.09 333.91 L 851.36 336.42 C 851.151 336.568 851.006 336.79 850.956 337.041 C 850.905 337.292 850.954 337.553 851.09 337.77 L 853.4 341.32 C 853.543 341.534 853.763 341.685 854.015 341.741 C 854.266 341.797 854.53 341.753 854.75 341.62 L 858.68 339.14 C 858.828 339.044 858.948 338.91 859.028 338.753 C 859.107 338.596 859.144 338.42 859.134 338.244 C 859.124 338.068 859.067 337.897 858.97 337.75 Z"
        fill="#000000"
        fill-opacity="0.1"
        stroke-opacity="0.1"/>
    <path
        id="path_216"
        d="M 851.84 342.68 L 849.32 339.09 C 849.169 338.884 848.946 338.743 848.695 338.697 C 848.444 338.65 848.184 338.702 847.97 338.84 L 844.24 341.35 C 844.031 341.498 843.886 341.72 843.836 341.971 C 843.785 342.222 843.834 342.483 843.97 342.7 L 846.28 346.29 C 846.423 346.502 846.641 346.651 846.89 346.706 C 847.139 346.762 847.401 346.72 847.62 346.59 L 851.56 344.12 C 851.716 344.023 851.843 343.885 851.926 343.72 C 852.009 343.556 852.045 343.371 852.029 343.188 C 852.014 343.004 851.949 342.829 851.84 342.68 Z"
        fill="#000000"
        fill-opacity="0.1"
        stroke-opacity="0.1"/>
    <path
        id="path_217"
        d="M 845.08 348.06 L 841.95 343.6 C 841.906 343.534 841.844 343.48 841.773 343.445 C 841.701 343.411 841.621 343.395 841.542 343.401 C 841.462 343.408 841.386 343.435 841.32 343.48 L 836.74 346.57 C 836.64 346.637 836.571 346.741 836.547 346.858 C 836.522 346.976 836.545 347.099 836.61 347.2 L 839.48 351.62 C 839.523 351.687 839.584 351.742 839.655 351.778 C 839.727 351.814 839.807 351.831 839.886 351.826 C 839.966 351.821 840.044 351.795 840.11 351.75 L 844.95 348.75 C 845.028 348.706 845.091 348.64 845.132 348.561 C 845.173 348.481 845.19 348.391 845.18 348.303 C 845.171 348.214 845.136 348.129 845.08 348.06 Z"
        fill="#000000"
        fill-opacity="0.1"
        stroke-opacity="0.1"/>
    <path
        id="path_218"
        d="M 838.73 352.43 L 835.6 347.96 C 835.528 347.863 835.421 347.797 835.302 347.777 C 835.183 347.756 835.06 347.782 834.96 347.85 L 830.39 350.93 C 830.29 350.999 830.22 351.104 830.196 351.224 C 830.171 351.343 830.195 351.467 830.26 351.57 L 833.13 355.98 C 833.196 356.081 833.299 356.153 833.416 356.179 C 833.534 356.205 833.658 356.184 833.76 356.12 L 838.6 353.12 C 838.678 353.076 838.741 353.01 838.782 352.931 C 838.823 352.851 838.84 352.761 838.83 352.673 C 838.821 352.584 838.786 352.499 838.73 352.43 Z"
        fill="#000000"
        fill-opacity="0.1"
        stroke-opacity="0.1"/>
    <path
        id="path_219"
        d="M 831.67 357.29 L 828.54 352.82 C 828.468 352.723 828.361 352.657 828.242 352.637 C 828.123 352.616 828 352.642 827.9 352.71 L 823.32 355.79 C 823.222 355.861 823.153 355.966 823.129 356.084 C 823.105 356.203 823.127 356.327 823.19 356.43 L 826.07 360.84 C 826.136 360.941 826.239 361.013 826.356 361.039 C 826.474 361.065 826.598 361.044 826.7 360.98 L 831.53 357.98 C 831.611 357.939 831.677 357.874 831.72 357.795 C 831.764 357.715 831.782 357.625 831.773 357.535 C 831.764 357.445 831.728 357.359 831.67 357.29 Z"
        fill="#000000"
        fill-opacity="0.1"
        stroke-opacity="0.1"/>
    <path
        id="path_220"
        d="M 824.83 362.05 L 821.7 357.59 C 821.654 357.523 821.592 357.47 821.519 357.435 C 821.446 357.4 821.365 357.385 821.285 357.391 C 821.204 357.397 821.127 357.424 821.06 357.47 L 816.48 360.56 C 816.382 360.629 816.315 360.733 816.292 360.851 C 816.27 360.968 816.294 361.09 816.36 361.19 L 819.23 365.6 C 819.271 365.67 819.33 365.727 819.402 365.766 C 819.473 365.804 819.554 365.822 819.634 365.817 C 819.715 365.813 819.793 365.786 819.86 365.74 L 824.69 362.74 C 824.771 362.699 824.837 362.634 824.88 362.555 C 824.924 362.475 824.942 362.385 824.933 362.295 C 824.924 362.205 824.888 362.119 824.83 362.05 Z"
        fill="#000000"
        fill-opacity="0.1"
        stroke-opacity="0.1"/>
    <path
        id="path_221"
        d="M 822.67 373.55 L 819.54 369.09 C 819.47 368.994 819.365 368.928 819.247 368.908 C 819.13 368.887 819.009 368.913 818.91 368.98 L 814.33 372.06 C 814.263 372.103 814.208 372.164 814.172 372.235 C 814.136 372.307 814.119 372.387 814.124 372.466 C 814.129 372.546 814.155 372.624 814.2 372.69 L 817.07 377.11 C 817.137 377.209 817.24 377.279 817.357 377.305 C 817.474 377.331 817.597 377.311 817.7 377.25 L 822.54 374.25 C 822.618 374.204 822.681 374.137 822.722 374.057 C 822.763 373.976 822.78 373.886 822.771 373.796 C 822.762 373.706 822.727 373.621 822.67 373.55 Z"
        fill="#000000"
        fill-opacity="0.1"
        stroke-opacity="0.1"/>
    <path
        id="path_222"
        d="M 815.83 378.29 L 812.7 373.83 C 812.656 373.764 812.594 373.71 812.523 373.675 C 812.451 373.641 812.371 373.625 812.292 373.631 C 812.212 373.638 812.136 373.665 812.07 373.71 L 807.49 376.8 C 807.423 376.843 807.368 376.904 807.332 376.975 C 807.296 377.047 807.279 377.127 807.284 377.206 C 807.289 377.286 807.315 377.364 807.36 377.43 L 810.23 381.84 C 810.296 381.941 810.399 382.013 810.516 382.039 C 810.634 382.065 810.758 382.044 810.86 381.98 L 815.7 378.98 C 815.778 378.936 815.841 378.87 815.882 378.791 C 815.923 378.711 815.94 378.621 815.93 378.533 C 815.921 378.444 815.886 378.359 815.83 378.29 Z"
        fill="#000000"
        fill-opacity="0.1"
        stroke-opacity="0.1"/>
    <path
        id="path_223"
        d="M 826.57 349.95 L 823.57 345.75 C 823.476 345.62 823.334 345.531 823.175 345.503 C 823.017 345.475 822.853 345.51 822.72 345.6 L 818.4 348.51 C 818.31 348.569 818.237 348.651 818.19 348.748 C 818.142 348.844 818.12 348.952 818.127 349.059 C 818.134 349.167 818.17 349.271 818.23 349.36 L 820.93 353.51 C 820.986 353.602 821.065 353.677 821.16 353.727 C 821.255 353.778 821.362 353.802 821.469 353.797 C 821.576 353.792 821.68 353.759 821.77 353.7 L 826.34 350.83 C 826.441 350.776 826.524 350.695 826.582 350.597 C 826.64 350.498 826.669 350.386 826.667 350.272 C 826.665 350.158 826.631 350.046 826.57 349.95 Z"
        fill="#000000"
        fill-opacity="0.1"
        stroke-opacity="0.1"/>
    <path
        id="path_224"
        d="M 819.73 354.69 L 816.78 350.49 C 816.72 350.401 816.637 350.33 816.54 350.283 C 816.443 350.237 816.336 350.216 816.229 350.225 C 816.122 350.233 816.019 350.269 815.93 350.33 L 811.61 353.29 C 811.521 353.348 811.448 353.429 811.4 353.524 C 811.352 353.62 811.331 353.726 811.338 353.833 C 811.345 353.939 811.38 354.042 811.44 354.13 L 814.14 358.29 C 814.228 358.424 814.365 358.519 814.522 358.555 C 814.678 358.59 814.843 358.563 814.98 358.48 L 819.55 355.61 C 819.653 355.551 819.737 355.463 819.792 355.358 C 819.847 355.252 819.87 355.133 819.859 355.015 C 819.848 354.896 819.803 354.784 819.73 354.69 Z"
        fill="#000000"
        fill-opacity="0.1"
        stroke-opacity="0.1"/>
    <path
        id="path_225"
        d="M 812.89 359.43 L 809.94 355.22 C 809.846 355.09 809.704 355.001 809.545 354.973 C 809.387 354.945 809.223 354.98 809.09 355.07 L 804.77 357.98 C 804.68 358.039 804.607 358.121 804.56 358.218 C 804.512 358.314 804.49 358.422 804.497 358.529 C 804.504 358.637 804.54 358.741 804.6 358.83 L 807.3 362.98 C 807.356 363.072 807.435 363.147 807.53 363.197 C 807.625 363.248 807.732 363.272 807.839 363.267 C 807.946 363.262 808.05 363.229 808.14 363.17 L 812.71 360.3 C 812.805 360.242 812.882 360.159 812.933 360.06 C 812.984 359.961 813.007 359.85 812.999 359.739 C 812.992 359.628 812.954 359.521 812.89 359.43 Z"
        fill="#000000"
        fill-opacity="0.1"
        stroke-opacity="0.1"/>
    <path
        id="path_226"
        d="M 806.14 364.29 L 803.01 359.82 C 802.94 359.724 802.835 359.658 802.717 359.638 C 802.6 359.617 802.479 359.643 802.38 359.71 L 797.8 362.79 C 797.7 362.859 797.63 362.964 797.606 363.084 C 797.581 363.203 797.605 363.327 797.67 363.43 L 800.54 367.84 C 800.607 367.939 800.71 368.009 800.827 368.035 C 800.944 368.061 801.067 368.041 801.17 367.98 L 806.01 364.98 C 806.092 364.94 806.159 364.875 806.202 364.795 C 806.245 364.714 806.262 364.623 806.251 364.532 C 806.24 364.442 806.201 364.357 806.14 364.29 Z"
        fill="#000000"
        fill-opacity="0.1"
        stroke-opacity="0.1"/>
    <path
        id="path_227"
        d="M 887.08 318.14 L 884.37 314.29 C 884.218 314.083 883.991 313.942 883.738 313.898 C 883.485 313.853 883.224 313.907 883.01 314.05 L 872.43 321.46 C 872.225 321.609 872.084 321.83 872.036 322.079 C 871.988 322.327 872.036 322.585 872.17 322.8 L 874.72 326.74 C 874.818 326.886 874.953 327.003 875.111 327.08 C 875.269 327.158 875.445 327.192 875.62 327.179 C 875.795 327.167 875.964 327.109 876.11 327.01 L 886.85 319.5 C 887.056 319.346 887.194 319.119 887.237 318.866 C 887.28 318.613 887.224 318.353 887.08 318.14 Z"
        fill="#000000"
        fill-opacity="0.1"
        stroke-opacity="0.1"/>
    <path
        id="path_228"
        d="M 817.97 366.64 L 814.65 361.95 C 814.605 361.883 814.542 361.829 814.468 361.795 C 814.395 361.76 814.314 361.746 814.233 361.754 C 814.152 361.762 814.075 361.792 814.01 361.84 L 802.59 369.84 C 802.493 369.907 802.425 370.009 802.403 370.125 C 802.381 370.241 802.405 370.362 802.47 370.46 L 805.59 375.29 C 805.635 375.36 805.697 375.416 805.771 375.453 C 805.845 375.49 805.928 375.507 806.01 375.501 C 806.093 375.495 806.172 375.467 806.24 375.42 L 817.85 367.29 C 817.952 367.219 818.021 367.111 818.044 366.99 C 818.066 366.868 818.04 366.742 817.97 366.64 Z"
        fill="#000000"
        fill-opacity="0.1"
        stroke-opacity="0.1"/>
    <path
        id="path_229"
        d="M 854.3 330.77 L 851.24 326.29 C 851.171 326.192 851.067 326.125 850.949 326.102 C 850.832 326.08 850.71 326.104 850.61 326.17 L 825.25 343.29 C 825.15 343.357 825.081 343.461 825.057 343.578 C 825.032 343.696 825.055 343.819 825.12 343.92 L 828.25 348.72 C 828.295 348.79 828.357 348.846 828.431 348.883 C 828.505 348.92 828.588 348.937 828.67 348.931 C 828.753 348.925 828.832 348.897 828.9 348.85 L 854.18 331.41 C 854.247 331.364 854.3 331.302 854.335 331.229 C 854.37 331.156 854.385 331.075 854.379 330.995 C 854.373 330.914 854.346 330.837 854.3 330.77 Z"
        fill="#000000"
        fill-opacity="0.1"
        stroke-opacity="0.1"/>
    <path
        id="path_230"
        d="M 896.82 331.77 L 894.3 328.17 C 894.149 327.961 893.923 327.819 893.67 327.772 C 893.417 327.725 893.155 327.779 892.94 327.92 L 889.22 330.44 C 889.009 330.586 888.862 330.808 888.81 331.059 C 888.758 331.31 888.805 331.572 888.94 331.79 L 891.25 335.34 C 891.393 335.554 891.613 335.705 891.865 335.761 C 892.116 335.817 892.38 335.773 892.6 335.64 L 896.54 333.16 C 896.687 333.063 896.806 332.929 896.884 332.771 C 896.962 332.613 896.998 332.438 896.987 332.262 C 896.975 332.086 896.918 331.916 896.82 331.77 Z"
        fill="#464a5f"/>
    <path
        id="path_231"
        d="M 890.08 336.41 L 887.56 332.82 C 887.409 332.614 887.186 332.473 886.935 332.427 C 886.684 332.38 886.424 332.432 886.21 332.57 L 882.48 335.08 C 882.269 335.226 882.122 335.448 882.07 335.699 C 882.018 335.95 882.065 336.212 882.2 336.43 L 884.51 339.98 C 884.653 340.194 884.873 340.345 885.125 340.401 C 885.376 340.457 885.64 340.413 885.86 340.28 L 889.8 337.81 C 889.949 337.713 890.069 337.578 890.148 337.419 C 890.228 337.26 890.263 337.082 890.251 336.905 C 890.239 336.728 890.18 336.557 890.08 336.41 Z"
        fill="#464a5f"/>
    <path
        id="path_232"
        d="M 883.08 341.29 L 880.56 337.7 C 880.409 337.491 880.183 337.349 879.93 337.302 C 879.677 337.255 879.415 337.309 879.2 337.45 L 875.48 339.97 C 875.269 340.116 875.122 340.338 875.07 340.589 C 875.018 340.84 875.065 341.102 875.2 341.32 L 877.51 344.87 C 877.655 345.083 877.876 345.231 878.127 345.285 C 878.378 345.339 878.641 345.294 878.86 345.16 L 882.8 342.69 C 882.949 342.593 883.069 342.458 883.148 342.299 C 883.228 342.14 883.263 341.962 883.251 341.785 C 883.239 341.608 883.18 341.437 883.08 341.29 Z"
        fill="#464a5f"/>
    <path
        id="path_233"
        d="M 875.94 346.22 L 873.42 342.62 C 873.269 342.414 873.046 342.273 872.795 342.227 C 872.544 342.18 872.284 342.232 872.07 342.37 L 868.34 344.89 C 868.193 344.989 868.076 345.126 867.999 345.285 C 867.922 345.445 867.889 345.622 867.904 345.799 C 867.918 345.975 867.979 346.145 868.08 346.29 L 870.39 349.84 C 870.533 350.054 870.753 350.205 871.005 350.261 C 871.256 350.317 871.52 350.273 871.74 350.14 L 875.67 347.66 C 875.825 347.562 875.951 347.423 876.032 347.258 C 876.114 347.093 876.148 346.909 876.132 346.726 C 876.116 346.543 876.049 346.368 875.94 346.22 Z"
        fill="#464a5f"/>
    <path
        id="path_234"
        d="M 868.82 351.15 L 866.3 347.56 C 866.149 347.354 865.926 347.213 865.675 347.167 C 865.424 347.12 865.164 347.172 864.95 347.31 L 861.22 349.82 C 861.011 349.968 860.866 350.19 860.816 350.441 C 860.765 350.692 860.814 350.953 860.95 351.17 L 863.25 354.72 C 863.393 354.934 863.613 355.085 863.865 355.141 C 864.116 355.197 864.38 355.153 864.6 355.02 L 868.54 352.54 C 868.687 352.443 868.806 352.309 868.884 352.151 C 868.962 351.993 868.998 351.818 868.987 351.642 C 868.975 351.466 868.918 351.296 868.82 351.15 Z"
        fill="#464a5f"/>
    <path
        id="path_235"
        d="M 862.01 356.53 L 858.88 352.07 C 858.836 352.004 858.774 351.95 858.703 351.915 C 858.631 351.881 858.551 351.865 858.472 351.871 C 858.392 351.878 858.316 351.905 858.25 351.95 L 853.67 355.04 C 853.603 355.083 853.548 355.144 853.512 355.215 C 853.476 355.287 853.459 355.367 853.464 355.446 C 853.469 355.526 853.495 355.604 853.54 355.67 L 856.41 360.08 C 856.476 360.181 856.579 360.253 856.696 360.279 C 856.814 360.305 856.938 360.284 857.04 360.22 L 861.88 357.22 C 861.958 357.176 862.021 357.11 862.062 357.031 C 862.103 356.951 862.12 356.861 862.11 356.773 C 862.101 356.684 862.066 356.599 862.01 356.53 Z"
        fill="#464a5f"/>
    <path
        id="path_236"
        d="M 854.89 361.46 L 851.76 357 C 851.714 356.933 851.652 356.88 851.579 356.845 C 851.506 356.81 851.425 356.795 851.345 356.801 C 851.264 356.807 851.187 356.834 851.12 356.88 L 846.55 359.97 C 846.483 360.013 846.428 360.074 846.392 360.145 C 846.356 360.217 846.339 360.297 846.344 360.376 C 846.349 360.456 846.375 360.534 846.42 360.6 L 849.29 365.02 C 849.333 365.087 849.394 365.142 849.465 365.178 C 849.537 365.214 849.617 365.231 849.696 365.226 C 849.776 365.221 849.854 365.195 849.92 365.15 L 854.76 362.15 C 854.836 362.104 854.898 362.038 854.938 361.959 C 854.977 361.88 854.994 361.791 854.986 361.703 C 854.977 361.614 854.944 361.53 854.89 361.46 Z"
        fill="#464a5f"/>
    <path
        id="path_237"
        d="M 848.58 365.83 L 845.45 361.36 C 845.38 361.264 845.275 361.198 845.157 361.178 C 845.04 361.157 844.919 361.183 844.82 361.25 L 840.24 364.29 C 840.14 364.359 840.07 364.464 840.046 364.584 C 840.021 364.703 840.045 364.827 840.11 364.93 L 842.98 369.34 C 843.047 369.439 843.15 369.509 843.267 369.535 C 843.384 369.561 843.507 369.541 843.61 369.48 L 848.45 366.48 C 848.52 366.435 848.576 366.373 848.613 366.299 C 848.65 366.225 848.667 366.142 848.661 366.06 C 848.655 365.977 848.627 365.898 848.58 365.83 Z"
        fill="#464a5f"/>
    <path
        id="path_238"
        d="M 841.52 370.72 L 838.39 366.29 C 838.32 366.194 838.215 366.128 838.097 366.108 C 837.98 366.087 837.859 366.113 837.76 366.18 L 833.18 369.26 C 833.112 369.305 833.057 369.366 833.021 369.439 C 832.985 369.511 832.968 369.592 832.973 369.673 C 832.979 369.754 833.005 369.833 833.05 369.9 L 835.92 374.31 C 835.987 374.409 836.09 374.479 836.207 374.505 C 836.324 374.531 836.447 374.511 836.55 374.45 L 841.39 371.45 C 841.477 371.407 841.548 371.338 841.593 371.253 C 841.638 371.168 841.656 371.07 841.643 370.975 C 841.63 370.879 841.587 370.79 841.52 370.72 Z"
        fill="#464a5f"/>
    <path
        id="path_239"
        d="M 834.68 375.45 L 831.55 370.99 C 831.506 370.924 831.444 370.87 831.373 370.835 C 831.301 370.801 831.221 370.785 831.142 370.791 C 831.062 370.798 830.986 370.825 830.92 370.87 L 826.34 373.96 C 826.273 374.003 826.218 374.064 826.182 374.135 C 826.146 374.207 826.129 374.287 826.134 374.366 C 826.139 374.446 826.165 374.524 826.21 374.59 L 829.08 379 C 829.122 379.068 829.182 379.124 829.253 379.162 C 829.324 379.199 829.404 379.217 829.485 379.213 C 829.565 379.209 829.643 379.184 829.71 379.14 L 834.55 376.14 C 834.628 376.096 834.691 376.03 834.732 375.951 C 834.773 375.871 834.79 375.781 834.78 375.693 C 834.771 375.604 834.736 375.519 834.68 375.45 Z"
        fill="#464a5f"/>
    <path
        id="path_240"
        d="M 827.84 380.19 L 824.71 375.72 C 824.64 375.624 824.535 375.558 824.417 375.538 C 824.3 375.517 824.179 375.543 824.08 375.61 L 819.5 378.69 C 819.4 378.759 819.33 378.864 819.306 378.984 C 819.281 379.103 819.305 379.227 819.37 379.33 L 822.24 383.74 C 822.307 383.839 822.41 383.909 822.527 383.935 C 822.644 383.961 822.767 383.941 822.87 383.88 L 827.71 380.88 C 827.788 380.836 827.851 380.77 827.892 380.691 C 827.933 380.611 827.95 380.521 827.94 380.433 C 827.931 380.344 827.896 380.259 827.84 380.19 Z"
        fill="#464a5f"/>
    <path
        id="path_241"
        d="M 821 384.92 L 817.87 380.46 C 817.826 380.394 817.764 380.34 817.693 380.305 C 817.621 380.271 817.541 380.255 817.462 380.261 C 817.382 380.268 817.306 380.295 817.24 380.34 L 812.66 383.43 C 812.593 383.473 812.538 383.534 812.502 383.605 C 812.466 383.677 812.449 383.757 812.454 383.836 C 812.459 383.916 812.485 383.994 812.53 384.06 L 815.4 388.47 C 815.442 388.538 815.502 388.594 815.573 388.632 C 815.644 388.669 815.724 388.687 815.805 388.683 C 815.885 388.679 815.963 388.654 816.03 388.61 L 820.87 385.61 C 820.948 385.566 821.011 385.5 821.052 385.421 C 821.093 385.341 821.11 385.251 821.1 385.163 C 821.091 385.074 821.056 384.989 821 384.92 Z"
        fill="#464a5f"/>
    <path
        id="path_242"
        d="M 892.31 325.29 L 889.79 321.69 C 889.639 321.484 889.416 321.343 889.165 321.297 C 888.914 321.25 888.654 321.302 888.44 321.44 L 884.71 323.96 C 884.501 324.108 884.356 324.33 884.306 324.581 C 884.255 324.832 884.304 325.093 884.44 325.31 L 886.74 328.86 C 886.883 329.074 887.103 329.225 887.355 329.281 C 887.606 329.337 887.87 329.293 888.09 329.16 L 892.03 326.68 C 892.177 326.583 892.296 326.449 892.374 326.291 C 892.452 326.133 892.488 325.958 892.477 325.782 C 892.465 325.606 892.408 325.436 892.31 325.29 Z"
        fill="#464a5f"/>
    <path
        id="path_243"
        d="M 882.46 311.03 L 879.94 307.44 C 879.789 307.234 879.566 307.093 879.315 307.047 C 879.064 307 878.804 307.052 878.59 307.19 L 874.86 309.7 C 874.651 309.848 874.506 310.07 874.456 310.321 C 874.405 310.572 874.454 310.833 874.59 311.05 L 876.9 314.6 C 877.043 314.812 877.261 314.961 877.51 315.016 C 877.759 315.072 878.021 315.03 878.24 314.9 L 882.18 312.43 C 882.329 312.333 882.449 312.198 882.528 312.039 C 882.608 311.88 882.643 311.702 882.631 311.525 C 882.619 311.348 882.56 311.177 882.46 311.03 Z"
        fill="#464a5f"/>
    <path
        id="path_244"
        d="M 885.6 329.9 L 883.08 326.29 C 882.929 326.084 882.706 325.943 882.455 325.897 C 882.204 325.85 881.944 325.902 881.73 326.04 L 878 328.55 C 877.791 328.698 877.646 328.92 877.596 329.171 C 877.545 329.422 877.594 329.683 877.73 329.9 L 880.04 333.45 C 880.183 333.662 880.401 333.811 880.65 333.866 C 880.899 333.922 881.161 333.88 881.38 333.75 L 885.32 331.28 C 885.539 331.133 885.692 330.906 885.744 330.648 C 885.796 330.389 885.745 330.12 885.6 329.9 Z"
        fill="#464a5f"/>
    <path
        id="path_245"
        d="M 878.56 334.77 L 876.08 331.18 C 875.929 330.974 875.706 330.833 875.455 330.787 C 875.204 330.74 874.944 330.792 874.73 330.93 L 871 333.44 C 870.788 333.588 870.641 333.812 870.591 334.066 C 870.541 334.319 870.591 334.582 870.73 334.8 L 873.03 338.35 C 873.175 338.563 873.396 338.711 873.647 338.765 C 873.898 338.819 874.161 338.774 874.38 338.64 L 878.32 336.17 C 878.465 336.069 878.58 335.931 878.654 335.771 C 878.728 335.61 878.758 335.433 878.742 335.258 C 878.725 335.082 878.663 334.914 878.56 334.77 Z"
        fill="#464a5f"/>
    <path
        id="path_246"
        d="M 871.44 339.71 L 868.92 336.11 C 868.769 335.901 868.543 335.759 868.29 335.712 C 868.037 335.665 867.775 335.719 867.56 335.86 L 863.84 338.38 C 863.629 338.526 863.482 338.748 863.43 338.999 C 863.378 339.25 863.425 339.512 863.56 339.73 L 865.87 343.28 C 866.013 343.494 866.233 343.645 866.485 343.701 C 866.736 343.757 867 343.713 867.22 343.58 L 871.16 341.1 C 871.307 341.003 871.426 340.869 871.504 340.711 C 871.582 340.553 871.618 340.378 871.607 340.202 C 871.595 340.026 871.538 339.856 871.44 339.71 Z"
        fill="#464a5f"/>
    <path
        id="path_247"
        d="M 875.91 315.9 L 873.39 312.29 C 873.239 312.084 873.016 311.943 872.765 311.897 C 872.514 311.85 872.254 311.902 872.04 312.04 L 868.31 314.55 C 868.101 314.698 867.956 314.92 867.906 315.171 C 867.855 315.422 867.904 315.683 868.04 315.9 L 870.35 319.45 C 870.493 319.662 870.711 319.811 870.96 319.866 C 871.209 319.922 871.471 319.88 871.69 319.75 L 875.63 317.28 C 875.849 317.133 876.002 316.906 876.054 316.648 C 876.106 316.389 876.055 316.12 875.91 315.9 Z"
        fill="#464a5f"/>
    <path
        id="path_248"
        d="M 868.87 320.78 L 866.35 317.18 C 866.199 316.974 865.976 316.833 865.725 316.787 C 865.474 316.74 865.214 316.792 865 316.93 L 861.27 319.45 C 861.059 319.596 860.912 319.818 860.86 320.069 C 860.808 320.32 860.855 320.582 860.99 320.8 L 863.3 324.35 C 863.443 324.564 863.663 324.715 863.915 324.771 C 864.166 324.827 864.43 324.783 864.65 324.65 L 868.59 322.17 C 868.737 322.073 868.856 321.939 868.934 321.781 C 869.012 321.623 869.048 321.448 869.037 321.272 C 869.025 321.096 868.968 320.926 868.87 320.78 Z"
        fill="#464a5f"/>
    <path
        id="path_249"
        d="M 861.75 325.71 L 859.23 322.12 C 859.079 321.911 858.853 321.769 858.6 321.722 C 858.347 321.675 858.085 321.729 857.87 321.87 L 854.15 324.38 C 853.939 324.526 853.792 324.748 853.74 324.999 C 853.688 325.25 853.735 325.512 853.87 325.73 L 856.18 329.29 C 856.323 329.504 856.543 329.655 856.795 329.711 C 857.046 329.767 857.31 329.723 857.53 329.59 L 861.46 327.11 C 861.61 327.014 861.731 326.88 861.812 326.721 C 861.893 326.562 861.929 326.385 861.918 326.207 C 861.908 326.029 861.849 325.858 861.75 325.71 Z"
        fill="#464a5f"/>
    <path
        id="path_250"
        d="M 864.31 344.64 L 861.79 341.05 C 861.639 340.844 861.416 340.703 861.165 340.657 C 860.914 340.61 860.654 340.662 860.44 340.8 L 856.71 343.29 C 856.501 343.438 856.356 343.66 856.306 343.911 C 856.255 344.162 856.304 344.423 856.44 344.64 L 858.75 348.19 C 858.893 348.402 859.111 348.551 859.36 348.606 C 859.609 348.662 859.871 348.62 860.09 348.49 L 864.03 346.01 C 864.246 345.864 864.397 345.638 864.449 345.382 C 864.502 345.126 864.452 344.86 864.31 344.64 Z"
        fill="#464a5f"/>
    <path
        id="path_251"
        d="M 857.19 349.57 L 854.67 345.98 C 854.519 345.774 854.296 345.633 854.045 345.587 C 853.794 345.54 853.534 345.592 853.32 345.73 L 849.59 348.29 C 849.379 348.436 849.232 348.658 849.18 348.909 C 849.128 349.16 849.175 349.422 849.31 349.64 L 851.62 353.19 C 851.763 353.404 851.983 353.555 852.235 353.611 C 852.486 353.667 852.75 353.623 852.97 353.49 L 856.91 351.02 C 857.068 350.923 857.197 350.784 857.28 350.618 C 857.364 350.452 857.4 350.266 857.384 350.081 C 857.368 349.896 857.301 349.719 857.19 349.57 Z"
        fill="#464a5f"/>
    <path
        id="path_252"
        d="M 850.38 354.95 L 847.25 350.49 C 847.206 350.424 847.144 350.37 847.073 350.335 C 847.001 350.301 846.921 350.285 846.842 350.291 C 846.762 350.298 846.686 350.325 846.62 350.37 L 842.08 353.46 C 842.013 353.503 841.958 353.564 841.922 353.635 C 841.886 353.707 841.869 353.787 841.874 353.866 C 841.879 353.946 841.905 354.024 841.95 354.09 L 844.82 358.5 C 844.862 358.568 844.922 358.624 844.993 358.662 C 845.064 358.699 845.144 358.717 845.225 358.713 C 845.305 358.709 845.383 358.684 845.45 358.64 L 850.29 355.64 C 850.362 355.59 850.418 355.521 850.453 355.44 C 850.488 355.36 850.499 355.271 850.487 355.185 C 850.474 355.098 850.437 355.017 850.38 354.95 Z"
        fill="#464a5f"/>
    <path
        id="path_253"
        d="M 844.08 359.29 L 840.95 354.82 C 840.878 354.723 840.771 354.657 840.652 354.637 C 840.533 354.616 840.41 354.642 840.31 354.71 L 835.73 357.79 C 835.632 357.861 835.563 357.966 835.539 358.084 C 835.515 358.203 835.537 358.327 835.6 358.43 L 838.48 362.84 C 838.546 362.941 838.649 363.013 838.766 363.039 C 838.884 363.065 839.008 363.044 839.11 362.98 L 843.94 359.98 C 844.021 359.939 844.087 359.874 844.13 359.795 C 844.174 359.715 844.192 359.625 844.183 359.535 C 844.174 359.445 844.138 359.359 844.08 359.29 Z"
        fill="#464a5f"/>
    <path
        id="path_254"
        d="M 837.01 364.21 L 833.88 359.74 C 833.81 359.644 833.705 359.578 833.587 359.558 C 833.47 359.537 833.349 359.563 833.25 359.63 L 828.67 362.71 C 828.57 362.779 828.5 362.884 828.476 363.004 C 828.451 363.123 828.475 363.247 828.54 363.35 L 831.41 367.76 C 831.477 367.859 831.58 367.929 831.697 367.955 C 831.814 367.981 831.937 367.961 832.04 367.9 L 836.88 364.9 C 836.962 364.86 837.029 364.795 837.072 364.715 C 837.115 364.634 837.132 364.543 837.121 364.452 C 837.11 364.362 837.071 364.277 837.01 364.21 Z"
        fill="#464a5f"/>
    <path
        id="path_255"
        d="M 830.18 368.94 L 827.08 364.48 C 827.036 364.414 826.974 364.36 826.903 364.325 C 826.831 364.291 826.751 364.275 826.672 364.281 C 826.592 364.288 826.516 364.315 826.45 364.36 L 821.87 367.45 C 821.77 367.517 821.701 367.621 821.677 367.738 C 821.652 367.856 821.675 367.979 821.74 368.08 L 824.61 372.49 C 824.676 372.591 824.779 372.663 824.896 372.689 C 825.014 372.715 825.138 372.694 825.24 372.63 L 830.08 369.63 C 830.157 369.584 830.218 369.516 830.256 369.436 C 830.294 369.355 830.307 369.265 830.293 369.176 C 830.28 369.088 830.24 369.006 830.18 368.94 Z"
        fill="#464a5f"/>
    <path
        id="path_256"
        d="M 873.87 328.01 L 871.36 324.41 C 871.209 324.201 870.983 324.059 870.73 324.012 C 870.477 323.965 870.215 324.019 870 324.16 L 866.27 326.68 C 866.061 326.828 865.916 327.05 865.866 327.301 C 865.815 327.552 865.864 327.813 866 328.03 L 868.31 331.58 C 868.455 331.793 868.676 331.941 868.927 331.995 C 869.178 332.049 869.441 332.004 869.66 331.87 L 873.59 329.4 C 873.737 329.303 873.856 329.169 873.934 329.011 C 874.012 328.853 874.048 328.678 874.037 328.502 C 874.025 328.326 873.968 328.156 873.87 328.01 Z"
        fill="#464a5f"/>
    <path
        id="path_257"
        d="M 866.75 332.94 L 864.23 329.35 C 864.081 329.142 863.858 329 863.607 328.951 C 863.356 328.903 863.096 328.953 862.88 329.09 L 859.15 331.61 C 858.941 331.758 858.796 331.98 858.746 332.231 C 858.695 332.482 858.744 332.743 858.88 332.96 L 861.19 336.51 C 861.333 336.722 861.551 336.871 861.8 336.926 C 862.049 336.982 862.311 336.94 862.53 336.81 L 866.47 334.33 C 866.617 334.233 866.736 334.099 866.814 333.941 C 866.892 333.783 866.928 333.608 866.917 333.432 C 866.905 333.256 866.848 333.086 866.75 332.94 Z"
        fill="#464a5f"/>
    <path
        id="path_258"
        d="M 859.63 337.87 L 857.08 334.29 C 856.929 334.081 856.703 333.939 856.45 333.892 C 856.197 333.845 855.935 333.899 855.72 334.04 L 852.08 336.54 C 851.869 336.686 851.722 336.908 851.67 337.159 C 851.618 337.41 851.665 337.672 851.8 337.89 L 854.11 341.44 C 854.253 341.654 854.473 341.805 854.725 341.861 C 854.976 341.917 855.24 341.873 855.46 341.74 L 859.4 339.27 C 859.544 339.168 859.657 339.029 859.73 338.869 C 859.803 338.708 859.832 338.531 859.815 338.356 C 859.797 338.18 859.733 338.013 859.63 337.87 Z"
        fill="#464a5f"/>
    <path
        id="path_259"
        d="M 852.5 342.8 L 849.98 339.21 C 849.829 339.004 849.606 338.863 849.355 338.817 C 849.104 338.77 848.844 338.822 848.63 338.96 L 844.9 341.47 C 844.691 341.618 844.546 341.84 844.496 342.091 C 844.445 342.342 844.494 342.603 844.63 342.82 L 846.94 346.37 C 847.083 346.582 847.301 346.731 847.55 346.786 C 847.799 346.842 848.061 346.8 848.28 346.67 L 852.22 344.2 C 852.369 344.103 852.489 343.968 852.568 343.809 C 852.648 343.65 852.683 343.472 852.671 343.295 C 852.659 343.118 852.6 342.947 852.5 342.8 Z"
        fill="#464a5f"/>
    <path
        id="path_260"
        d="M 845.7 348.18 L 842.57 343.72 C 842.524 343.653 842.462 343.6 842.389 343.565 C 842.316 343.53 842.235 343.515 842.155 343.521 C 842.074 343.527 841.997 343.554 841.93 343.6 L 837.35 346.69 C 837.25 346.757 837.181 346.861 837.157 346.978 C 837.132 347.096 837.155 347.219 837.22 347.32 L 840.09 351.74 C 840.135 351.808 840.196 351.863 840.269 351.899 C 840.341 351.935 840.422 351.952 840.503 351.947 C 840.584 351.941 840.663 351.915 840.73 351.87 L 845.56 348.87 C 845.639 348.827 845.703 348.762 845.746 348.683 C 845.788 348.604 845.806 348.514 845.798 348.425 C 845.79 348.335 845.756 348.25 845.7 348.18 Z"
        fill="#464a5f"/>
    <path
        id="path_261"
        d="M 839.39 352.55 L 836.26 348.09 C 836.216 348.024 836.154 347.97 836.083 347.935 C 836.011 347.901 835.931 347.885 835.852 347.891 C 835.772 347.898 835.696 347.925 835.63 347.97 L 831.08 351.05 C 830.98 351.119 830.91 351.224 830.886 351.344 C 830.861 351.463 830.885 351.587 830.95 351.69 L 833.82 356.1 C 833.887 356.199 833.99 356.269 834.107 356.295 C 834.224 356.321 834.347 356.301 834.45 356.24 L 839.29 353.24 C 839.365 353.192 839.424 353.124 839.461 353.044 C 839.498 352.964 839.511 352.874 839.498 352.787 C 839.486 352.699 839.448 352.617 839.39 352.55 Z"
        fill="#464a5f"/>
    <path
        id="path_262"
        d="M 832.33 357.44 L 829.2 352.97 C 829.128 352.873 829.021 352.807 828.902 352.787 C 828.783 352.766 828.66 352.792 828.56 352.86 L 823.99 355.94 C 823.89 356.009 823.82 356.114 823.796 356.234 C 823.771 356.353 823.795 356.477 823.86 356.58 L 826.73 360.99 C 826.796 361.091 826.899 361.163 827.016 361.189 C 827.134 361.215 827.258 361.194 827.36 361.13 L 832.2 358.13 C 832.278 358.086 832.341 358.02 832.382 357.941 C 832.423 357.861 832.44 357.771 832.43 357.683 C 832.421 357.594 832.386 357.509 832.33 357.44 Z"
        fill="#464a5f"/>
    <path
        id="path_263"
        d="M 825.49 362.17 L 822.36 357.71 C 822.314 357.643 822.252 357.59 822.179 357.555 C 822.106 357.52 822.025 357.505 821.945 357.511 C 821.864 357.517 821.787 357.544 821.72 357.59 L 817.15 360.68 C 817.083 360.723 817.028 360.784 816.992 360.855 C 816.956 360.927 816.939 361.007 816.944 361.086 C 816.949 361.166 816.975 361.244 817.02 361.31 L 819.89 365.73 C 819.933 365.797 819.994 365.852 820.065 365.888 C 820.137 365.924 820.217 365.941 820.296 365.936 C 820.376 365.931 820.454 365.905 820.52 365.86 L 825.36 362.86 C 825.436 362.814 825.498 362.748 825.538 362.669 C 825.577 362.59 825.594 362.501 825.586 362.413 C 825.577 362.324 825.544 362.24 825.49 362.17 Z"
        fill="#464a5f"/>
    <path
        id="path_264"
        d="M 823.34 373.68 L 820.21 369.21 C 820.138 369.113 820.031 369.047 819.912 369.027 C 819.793 369.006 819.67 369.032 819.57 369.1 L 814.99 372.18 C 814.89 372.249 814.82 372.354 814.796 372.474 C 814.771 372.593 814.795 372.717 814.86 372.82 L 817.73 377.23 C 817.797 377.329 817.9 377.399 818.017 377.425 C 818.134 377.451 818.257 377.431 818.36 377.37 L 823.2 374.37 C 823.281 374.329 823.347 374.264 823.39 374.185 C 823.434 374.105 823.452 374.015 823.443 373.925 C 823.434 373.835 823.398 373.749 823.34 373.68 Z"
        fill="#464a5f"/>
    <path
        id="path_265"
        d="M 816.5 378.41 L 813.37 373.95 C 813.324 373.883 813.262 373.83 813.189 373.795 C 813.116 373.76 813.035 373.745 812.955 373.751 C 812.874 373.757 812.797 373.784 812.73 373.83 L 808.15 376.92 C 808.05 376.987 807.981 377.091 807.957 377.208 C 807.932 377.326 807.955 377.449 808.02 377.55 L 810.89 381.96 C 810.933 382.029 810.995 382.085 811.067 382.123 C 811.139 382.16 811.22 382.178 811.301 382.174 C 811.383 382.17 811.462 382.144 811.53 382.1 L 816.36 379.1 C 816.441 379.059 816.507 378.994 816.55 378.915 C 816.594 378.835 816.612 378.745 816.603 378.655 C 816.594 378.565 816.558 378.479 816.5 378.41 Z"
        fill="#464a5f"/>
    <path
        id="path_266"
        d="M 827.23 350.08 L 824.28 345.87 C 824.186 345.74 824.044 345.651 823.885 345.623 C 823.727 345.595 823.563 345.63 823.43 345.72 L 819.08 348.63 C 818.946 348.721 818.854 348.862 818.822 349.02 C 818.79 349.179 818.822 349.344 818.91 349.48 L 821.61 353.64 C 821.7 353.775 821.839 353.87 821.998 353.904 C 822.157 353.937 822.323 353.907 822.46 353.82 L 827.02 350.95 C 827.118 350.895 827.199 350.814 827.254 350.716 C 827.309 350.618 827.336 350.507 827.332 350.395 C 827.327 350.282 827.292 350.174 827.23 350.08 Z"
        fill="#464a5f"/>
    <path
        id="path_267"
        d="M 820.39 354.81 L 817.44 350.61 C 817.38 350.521 817.297 350.45 817.2 350.403 C 817.103 350.357 816.996 350.336 816.889 350.345 C 816.782 350.353 816.679 350.389 816.59 350.45 L 812.27 353.37 C 812.137 353.46 812.044 353.598 812.013 353.755 C 811.981 353.912 812.012 354.076 812.1 354.21 L 814.8 358.37 C 814.89 358.505 815.029 358.6 815.187 358.636 C 815.345 358.671 815.511 358.644 815.65 358.56 L 820.22 355.69 C 820.313 355.628 820.387 355.543 820.436 355.443 C 820.485 355.343 820.507 355.231 820.499 355.12 C 820.49 355.009 820.453 354.902 820.39 354.81 Z"
        fill="#464a5f"/>
    <path
        id="path_268"
        d="M 813.55 359.55 L 810.55 355.34 C 810.457 355.21 810.318 355.122 810.161 355.094 C 810.004 355.066 809.842 355.1 809.71 355.19 L 805.38 358.1 C 805.246 358.191 805.154 358.332 805.122 358.49 C 805.09 358.649 805.122 358.814 805.21 358.95 L 807.91 363.11 C 808 363.245 808.139 363.34 808.298 363.374 C 808.457 363.407 808.623 363.377 808.76 363.29 L 813.33 360.42 C 813.429 360.366 813.511 360.286 813.568 360.188 C 813.624 360.091 813.652 359.979 813.649 359.867 C 813.646 359.754 813.612 359.644 813.55 359.55 Z"
        fill="#464a5f"/>
    <path
        id="path_269"
        d="M 806.81 364.42 L 803.68 359.95 C 803.608 359.853 803.501 359.787 803.382 359.767 C 803.263 359.746 803.14 359.772 803.04 359.84 L 798.46 362.92 C 798.361 362.991 798.294 363.097 798.271 363.216 C 798.249 363.335 798.274 363.459 798.34 363.56 L 801.21 367.97 C 801.276 368.071 801.379 368.143 801.496 368.169 C 801.614 368.195 801.738 368.174 801.84 368.11 L 806.68 365.11 C 806.758 365.066 806.821 365 806.862 364.921 C 806.903 364.841 806.92 364.751 806.91 364.663 C 806.901 364.574 806.866 364.489 806.81 364.42 Z"
        fill="#464a5f"/>
    <path
        id="path_270"
        d="M 887.75 318.29 L 885.08 314.43 C 884.928 314.223 884.701 314.082 884.448 314.038 C 884.195 313.993 883.934 314.047 883.72 314.19 L 873.08 321.6 C 872.875 321.749 872.734 321.97 872.686 322.219 C 872.638 322.467 872.686 322.725 872.82 322.94 L 875.38 326.88 C 875.478 327.026 875.613 327.143 875.771 327.22 C 875.929 327.298 876.105 327.332 876.28 327.319 C 876.455 327.307 876.624 327.249 876.77 327.15 L 887.5 319.64 C 887.706 319.489 887.847 319.266 887.893 319.015 C 887.94 318.764 887.888 318.504 887.75 318.29 Z"
        fill="#464a5f"/>
    <path
        id="path_271"
        d="M 818.63 366.76 L 815.31 362.07 C 815.265 362.003 815.202 361.949 815.128 361.915 C 815.055 361.88 814.974 361.866 814.893 361.874 C 814.812 361.882 814.735 361.912 814.67 361.96 L 803.25 369.96 C 803.152 370.029 803.085 370.133 803.062 370.251 C 803.04 370.368 803.064 370.49 803.13 370.59 L 806.26 375.41 C 806.305 375.48 806.367 375.536 806.441 375.573 C 806.515 375.61 806.598 375.627 806.68 375.621 C 806.763 375.615 806.842 375.587 806.91 375.54 L 818.52 367.41 C 818.62 367.338 818.688 367.229 818.708 367.108 C 818.729 366.986 818.701 366.861 818.63 366.76 Z"
        fill="#464a5f"/>
    <path
        id="path_272"
        d="M 854.96 330.89 L 851.96 326.44 C 851.891 326.34 851.786 326.27 851.666 326.246 C 851.547 326.221 851.423 326.245 851.32 326.31 L 825.97 343.41 C 825.903 343.453 825.848 343.514 825.812 343.585 C 825.776 343.657 825.759 343.737 825.764 343.816 C 825.769 343.896 825.795 343.974 825.84 344.04 L 828.96 348.84 C 829.005 348.91 829.067 348.966 829.141 349.003 C 829.215 349.04 829.298 349.057 829.38 349.051 C 829.463 349.045 829.542 349.017 829.61 348.97 L 854.89 331.53 C 854.983 331.454 855.043 331.344 855.056 331.224 C 855.069 331.105 855.034 330.985 854.96 330.89 Z"
        fill="#464a5f"/>
    <path
        id="path_273"
        d="M 855.08 315.61 L 841.6 296.02 C 841.227 295.476 840.654 295.101 840.006 294.977 C 839.358 294.854 838.687 294.991 838.14 295.36 L 801.01 320.29 C 800.645 320.537 800.351 320.876 800.158 321.273 C 799.965 321.67 799.881 322.111 799.913 322.551 C 799.945 322.991 800.092 323.415 800.34 323.78 L 814.08 343.93 C 814.327 344.296 814.667 344.59 815.064 344.782 C 815.461 344.974 815.903 345.057 816.343 345.024 C 816.783 344.99 817.206 344.84 817.57 344.59 L 854.44 319.08 C 854.801 318.832 855.091 318.493 855.28 318.098 C 855.468 317.702 855.549 317.264 855.514 316.827 C 855.479 316.39 855.329 315.97 855.08 315.61 Z"
        fill="#000000"
        fill-opacity="0.1"
        stroke-opacity="0.1"/>
    <path
        id="path_274"
        d="M 855.7 315.73 L 842.22 296.14 C 841.846 295.598 841.272 295.225 840.625 295.101 C 839.978 294.978 839.308 295.114 838.76 295.48 L 801.68 320.43 C 801.312 320.675 801.016 321.013 800.821 321.41 C 800.626 321.807 800.54 322.248 800.572 322.689 C 800.603 323.13 800.751 323.555 801 323.92 L 814.7 344.05 C 814.947 344.416 815.287 344.71 815.684 344.902 C 816.081 345.094 816.523 345.177 816.963 345.144 C 817.403 345.11 817.826 344.96 818.19 344.71 L 855.08 319.2 C 855.439 318.95 855.726 318.61 855.912 318.214 C 856.098 317.818 856.177 317.379 856.139 316.943 C 856.102 316.507 855.951 316.089 855.7 315.73 Z"
        fill="#939498"/>
    <path
        id="path_275"
        d="M 939.29 347.39 L 910.69 337.85 L 818.96 401.57 L 847.35 410.82 C 848.115 411.07 848.929 411.138 849.725 411.02 C 850.522 410.902 851.28 410.601 851.94 410.14 L 939.55 349.22 C 939.72 349.119 939.857 348.971 939.943 348.792 C 940.029 348.614 940.06 348.414 940.032 348.218 C 940.004 348.022 939.919 347.839 939.787 347.691 C 939.655 347.544 939.482 347.439 939.29 347.39 Z"
        fill="#6c63ff"/>
</svg>
