<svg
    xmlns="http://www.w3.org/2000/svg"
    viewBox="0 0 1044 832"
    id="vector">
    <path
        id="path_51"
        d="M 71.95 802.68 C 71.95 810.602 117.361 818.207 198.108 823.808 C 278.854 829.41 388.487 832.56 502.68 832.56 C 616.873 832.56 726.506 829.41 807.252 823.808 C 887.999 818.207 933.41 810.602 933.41 802.68 C 933.41 794.758 887.999 787.153 807.252 781.552 C 726.506 775.95 616.873 772.8 502.68 772.8 C 388.487 772.8 278.854 775.95 198.108 781.552 C 117.361 787.153 71.95 794.758 71.95 802.68 Z"
        fill="#6c63ff"
        fill-opacity="0.1"
        stroke-opacity="0.1"/>
    <path
        id="path_52"
        d="M 34.06 95.12 C 7.22 126.54 0.43 166.37 0.06 204.56 C -0.2 231.49 3.48 260.7 25.96 280.56 C 55.55 306.69 112.36 311.84 127.02 345.23 C 140.02 374.9 109.77 404.75 80.71 425.69 C 51.65 446.63 18.28 472.27 23.71 503.45 C 27.15 523.36 46.02 538.99 64.84 552.11 C 100.62 577.11 140.84 598.98 186.18 609.62 C 268.44 628.9 357.29 608.94 434.37 578.72 C 481.82 560.12 536.91 537.29 584.03 556.42 C 596.47 561.47 607.03 569.1 618.5 575.42 C 651.85 593.69 692.58 600.42 732.22 606.13 C 790.32 614.53 851.38 621.54 907.36 606.39 C 963.34 591.24 1011.72 546.93 1003.15 499.67 C 995.07 455.15 943.63 426.13 902.64 395.72 C 888.18 384.99 873.46 370.77 877.06 355.16 C 879.92 342.78 893.38 334.16 905.38 326.16 C 968.54 283.82 1014.96 225.37 1036.3 161.28 C 1046.38 131.04 1050.02 96.2 1027.53 70.7 C 1009.39 50.13 978.3 40.25 948.73 32.12 C 893.86 17.03 837.62 4.28 779.91 0.84 C 722.2 -2.6 662.58 3.96 611.35 25.73 C 586.78 36.18 564.51 49.94 539.7 60 C 469.26 88.56 386.26 84.72 307.7 80.21 C 279.63 78.6 250.29 75.74 225.92 63.48 C 204.92 52.9 192.92 45.32 166.92 44.14 C 115.96 41.83 63.24 60.9 34.06 95.12 Z"
        fill="#6c63ff"
        fill-opacity="0.1"
        stroke-opacity="0.1"/>
    <path
        id="path_53"
        d="M 414.46 310.36 L 413.36 312.63 L 406.23 327.28 L 331.44 480.85 L 204.53 791.81 L 186.39 791.95 L 313.37 480.85 L 399.9 303.15 L 406.23 306.28 L 413.36 309.81 L 414.46 310.36 Z"
        fill="#535461"/>
    <path
        id="path_54"
        d="M 637.12 791.95 L 622.19 791.81 L 495.27 480.85 L 422.45 331.31 L 413.36 312.63 L 412.25 310.36 L 413.36 309.81 L 422.45 305.31 L 426.82 303.15 L 512.05 480.85 L 637.12 791.95 Z"
        fill="#535461"/>
    <path
        id="path_55"
        d="M 406.23 261.38 L 422.46 261.38 L 422.46 791.95 L 406.23 791.95 Z"
        fill="#535461"/>
    <path
        id="path_56"
        d="M 412.49 173.97 C 407.017 173.975 401.764 176.154 397.894 180.024 C 394.024 183.894 391.845 189.147 391.84 194.62 L 391.84 202 C 391.743 206.423 393.069 210.763 395.622 214.376 C 398.175 217.99 401.823 220.689 406.024 222.075 C 410.226 223.461 414.764 223.461 418.966 222.075 C 423.167 220.689 426.815 217.99 429.368 214.376 C 431.921 210.763 433.247 206.423 433.15 202 L 433.15 194.62 C 433.142 189.146 430.961 183.893 427.089 180.023 C 423.218 176.154 417.964 173.975 412.49 173.97 Z M 427.98 201.97 C 427.967 206.071 426.327 210.003 423.423 212.899 C 420.519 215.794 416.581 217.421 412.48 217.421 C 408.379 217.421 404.441 215.794 401.537 212.899 C 398.633 210.003 396.993 206.071 396.98 201.97 L 396.98 194.59 C 396.97 191.311 398 188.111 399.923 185.454 C 401.846 182.797 404.563 180.818 407.681 179.803 C 410.799 178.787 414.161 178.787 417.279 179.803 C 420.397 180.818 423.114 182.797 425.037 185.454 C 426.96 188.111 427.99 191.311 427.98 194.59 Z"
        fill="#535461"/>
    <path
        id="path_57"
        d="M 512.05 480.85 L 495.27 480.85 L 422.45 331.31 L 422.45 480.85 L 406.23 480.85 L 406.23 327.28 L 331.44 480.85 L 313.37 480.85 L 399.9 303.15 L 406.23 306.28 L 406.23 261.38 L 422.45 261.38 L 422.45 305.31 L 426.82 303.15 L 512.05 480.85 Z"
        fill="#000000"
        fill-opacity="0.1"
        stroke-opacity="0.1"/>
    <path
        id="path_58"
        d="M 433.15 195.36 L 433.15 202 C 433.247 206.423 431.921 210.763 429.368 214.376 C 426.815 217.99 423.167 220.689 418.966 222.075 C 414.764 223.461 410.226 223.461 406.024 222.075 C 401.823 220.689 398.175 217.99 395.622 214.376 C 393.069 210.763 391.743 206.423 391.84 202 L 391.84 195.36 L 397 195.36 L 397 202 C 397.013 206.101 398.653 210.033 401.557 212.929 C 404.461 215.824 408.399 217.451 412.5 217.451 C 416.601 217.451 420.539 215.824 423.443 212.929 C 426.347 210.033 427.987 206.101 428 202 L 428 195.36 Z"
        fill="#000000"
        fill-opacity="0.1"
        stroke-opacity="0.1"/>
    <path
        id="path_59"
        d="M 100.45 196.84 L 724.54 196.84 L 724.54 478.64 L 100.45 478.64 Z"
        fill="#535461"/>
    <path
        id="path_60"
        d="M 111.52 205.69 L 712 205.69 L 712 462.41 L 111.52 462.41 Z"
        fill="#ffffff"/>
    <path
        id="path_61"
        d="M 170.82 233.6 L 199.21 233.6 L 199.21 246.53 L 170.82 246.53 Z"
        fill="#6c63ff"
        fill-opacity="0.2"
        stroke-opacity="0.2"/>
    <path
        id="path_62"
        d="M 170.82 258.61 L 199.21 258.61 L 199.21 271.54 L 170.82 271.54 Z"
        fill="#6c63ff"
        fill-opacity="0.2"
        stroke-opacity="0.2"/>
    <path
        id="path_63"
        d="M 170.82 283.61 L 199.21 283.61 L 199.21 296.54 L 170.82 296.54 Z"
        fill="#6c63ff"
        fill-opacity="0.2"
        stroke-opacity="0.2"/>
    <path
        id="path_64"
        d="M 170.82 308.61 L 199.21 308.61 L 199.21 321.54 L 170.82 321.54 Z"
        fill="#6c63ff"
        fill-opacity="0.2"
        stroke-opacity="0.2"/>
    <path
        id="path_65"
        d="M 170.82 333.62 L 199.21 333.62 L 199.21 346.55 L 170.82 346.55 Z"
        fill="#6c63ff"
        fill-opacity="0.2"
        stroke-opacity="0.2"/>
    <path
        id="path_66"
        d="M 170.82 358.62 L 199.21 358.62 L 199.21 371.55 L 170.82 371.55 Z"
        fill="#6c63ff"
        fill-opacity="0.2"
        stroke-opacity="0.2"/>
    <path
        id="path_67"
        d="M 170.82 383.62 L 199.21 383.62 L 199.21 396.55 L 170.82 396.55 Z"
        fill="#6c63ff"
        fill-opacity="0.2"
        stroke-opacity="0.2"/>
    <path
        id="path_68"
        d="M 170.82 408.62 L 199.21 408.62 L 199.21 421.55 L 170.82 421.55 Z"
        fill="#6c63ff"
        fill-opacity="0.2"
        stroke-opacity="0.2"/>
    <path
        id="path_69"
        d="M 224.27 421.56 L 252.66 421.56 L 252.66 434.49 L 224.27 434.49 Z"
        fill="#6c63ff"
        fill-opacity="0.2"
        stroke-opacity="0.2"/>
    <path
        id="path_70"
        d="M 274.28 421.56 L 302.67 421.56 L 302.67 434.49 L 274.28 434.49 Z"
        fill="#6c63ff"
        fill-opacity="0.2"
        stroke-opacity="0.2"/>
    <path
        id="path_71"
        d="M 324.28 421.56 L 352.67 421.56 L 352.67 434.49 L 324.28 434.49 Z"
        fill="#6c63ff"
        fill-opacity="0.2"
        stroke-opacity="0.2"/>
    <path
        id="path_72"
        d="M 374.29 421.56 L 402.68 421.56 L 402.68 434.49 L 374.29 434.49 Z"
        fill="#6c63ff"
        fill-opacity="0.2"
        stroke-opacity="0.2"/>
    <path
        id="path_73"
        d="M 424.29 421.56 L 452.68 421.56 L 452.68 434.49 L 424.29 434.49 Z"
        fill="#6c63ff"
        fill-opacity="0.2"
        stroke-opacity="0.2"/>
    <path
        id="path_74"
        d="M 474.3 421.56 L 502.69 421.56 L 502.69 434.49 L 474.3 434.49 Z"
        fill="#6c63ff"
        fill-opacity="0.2"
        stroke-opacity="0.2"/>
    <path
        id="path_75"
        d="M 524.3 421.56 L 552.69 421.56 L 552.69 434.49 L 524.3 434.49 Z"
        fill="#6c63ff"
        fill-opacity="0.2"
        stroke-opacity="0.2"/>
    <path
        id="path_76"
        d="M 574.31 421.56 L 602.7 421.56 L 602.7 434.49 L 574.31 434.49 Z"
        fill="#6c63ff"
        fill-opacity="0.2"
        stroke-opacity="0.2"/>
    <path
        id="path_77"
        d="M 624.31 421.56 L 652.7 421.56 L 652.7 434.49 L 624.31 434.49 Z"
        fill="#6c63ff"
        fill-opacity="0.2"
        stroke-opacity="0.2"/>
    <path
        id="path_78"
        d="M 224.27 327.58 L 252.66 327.58 L 252.66 408.62 L 224.27 408.62 Z"
        fill="#6c63ff"/>
    <path
        id="path_79"
        d="M 274.28 290.08 L 302.67 290.08 L 302.67 408.63 L 274.28 408.63 Z"
        fill="#6c63ff"/>
    <path
        id="path_80"
        d="M 324.28 258.61 L 352.67 258.61 L 352.67 408.63 L 324.28 408.63 Z"
        fill="#6c63ff"/>
    <path
        id="path_81"
        d="M 374.29 274.92 L 402.68 274.92 L 402.68 408.62 L 374.29 408.62 Z"
        fill="#6c63ff"/>
    <path
        id="path_82"
        d="M 424.29 246.54 L 452.68 246.54 L 452.68 408.63 L 424.29 408.63 Z"
        fill="#6c63ff"/>
    <path
        id="path_83"
        d="M 474.3 308.61 L 502.69 308.61 L 502.69 408.62 L 474.3 408.62 Z"
        fill="#6c63ff"
        fill-opacity="0.2"
        stroke-opacity="0.2"/>
    <path
        id="path_84"
        d="M 524.3 308.61 L 552.69 308.61 L 552.69 408.62 L 524.3 408.62 Z"
        fill="#6c63ff"
        fill-opacity="0.2"
        stroke-opacity="0.2"/>
    <path
        id="path_85"
        d="M 574.31 308.61 L 602.7 308.61 L 602.7 408.62 L 574.31 408.62 Z"
        fill="#6c63ff"
        fill-opacity="0.2"
        stroke-opacity="0.2"/>
    <path
        id="path_86"
        d="M 624.31 308.61 L 652.7 308.61 L 652.7 408.62 L 624.31 408.62 Z"
        fill="#6c63ff"
        fill-opacity="0.2"
        stroke-opacity="0.2"/>
    <path
        id="path_87"
        d="M 621.05 308.39 L 377.95 323.35 L 377.95 328.09 L 626.23 318.24 L 621.05 308.39 Z"
        fill="#535461"/>
    <path
        id="path_88"
        d="M 908.87 407.15 C 908.87 407.15 921.59 386.23 918.21 353.41 C 914.83 320.59 902.6 267.47 902.6 267.47 C 902.6 267.47 907.91 237.71 879.11 233.53 C 879.11 233.53 861.21 230.2 848.41 222.15 C 843.65 219.15 839.6 215.52 837.41 211.15 C 837.41 211.15 837.24 211.64 836.91 212.54 C 836.627 212.09 836.367 211.626 836.13 211.15 C 836.13 211.15 836.06 211.33 835.95 211.65 L 831.06 204.03 C 831.06 204.03 830.39 204.74 829.26 205.91 C 827.293 203.087 825.618 200.071 824.26 196.91 C 825.476 196.616 826.669 196.235 827.83 195.77 C 828.94 195.403 829.941 194.763 830.74 193.91 C 831.441 192.937 831.894 191.808 832.06 190.62 C 832.839 186.819 833.062 182.925 832.72 179.06 C 832.45 176.06 831.84 173.06 832.05 170.01 C 832.27 166.76 833.42 163.62 833.58 160.36 C 833.86 154.62 831.01 149.16 827.49 144.61 C 825.39 141.9 823.03 139.38 821.21 136.48 C 819.63 133.96 818.48 131.18 816.78 128.73 C 812.78 123.03 806.11 119.67 799.27 118.48 C 792.43 117.29 785.39 118.03 778.54 119.16 C 772.54 120.16 766.54 121.61 760.54 121.96 C 755.3 122.26 751.03 120.49 746.23 123.96 C 744.64 125.132 743.32 126.631 742.357 128.356 C 741.395 130.081 740.813 131.992 740.65 133.96 C 740.572 134.63 740.623 135.309 740.8 135.96 C 741.083 136.635 741.418 137.286 741.8 137.91 C 743.93 142.11 740.69 147.1 741.11 151.79 C 741.366 153.863 742.316 155.791 743.804 157.257 C 745.292 158.724 747.233 159.645 749.31 159.87 C 749.12 160.27 748.91 160.66 748.73 161.07 C 745.176 169.098 744.262 178.051 746.119 186.632 C 747.976 195.213 752.51 202.987 759.065 208.828 C 765.62 214.669 773.863 218.281 782.6 219.14 L 784.46 220.57 C 788.66 223.82 793.38 227.71 797.93 231.94 L 797.84 232.01 L 797.1 231.59 C 795.715 232.686 794.258 233.688 792.74 234.59 C 788.53 237.17 781.74 240.52 774.1 240.9 C 774.1 240.9 760.42 248.15 755.71 272.06 C 748.95 278.12 734.48 289.06 715.36 291.91 C 688.49 295.91 655.36 297.22 655.36 297.22 C 655.36 297.22 655.09 297.7 654.71 298.58 L 651.65 298.02 C 651.65 298.02 651.65 298.39 651.52 299.02 L 650.32 298.48 C 640.83 294.33 621.87 288.28 619.47 304.95 C 616.25 327.31 637.57 324.74 637.57 324.74 C 641.786 323.138 646.106 321.825 650.5 320.81 L 651.69 320.58 C 651.892 321.163 652.175 321.715 652.53 322.22 L 655.43 322.22 C 656.437 324.304 657.654 326.281 659.06 328.12 L 726.64 326.64 C 726.64 326.64 738.19 324.12 748.85 325.72 C 744.2 360.48 738.71 398.6 738.71 398.6 C 738.71 398.6 727.21 458.97 735.26 465.28 C 739.932 463.721 744.694 462.445 749.52 461.46 C 749.593 465.19 749.988 468.907 750.7 472.57 L 755.85 506.28 C 755.85 506.28 757.85 540.72 764.54 561.28 L 770.44 589.38 L 775.38 610.62 L 778.16 646.67 C 781.978 661.942 784.738 677.459 786.42 693.11 C 789.03 717.33 803.2 756.47 805.09 761.62 C 800.25 768.47 790.31 780.09 777.84 781.29 C 760.04 783.01 759.61 793.74 772.05 797.6 C 784.49 801.46 810.67 797.6 810.67 797.6 L 847.59 788.47 C 846.48 795.28 845.9 800.66 846.71 801.24 C 849.07 802.96 884.9 812.24 886.19 797.38 Q 886.34 795.54 886.46 793.81 C 886.993 784.291 885.721 774.756 882.71 765.71 C 882.42 764.82 882.16 763.92 881.93 763.02 C 882.461 762.426 882.949 761.794 883.39 761.13 C 883.39 761.13 885.97 721.01 887.9 706.63 C 888.05 705.48 888.15 704.08 888.2 702.5 C 889.09 685.26 882.8 639.91 882.8 639.91 C 882.8 639.91 875.03 610.41 875.32 596.85 C 875.365 595.723 875.556 594.607 875.89 593.53 C 875.89 593.53 875.89 593.26 875.79 592.81 C 875.79 592.62 875.88 592.42 875.94 592.24 C 875.94 592.24 872 565.24 872.55 549.18 C 872.627 546.784 872.962 544.404 873.55 542.08 C 874.175 539.029 874.494 535.924 874.5 532.81 C 875 521.81 874.42 502.81 873.62 484.99 C 873.71 484.69 873.8 484.39 873.87 484.04 C 874.031 482.621 873.864 481.184 873.38 479.84 C 873.32 478.69 873.27 477.55 873.21 476.42 C 873.54 475.29 873.81 474.09 874.05 472.85 L 874.57 472.85 L 874.57 472.92 C 874.57 472.92 908.19 471.31 915.92 462.3 C 915.92 462.3 908.11 438.03 903.78 418.3 Z M 763.99 331.66 L 763.46 331.47 C 764.31 328.47 765.32 324.98 766.46 321.32 C 765.49 325.28 764.65 328.88 763.99 331.66 Z M 798.11 232.17 L 798.26 232.31 L 798.1 232.22 Z M 840.11 752.69 C 838.3 746.46 831.11 721.06 831.34 708.95 C 831.39 707.897 831.575 706.856 831.89 705.85 C 832.557 703.655 832.894 701.374 832.89 699.08 C 833.61 686.44 828.77 663.79 828.77 663.79 C 828.77 663.79 817.94 633.24 818.77 608.98 C 818.77 608.37 818.84 607.76 818.88 607.15 C 819.06 604.85 819.2 602.36 819.3 599.73 L 819.3 599.68 C 819.71 590.31 819.62 579.03 819.35 568.51 L 819.29 568.12 C 818.92 554.19 818.23 541.65 817.94 536.69 C 818.94 543.86 825.34 588.49 828.1 595.79 C 828.1 595.79 829.61 616.38 836.47 633.79 L 843.99 679.05 C 843.99 679.05 845.92 732.91 849.13 748.14 C 850.57 754.92 851.79 759.49 852.7 762.47 C 851.4 768.54 849.3 778.71 847.89 787.13 C 847.06 781.64 844.14 760.72 840.12 752.69 Z"
        fill="none"/>
    <path
        id="path_89"
        d="M 807.96 754.08 C 807.96 754.08 795.41 776.83 777.76 778.53 C 760.11 780.23 759.69 790.86 772.02 794.69 C 784.35 798.52 810.3 794.69 810.3 794.69 L 847.3 785.55 C 847.3 785.55 842.83 748.97 836.88 747.06 C 830.93 745.15 807.96 754.08 807.96 754.08 Z"
        fill="#4c4c78"/>
    <path
        id="path_90"
        d="M 853.06 754.5 C 853.06 754.5 843.7 796.6 846.06 798.31 C 848.42 800.02 883.91 809.15 885.19 794.48 Q 885.34 792.63 885.46 790.94 C 885.984 781.505 884.722 772.056 881.74 763.09 C 880.74 760.09 880.04 756.88 880.3 754.5 C 880.89 748.55 853.06 754.5 853.06 754.5 Z"
        fill="#4c4c78"/>
    <path
        id="path_91"
        d="M 841.45 221.49 C 841.45 221.49 812.74 292.01 817.85 269.36 C 821.23 254.36 799.38 234.43 784.27 222.72 C 776.58 216.72 770.64 212.91 770.64 212.91 C 770.64 212.91 824.54 150.07 820.72 177.18 C 819.672 184.604 820.69 192.176 823.66 199.06 C 829.61 213.2 841.45 221.49 841.45 221.49 Z"
        fill="#ffb9b9"/>
    <path
        id="path_92"
        d="M 658.06 321.67 C 656.54 321.28 654.06 321.53 651.49 322.08 C 647.137 323.085 642.857 324.385 638.68 325.97 C 638.68 325.97 617.55 328.52 620.74 306.36 C 623.11 289.84 641.9 295.84 651.31 299.94 C 654.51 301.35 656.63 302.53 656.63 302.53 Z"
        fill="#ffb9b9"/>
    <path
        id="path_93"
        d="M 658.06 321.67 C 656.54 321.28 654.06 321.53 651.49 322.08 C 649.19 316.28 650.94 302.53 651.31 299.94 C 654.51 301.35 656.63 302.53 656.63 302.53 Z"
        fill="#000000"
        fill-opacity="0.1"
        stroke-opacity="0.1"/>
    <path
        id="path_94"
        d="M 658.15 300.51 L 652.62 299.51 C 652.62 299.51 649.79 318.51 653.49 323.51 L 659.85 323.51 Z"
        fill="#cbcdda"/>
    <path
        id="path_95"
        d="M 769.06 335.18 C 769.06 335.18 752.16 325.07 750.14 337.83 C 748.12 350.59 745.46 372.39 745.46 372.39 L 740.78 400.14 L 734.72 455.74 L 735.57 465.2 C 735.57 465.2 753.57 459.14 757.79 461.27 C 762.01 463.4 765.45 437.88 765.45 437.88 L 772.45 411.51 L 773.51 355.59 Z"
        fill="#4c4c78"/>
    <path
        id="path_96"
        d="M 769.06 335.18 C 769.06 335.18 752.16 325.07 750.14 337.83 C 748.12 350.59 745.46 372.39 745.46 372.39 L 740.78 400.14 L 734.72 455.74 L 735.57 465.2 C 735.57 465.2 753.57 459.14 757.79 461.27 C 762.01 463.4 765.45 437.88 765.45 437.88 L 772.45 411.51 L 773.51 355.59 Z"
        fill="#000000"
        fill-opacity="0.1"
        stroke-opacity="0.1"/>
    <path
        id="path_97"
        d="M 759.95 269.68 C 759.95 269.68 742.41 289.46 715.78 293.44 C 689.15 297.42 656.29 298.71 656.29 298.71 C 656.29 298.71 648 313.54 659.96 329.33 L 726.96 327.85 C 726.96 327.85 741.79 324.63 753.28 327.85 Z"
        fill="#4c4c78"/>
    <path
        id="path_98"
        d="M 759.95 269.68 C 759.95 269.68 742.41 289.46 715.78 293.44 C 689.15 297.42 656.29 298.71 656.29 298.71 C 656.29 298.71 648 313.54 659.96 329.33 L 726.96 327.85 C 726.96 327.85 741.79 324.63 753.28 327.85 Z"
        fill="#000000"
        fill-opacity="0.05"
        stroke-opacity="0.05"/>
    <path
        id="path_99"
        d="M 614.35 350.86"
        fill="#00000000"
        stroke="#0000ff"
        stroke-width="1"/>
    <path
        id="path_100"
        d="M 820.82 198.45 C 814.28 212.45 802.91 222.77 786.42 222.77 C 785.69 222.77 784.98 222.77 784.27 222.72 C 776.58 216.72 770.64 212.91 770.64 212.91 C 770.64 212.91 824.54 150.07 820.72 177.18 C 819.54 185.48 818.19 192.22 820.82 198.45 Z"
        fill="#000000"
        fill-opacity="0.1"
        stroke-opacity="0.1"/>
    <path
        id="path_101"
        d="M 827.5 180.4 C 827.492 191.292 823.153 201.747 815.446 209.444 C 807.739 217.141 797.279 221.466 786.387 221.46 C 775.494 221.454 765.039 217.117 757.341 209.411 C 749.643 201.705 745.316 191.246 745.32 180.353 C 745.324 169.461 749.66 159.005 757.364 151.306 C 765.069 143.606 775.528 139.277 786.42 139.28 C 793.639 139.266 800.735 141.159 806.989 144.766 C 813.242 148.374 818.432 153.57 822.034 159.826 C 825.635 166.083 827.521 173.181 827.5 180.4 Z"
        fill="#ffb9b9"/>
    <path
        id="path_102"
        d="M 852.61 431.5 C 852.61 431.5 760.97 439.59 757.61 427.89 C 754.25 416.19 766.96 384.51 766.96 384.51 L 762.82 340.28 L 762.67 338.59 C 762.67 338.59 774.15 290.74 773.73 286.92 C 773.33 283.48 792.21 243.33 796.09 235.12 C 796.55 234.17 796.79 233.65 796.79 233.65 L 797.52 234.07 L 797.84 234.26 L 802.33 236.88 L 820.06 232.68 L 841.43 221.49 L 843.43 343.9 Z"
        fill="#cbcdda"/>
    <path
        id="path_103"
        d="M 804.98 235.13 C 804.98 235.13 798.71 233.43 796.26 239.7 C 795.301 242.395 794.165 245.024 792.86 247.57 L 790.42 262.13 L 785.95 285.13 L 782.65 386.88 L 784.14 404.95 L 792.33 390.39 L 793.82 295.28 L 793.82 283.45 C 794.3 273.222 796.61 263.163 800.64 253.75 L 801.78 251.08 L 808.9 241.93 Z"
        fill="#000000"
        fill-opacity="0.1"
        stroke-opacity="0.1"/>
    <path
        id="path_104"
        d="M 803.71 233.85 C 803.71 233.85 797.43 232.15 794.99 238.42 C 794.029 241.116 792.89 243.745 791.58 246.29 L 789.14 260.86 L 784.67 283.86 L 781.38 385.61 L 782.87 403.69 L 791.06 389.08 L 792.55 294.03 L 792.55 282.17 C 793.039 271.943 795.349 261.886 799.37 252.47 L 800.52 249.8 L 807.64 240.66 Z"
        fill="#4c4c78"/>
    <path
        id="path_105"
        d="M 830.5 207.59 C 830.5 207.59 808.81 230.59 801.15 233.32 C 801.15 233.32 804.98 250.76 808.81 254.16 C 808.81 254.16 831.57 230.95 835.6 229.07 L 838.98 220.8 Z"
        fill="#000000"
        fill-opacity="0.1"
        stroke-opacity="0.1"/>
    <path
        id="path_106"
        d="M 830.5 206.28 C 830.5 206.28 808.81 229.28 801.15 232.01 C 801.15 232.01 804.98 249.45 808.81 252.85 C 808.81 252.85 831.57 229.64 835.6 227.76 L 838.98 219.5 Z"
        fill="#cbcdda"/>
    <path
        id="path_107"
        d="M 798.06 233.65 L 797.84 234.25 L 790.89 252.88 L 778.46 288.03 C 778.46 288.03 778.35 288.39 778.13 289.03 C 776.07 295.43 765 330.16 762.82 340.25 L 762.67 338.56 C 762.67 338.56 774.15 290.71 773.73 286.89 C 773.33 283.45 792.21 243.3 796.09 235.09 C 796.71 234.67 797.19 234.31 797.52 234.04 Z"
        fill="#000000"
        fill-opacity="0.1"
        stroke-opacity="0.1"/>
    <path
        id="path_108"
        d="M 796.79 233.64 L 789.61 252.88 L 777.18 288.03 C 777.18 288.03 777.07 288.39 776.85 289.03 C 774.67 295.85 762.24 334.78 761.24 341.9 C 760.11 349.72 744.48 391.99 744.48 391.99 L 735.55 465.18 C 727.55 458.97 738.91 399.18 738.91 399.18 C 738.91 399.18 751.67 310.51 754.69 281.01 C 757.71 251.51 774 242.89 774 242.89 C 781.52 242.51 788.3 239.19 792.47 236.64 C 793.976 235.738 795.419 234.736 796.79 233.64 Z"
        fill="#4c4c78"/>
    <path
        id="path_109"
        d="M 886.84 704.53 C 884.93 718.78 882.38 758.53 882.38 758.53 C 873.45 771.92 853.67 764.69 853.67 764.69 C 853.67 764.69 851.55 760.69 848.36 745.55 C 845.17 730.41 843.26 677.08 843.26 677.08 L 835.81 632.28 C 829.01 615.05 827.52 594.64 827.52 594.64 C 824.52 586.77 817.31 535.1 817.31 535.1 C 817.31 535.1 820.31 581.45 818.38 605.91 C 816.45 630.37 828.15 663.28 828.15 663.28 C 828.15 663.28 834.75 694.12 831.34 703.69 C 827.93 713.26 839.85 752.8 839.85 752.8 C 838.85 764.29 804.99 759.61 804.99 759.61 C 804.99 759.61 789.06 716.86 786.27 691.13 C 784.598 675.627 781.862 660.257 778.08 645.13 L 775.32 609.4 L 770.42 588.28 L 764.58 560.43 C 757.98 540.02 755.97 505.89 755.97 505.89 L 750.86 472.4 C 747.52 455.84 751.86 436.4 754.74 426.23 C 755.99 421.82 756.99 419.13 756.99 419.13 C 759.92 421.21 776.7 423.65 785.38 425.63 C 790.13 426.725 795.016 427.116 799.88 426.79 C 821.825 425.048 843.534 421.067 864.67 414.91 C 866.1 414.48 866.86 414.23 866.86 414.23 L 867.31 418.06 L 868.37 427.18 L 870.26 443.37 C 870.26 443.37 876 529.7 872.6 541.37 C 869.2 553.04 874.94 592.37 874.94 592.37 C 871.75 601.7 881.74 639.62 881.74 639.62 C 881.74 639.62 888.76 690.28 886.84 704.53 Z"
        fill="#000000"
        fill-opacity="0.1"
        stroke-opacity="0.1"/>
    <path
        id="path_110"
        d="M 886.84 703.28 C 884.93 717.53 882.38 757.28 882.38 757.28 C 873.45 770.68 853.67 763.44 853.67 763.44 C 853.67 763.44 851.55 759.44 848.36 744.31 C 845.17 729.18 843.26 675.83 843.26 675.83 L 835.81 630.97 C 829.06 613.74 827.52 593.28 827.52 593.28 C 824.52 585.41 817.31 533.74 817.31 533.74 C 817.31 533.74 820.31 580.09 818.38 604.55 C 816.45 629.01 828.15 661.96 828.15 661.96 C 828.15 661.96 834.75 692.8 831.34 702.37 C 827.93 711.94 839.85 751.49 839.85 751.49 C 838.85 762.97 804.99 758.29 804.99 758.29 C 804.99 758.29 789.06 715.59 786.27 689.85 C 784.598 674.347 781.862 658.977 778.08 643.85 L 775.32 608.13 L 770.42 587.08 L 764.58 559.23 C 757.98 538.81 755.97 504.68 755.97 504.68 L 750.86 471.19 C 747.52 454.63 751.86 435.19 754.74 425.02 C 755.99 420.62 756.99 417.93 756.99 417.93 C 759.92 420.01 776.7 422.44 785.38 424.42 C 790.13 425.52 795.016 425.911 799.88 425.58 C 821.825 423.838 843.534 419.857 864.67 413.7 L 866.86 413.03 L 867.31 416.85 L 868.37 425.98 L 870.26 442.17 C 870.26 442.17 876 528.49 872.6 540.17 C 869.2 551.85 874.94 591.17 874.94 591.17 C 871.75 600.49 881.74 638.41 881.74 638.41 C 881.74 638.41 888.76 689.01 886.84 703.28 Z"
        fill="#474463"/>
    <path
        id="path_111"
        d="M 827.5 180.4 C 827.513 187.585 825.636 194.648 822.06 200.88 C 815.66 202.01 808.85 200.76 804.06 196.53 C 800.78 193.64 798.66 189.69 795.84 186.34 C 794.015 184.281 792.054 182.347 789.97 180.55 C 788.61 179.195 787.048 178.058 785.34 177.18 C 784.481 176.746 783.534 176.515 782.572 176.505 C 781.61 176.494 780.658 176.705 779.79 177.12 C 777.53 178.38 776.79 181.19 775.48 183.43 C 774.495 185.352 772.808 186.824 770.77 187.54 C 769.751 187.866 768.654 187.856 767.64 187.513 C 766.627 187.169 765.75 186.509 765.14 185.63 C 763.75 183.24 764.77 179.51 762.44 178.05 C 761.825 177.747 761.191 177.486 760.54 177.27 C 757.54 175.91 757.19 171.88 756.93 168.58 C 756.8 166.96 756.45 165.13 755.09 164.26 C 753.73 163.39 751.94 163.83 750.32 163.86 C 749.841 163.879 749.361 163.842 748.89 163.75 C 752.708 155.143 759.371 148.105 767.756 143.821 C 776.141 139.537 785.748 138.263 794.96 140.213 C 804.172 142.163 812.439 147.222 818.368 154.536 C 824.298 161.85 827.537 170.984 827.54 180.4 Z"
        fill="#000000"
        fill-opacity="0.1"
        stroke-opacity="0.1"/>
    <path
        id="path_112"
        d="M 746.37 126.96 C 744.791 128.125 743.48 129.615 742.526 131.33 C 741.572 133.045 740.997 134.944 740.84 136.9 C 740.764 137.554 740.815 138.216 740.99 138.85 C 741.269 139.523 741.604 140.172 741.99 140.79 C 744.09 144.96 740.88 149.9 741.29 154.55 C 741.568 156.746 742.634 158.768 744.289 160.239 C 745.943 161.71 748.076 162.531 750.29 162.55 C 751.91 162.55 753.69 162.07 755.06 162.95 C 756.43 163.83 756.77 165.65 756.9 167.27 C 757.16 170.57 757.49 174.6 760.5 175.96 C 761.149 176.181 761.783 176.442 762.4 176.74 C 764.74 178.2 763.72 181.94 765.11 184.32 C 765.72 185.199 766.597 185.859 767.61 186.203 C 768.624 186.546 769.721 186.556 770.74 186.23 C 772.774 185.517 774.458 184.049 775.44 182.13 C 776.73 179.88 777.5 177.13 779.76 175.82 C 780.627 175.401 781.578 175.188 782.541 175.196 C 783.503 175.205 784.451 175.436 785.31 175.87 C 787.018 176.752 788.58 177.892 789.94 179.25 C 792.026 181.044 793.987 182.979 795.81 185.04 C 798.63 188.38 800.75 192.33 804.03 195.22 C 810.21 200.65 819.67 201.22 827.29 198.09 C 828.39 197.723 829.382 197.091 830.18 196.25 C 830.876 195.283 831.325 194.16 831.49 192.98 C 832.264 189.216 832.486 185.358 832.15 181.53 C 831.88 178.53 831.27 175.53 831.48 172.53 C 831.69 169.31 832.84 166.2 833 162.98 C 833.28 157.28 830.45 151.87 827 147.36 C 824.92 144.67 822.58 142.18 820.78 139.3 C 819.21 136.8 818.07 134.05 816.39 131.63 C 812.45 125.98 805.81 122.63 799.03 121.46 C 792.25 120.29 785.28 121.01 778.49 122.14 C 772.57 123.14 766.61 124.56 760.61 124.91 C 755.36 125.28 751.13 123.51 746.37 126.96 Z"
        fill="#472727"/>
    <path
        id="path_113"
        d="M 796.79 233.64 L 789.61 252.88 L 777.18 288.03 C 777.18 288.03 777.07 288.39 776.85 289.03 L 776.85 289.08 L 792.49 236.62 C 793.988 235.724 795.425 234.728 796.79 233.64 Z"
        fill="#000000"
        fill-opacity="0.1"
        stroke-opacity="0.1"/>
    <path
        id="path_114"
        d="M 874.41 453.83 C 874.41 453.83 875.15 477.11 868.88 482.96 L 852.19 451.49 L 866.19 444.68 Z"
        fill="#ffb9b9"/>
    <path
        id="path_115"
        d="M 913.37 462.33 C 905.71 471.26 872.37 472.86 872.37 472.86 L 839.37 420.86 C 839.37 420.86 831.56 415.44 816.89 391.03 C 802.22 366.62 802.7 347.82 803.52 333.78 C 804.34 319.74 813.52 279.39 813.52 279.39 C 814.95 270.31 835.52 213.39 835.52 213.39 C 837.68 217.7 841.7 221.3 846.4 224.27 C 859.1 232.27 876.83 235.55 876.83 235.55 C 905.39 239.7 900.12 269.2 900.12 269.2 C 900.12 269.2 900.44 383.87 898.68 397.59 C 896.92 411.31 913.37 462.33 913.37 462.33 Z"
        fill="#000000"
        fill-opacity="0.1"
        stroke-opacity="0.1"/>
    <path
        id="path_116"
        d="M 874.84 458.29 L 873.88 466.8 L 862.29 462.55 L 853.79 449.68 L 860.17 444.68 L 874.84 458.29 Z"
        fill="#cbcdda"/>
    <path
        id="path_117"
        d="M 874.43 425.33 L 868.37 425.95 L 809.94 431.79 C 800.557 432.732 791.086 432.267 781.84 430.41 L 754.74 424.99 C 755.99 420.59 756.99 417.9 756.99 417.9 C 759.92 419.98 776.7 422.41 785.38 424.39 C 790.13 425.49 795.016 425.881 799.88 425.55 C 821.825 423.808 843.534 419.827 864.67 413.67 L 867.31 416.82 Z"
        fill="#000000"
        fill-opacity="0.1"
        stroke-opacity="0.1"/>
    <path
        id="path_118"
        d="M 757.6 418.22 C 757.407 418.125 757.22 418.018 757.04 417.9 C 757.04 417.9 757.04 417.96 756.98 418.05 Z"
        fill="#000000"
        fill-opacity="0.1"
        stroke-opacity="0.1"/>
    <path
        id="path_119"
        d="M 881.79 638.4 C 881.79 638.4 871.79 600.48 874.99 591.16 C 874.99 591.16 869.25 551.86 872.66 540.16 C 876.07 528.46 870.31 442.16 870.31 442.16 L 868.42 425.97 L 867.36 416.84 L 866.92 413.02 L 864.72 413.69 L 863.36 414.09 L 863.53 415.57 L 864.59 424.69 L 866.48 440.88 C 866.48 440.88 872.22 527.21 868.83 538.88 C 865.44 550.55 871.16 589.88 871.16 589.88 C 867.97 599.21 877.96 637.12 877.96 637.12 C 877.96 637.12 884.96 687.74 883.07 701.98 C 881.18 716.22 878.6 755.98 878.6 755.98 C 872.08 765.77 859.77 764.55 853.6 763.18 L 853.71 763.42 C 853.71 763.42 873.49 770.66 882.42 757.26 C 882.42 757.26 884.97 717.49 886.89 703.26 C 888.81 689.03 881.79 638.4 881.79 638.4 Z"
        fill="#000000"
        fill-opacity="0.1"
        stroke-opacity="0.1"/>
    <path
        id="path_120"
        d="M 831.4 702.41 C 834.8 692.84 828.21 662 828.21 662 C 828.21 662 816.52 629 818.43 604.59 C 819.23 594.4 819.18 580.42 818.84 567.59 C 816.13 551.04 813.53 532.59 813.53 532.59 C 813.53 532.59 816.53 578.94 814.61 603.39 C 812.69 627.84 824.38 660.81 824.38 660.81 C 824.38 660.81 830.98 691.64 827.57 701.21 C 824.16 710.78 836.06 750.28 836.06 750.28 C 835.21 759.48 813.36 758.28 804.69 757.48 L 805.02 758.36 C 805.02 758.36 838.83 763.04 839.89 751.56 C 839.91 751.53 828 711.98 831.4 702.41 Z"
        fill="#000000"
        fill-opacity="0.1"
        stroke-opacity="0.1"/>
    <path
        id="path_121"
        d="M 914.64 462.33 C 906.99 471.26 873.64 472.86 873.64 472.86 L 840.64 420.86 C 840.64 420.86 832.83 415.44 818.15 391.03 C 803.47 366.62 803.97 347.82 804.78 333.78 C 805.59 319.74 814.78 279.39 814.78 279.39 C 816.21 270.31 836.78 213.39 836.78 213.39 C 838.93 217.7 842.95 221.3 847.66 224.27 C 860.36 232.27 878.09 235.55 878.09 235.55 C 906.64 239.7 901.37 269.2 901.37 269.2 C 901.37 269.2 901.69 383.87 899.93 397.59 C 898.17 411.31 914.64 462.33 914.64 462.33 Z"
        fill="#4c4c78"/>
    <path
        id="path_122"
        d="M 842.89 241.61 L 835.71 244.28 L 840.49 247.63 L 804.79 333.75 C 805.62 319.75 814.79 279.36 814.79 279.36 C 816.22 270.28 836.79 213.36 836.79 213.36 C 838.94 217.67 842.96 221.27 847.67 224.24 Z"
        fill="#000000"
        fill-opacity="0.1"
        stroke-opacity="0.1"/>
    <path
        id="path_123"
        d="M 851.5 395.03 L 888.02 385.62 L 892.81 400.45 L 855.49 409.55 L 851.5 395.03 Z"
        fill="#000000"
        fill-opacity="0.1"
        stroke-opacity="0.1"/>
    <path
        id="path_124"
        d="M 872.39 247.67 C 872.39 247.67 855.8 263.28 862.06 298.07 C 868.32 332.86 878.33 370.63 878.33 370.63 L 851.33 445.43 C 851.33 445.43 870.15 465.05 879.4 467.43 L 906.35 407.62 C 906.35 407.62 918.95 386.89 915.6 354.36 C 912.25 321.83 900.13 269.19 900.13 269.19 C 900.13 269.19 900.14 237.15 872.39 247.67 Z"
        fill="#000000"
        fill-opacity="0.1"
        stroke-opacity="0.1"/>
    <path
        id="path_125"
        d="M 873.66 247.67 C 873.66 247.67 857.06 263.28 863.3 298.07 C 869.54 332.86 879.56 370.63 879.56 370.63 L 852.56 445.43 C 852.56 445.43 871.38 465.05 880.63 467.43 L 907.63 407.62 C 907.63 407.62 920.23 386.89 916.88 354.36 C 913.53 321.83 901.41 269.19 901.41 269.19 C 901.41 269.19 901.41 237.15 873.66 247.67 Z"
        fill="#4c4c78"/>
    <path
        id="path_126"
        d="M 853.46 447.02 C 853.46 447.02 874.51 476.16 872.92 483.92 C 871.33 491.68 865.16 487.53 865.16 487.53 L 856.87 476.16 L 849.42 454.89 C 849.42 454.89 850.15 445.71 853.46 447.02 Z"
        fill="#000000"
        fill-opacity="0.1"
        stroke-opacity="0.1"/>
    <path
        id="path_127"
        d="M 850.91 447.02 C 850.91 447.02 871.91 476.16 870.37 483.92 C 868.83 491.68 862.61 487.53 862.61 487.53 L 854.31 476.16 L 846.87 454.89 C 846.87 454.89 847.6 445.71 850.91 447.02 Z"
        fill="#000000"
        fill-opacity="0.1"
        stroke-opacity="0.1"/>
    <path
        id="path_128"
        d="M 852.19 447.02 C 852.19 447.02 873.19 476.16 871.64 483.92 C 870.09 491.68 863.88 487.53 863.88 487.53 L 855.59 476.16 L 848.15 454.89 C 848.15 454.89 848.87 445.71 852.19 447.02 Z"
        fill="#474463"/>
</svg>
