<svg
    xmlns="http://www.w3.org/2000/svg"
    viewBox="0 0 893 736"
    id="vector">
    <path
        id="path"
        d="M 168.5 570.5 C 168.5 570.5 501 293 692.5 570.5"
        fill="#f2f2f2"/>
    <path
        id="path_1"
        d="M 560.117 712.75 C 560.014 717.828 570.254 722.782 589.356 726.896 C 608.458 731.01 635.453 734.074 666.436 735.647 C 697.418 737.219 730.816 737.219 761.798 735.647 C 792.781 734.074 819.776 731.01 838.878 726.896 C 857.98 722.782 868.22 717.828 868.117 712.75 C 868.22 707.672 857.98 702.718 838.878 698.604 C 819.776 694.49 792.781 691.426 761.798 689.853 C 730.816 688.281 697.418 688.281 666.436 689.853 C 635.453 691.426 608.458 694.49 589.356 698.604 C 570.254 702.718 560.014 707.672 560.117 712.75 Z"
        fill="#f2f2f2"/>
    <path
        id="path_2"
        d="M 585.117 703.75 C 585.117 710.113 601.353 716.221 630.223 720.721 C 659.092 725.22 698.289 727.75 739.117 727.75 C 779.945 727.75 819.142 725.22 848.011 720.721 C 876.881 716.221 893.117 710.113 893.117 703.75 C 893.117 697.387 876.881 691.279 848.011 686.779 C 819.142 682.28 779.945 679.75 739.117 679.75 C 698.289 679.75 659.092 682.28 630.223 686.779 C 601.353 691.279 585.117 697.387 585.117 703.75 Z"
        fill="#00000000"
        stroke="#3f3d56"
        stroke-width="1"/>
    <path
        id="path_3"
        d="M 804.605 455.45 C 808.246 456.774 812.253 456.688 815.835 455.211 C 819.416 453.733 822.317 450.967 823.965 447.461 C 825.613 443.955 825.891 439.956 824.743 436.256 C 823.596 432.556 821.104 429.416 817.762 427.457 C 814.419 425.499 810.462 424.86 806.673 425.668 L 807.062 433.661 L 803.281 426.811 C 799.571 428.554 796.702 431.703 795.31 435.558 C 794.815 436.909 794.515 438.324 794.417 439.759 C 794.178 443.126 795.044 446.48 796.882 449.311 C 798.72 452.142 801.432 454.298 804.605 455.45 Z"
        fill="#57b894"/>
    <path
        id="path_4"
        d="M 823.316 548.152 C 821.981 541.355 827.765 535.328 833.479 531.411 C 839.193 527.494 845.868 523.645 847.818 516.998 C 850.62 507.445 842.274 498.696 835.779 491.151 C 830.96 485.552 826.821 479.401 823.45 472.828 C 821.984 470.246 820.986 467.426 820.501 464.497 C 819.989 460.262 821.349 456.049 822.72 452.009 Q 829.569 431.825 837.365 411.979"
        fill="#00000000"
        stroke="#3f3d56"
        stroke-width="1"/>
    <path
        id="path_5"
        d="M 805.245 453.392 C 808.886 454.716 812.893 454.63 816.475 453.153 C 820.056 451.675 822.957 448.909 824.605 445.403 C 826.253 441.897 826.531 437.898 825.383 434.198 C 824.236 430.498 821.744 427.358 818.402 425.399 C 815.059 423.441 811.102 422.802 807.313 423.61 L 807.702 431.603 L 803.921 424.753 C 800.211 426.496 797.342 429.645 795.95 433.5 C 795.455 434.851 795.155 436.266 795.057 437.701 C 794.818 441.068 795.684 444.422 797.522 447.253 C 799.36 450.084 802.072 452.24 805.245 453.392 Z"
        fill="#00000000"
        stroke="#3f3d56"
        stroke-width="1"/>
    <path
        id="path_6"
        d="M 821.418 409.219 C 822.305 406.772 823.794 404.587 825.747 402.866 C 827.7 401.145 830.055 399.944 832.595 399.372 L 833.874 406.97 L 836.244 398.99 C 840.014 399.046 843.638 400.473 846.433 403.003 C 849.229 405.534 851.009 408.998 851.439 412.744 C 851.87 416.489 850.921 420.267 848.772 423.365 C 846.623 426.463 843.417 428.675 839.758 429.584 C 836.099 430.493 832.231 430.039 828.881 428.307 C 825.532 426.575 822.926 423.681 821.553 420.169 C 820.18 416.658 820.132 412.763 821.418 409.219 Z"
        fill="#57b894"/>
    <path
        id="path_7"
        d="M 822.271 406.475 C 823.158 404.028 824.647 401.843 826.6 400.122 C 828.553 398.401 830.908 397.2 833.448 396.628 L 834.727 404.226 L 837.097 396.246 C 840.867 396.302 844.491 397.729 847.286 400.259 C 850.082 402.79 851.862 406.254 852.292 410 C 852.723 413.745 851.774 417.523 849.625 420.621 C 847.476 423.719 844.27 425.931 840.611 426.84 C 836.952 427.749 833.084 427.295 829.734 425.563 C 826.385 423.831 823.779 420.937 822.406 417.425 C 821.033 413.914 820.985 410.019 822.271 406.475 Z"
        fill="#00000000"
        stroke="#3f3d56"
        stroke-width="1"/>
    <path
        id="path_8"
        d="M 833.053 491.305 C 836.637 492.605 840.576 492.541 844.116 491.125 C 847.655 489.709 850.552 487.038 852.25 483.625 C 853.948 480.212 854.331 476.29 853.325 472.613 C 852.32 468.936 849.995 465.755 846.796 463.681 L 844.975 469.814 L 843.683 462.126 C 843.67 462.12 843.657 462.115 843.643 462.111 C 840.555 460.969 837.183 460.838 834.017 461.737 C 830.85 462.636 828.05 464.519 826.022 467.113 C 823.995 469.707 822.845 472.879 822.737 476.169 C 822.63 479.459 823.572 482.7 825.426 485.42 C 827.28 488.14 829.951 490.202 833.053 491.305 Z"
        fill="#57b894"/>
    <path
        id="path_9"
        d="M 833.792 488.526 C 837.376 489.826 841.315 489.762 844.855 488.346 C 848.394 486.93 851.291 484.259 852.989 480.846 C 854.687 477.433 855.07 473.511 854.064 469.834 C 853.059 466.157 850.734 462.976 847.535 460.902 L 845.714 467.035 L 844.422 459.347 C 844.409 459.341 844.396 459.336 844.382 459.332 C 841.294 458.19 837.922 458.059 834.756 458.958 C 831.589 459.857 828.789 461.74 826.761 464.334 C 824.734 466.928 823.584 470.1 823.476 473.39 C 823.369 476.68 824.311 479.921 826.165 482.641 C 828.019 485.361 830.69 487.423 833.792 488.526 Z"
        fill="#00000000"
        stroke="#3f3d56"
        stroke-width="1"/>
    <path
        id="path_10"
        d="M 816.887 517.093 C 817.593 521.111 819.857 524.693 823.182 527.057 C 826.508 529.42 830.635 530.379 834.662 529.725 C 838.689 529.07 842.3 526.854 844.706 523.559 C 847.113 520.264 848.125 516.149 847.522 512.114 C 846.92 508.079 844.75 504.44 841.486 501.991 C 838.223 499.543 834.122 498.477 830.079 499.028 C 826.036 499.578 822.369 501.701 819.879 504.933 L 826.798 515.346 L 817.345 509.819 C 816.612 512.172 816.455 514.667 816.887 517.093 Z"
        fill="#57b894"/>
    <path
        id="path_11"
        d="M 817.526 515.035 C 818.232 519.053 820.496 522.635 823.821 524.999 C 827.147 527.362 831.274 528.321 835.301 527.667 C 839.328 527.012 842.939 524.796 845.345 521.501 C 847.752 518.206 848.764 514.091 848.161 510.056 C 847.559 506.021 845.389 502.382 842.125 499.933 C 838.862 497.485 834.761 496.419 830.718 496.97 C 826.675 497.52 823.008 499.643 820.518 502.875 L 827.437 513.288 L 817.984 507.761 C 817.251 510.114 817.094 512.609 817.526 515.035 Z"
        fill="#00000000"
        stroke="#3f3d56"
        stroke-width="1"/>
    <path
        id="path_12"
        d="M 801.757 557.359 C 801.757 557.359 815.46 551.989 819.59 549.048 C 823.72 546.107 840.669 542.596 841.693 547.312 C 842.717 552.028 862.286 570.769 846.815 570.893 C 831.344 571.017 810.868 573.431 806.746 570.921 C 802.624 568.411 801.757 557.359 801.757 557.359 Z"
        fill="#656380"/>
    <path
        id="path_13"
        d="M 847.091 569.252 C 831.62 569.377 811.144 571.79 807.022 569.28 C 803.883 567.368 802.632 560.507 802.214 557.342 C 801.924 557.354 801.757 557.36 801.757 557.36 C 801.757 557.36 802.625 568.412 806.747 570.922 C 810.869 573.432 831.345 571.019 846.816 570.894 C 851.282 570.858 852.824 569.269 852.74 566.916 C 852.118 568.337 850.415 569.225 847.091 569.252 Z"
        fill="#000000"
        fill-opacity="0.2"
        stroke-opacity="0.2"/>
    <path
        id="path_14"
        d="M 170.851 413 L 207.149 413 C 210.291 413 213.307 414.249 215.529 416.471 C 217.751 418.693 219 421.709 219 424.851 L 219 559.149 C 219 562.291 217.751 565.307 215.529 567.529 C 213.307 569.751 210.291 571 207.149 571 L 170.851 571 C 167.709 571 164.693 569.751 162.471 567.529 C 160.249 565.307 159 562.291 159 559.149 L 159 424.851 C 159 421.709 160.249 418.693 162.471 416.471 C 164.693 414.249 167.709 413 170.851 413 Z"
        fill="#6c63ff"/>
    <path
        id="path_15"
        d="M 284.851 318 L 321.149 318 C 324.291 318 327.307 319.249 329.529 321.471 C 331.751 323.693 333 326.709 333 329.851 L 333 559.149 C 333 562.291 331.751 565.307 329.529 567.529 C 327.307 569.751 324.291 571 321.149 571 L 284.851 571 C 281.709 571 278.693 569.751 276.471 567.529 C 274.249 565.307 273 562.291 273 559.149 L 273 329.851 C 273 326.709 274.249 323.693 276.471 321.471 C 278.693 319.249 281.709 318 284.851 318 Z"
        fill="#6c63ff"/>
    <path
        id="path_16"
        d="M 398.851 252 L 435.149 252 C 438.291 252 441.307 253.249 443.529 255.471 C 445.751 257.693 447 260.709 447 263.851 L 447 559.149 C 447 562.291 445.751 565.307 443.529 567.529 C 441.307 569.751 438.291 571 435.149 571 L 398.851 571 C 395.709 571 392.693 569.751 390.471 567.529 C 388.249 565.307 387 562.291 387 559.149 L 387 263.851 C 387 260.709 388.249 257.693 390.471 255.471 C 392.693 253.249 395.709 252 398.851 252 Z"
        fill="#6c63ff"/>
    <path
        id="path_17"
        d="M 512.851 189 L 549.149 189 C 552.291 189 555.307 190.249 557.529 192.471 C 559.751 194.693 561 197.709 561 200.851 L 561 559.149 C 561 562.291 559.751 565.307 557.529 567.529 C 555.307 569.751 552.291 571 549.149 571 L 512.851 571 C 509.709 571 506.693 569.751 504.471 567.529 C 502.249 565.307 501 562.291 501 559.149 L 501 200.851 C 501 197.709 502.249 194.693 504.471 192.471 C 506.693 190.249 509.709 189 512.851 189 Z"
        fill="#6c63ff"/>
    <path
        id="path_18"
        d="M 626.851 79 L 663.149 79 C 666.291 79 669.307 80.249 671.529 82.471 C 673.751 84.693 675 87.709 675 90.851 L 675 559.149 C 675 562.291 673.751 565.307 671.529 567.529 C 669.307 569.751 666.291 571 663.149 571 L 626.851 571 C 623.709 571 620.693 569.751 618.471 567.529 C 616.249 565.307 615 562.291 615 559.149 L 615 90.851 C 615 87.709 616.249 84.693 618.471 82.471 C 620.693 80.249 623.709 79 626.851 79 Z"
        fill="#6c63ff"/>
    <path
        id="path_19"
        d="M 178.851 405 L 215.149 405 C 218.291 405 221.307 406.249 223.529 408.471 C 225.751 410.693 227 413.709 227 416.851 L 227 551.149 C 227 554.291 225.751 557.307 223.529 559.529 C 221.307 561.751 218.291 563 215.149 563 L 178.851 563 C 175.709 563 172.693 561.751 170.471 559.529 C 168.249 557.307 167 554.291 167 551.149 L 167 416.851 C 167 413.709 168.249 410.693 170.471 408.471 C 172.693 406.249 175.709 405 178.851 405 Z"
        fill="#00000000"
        stroke="#3f3d56"
        stroke-width="1"/>
    <path
        id="path_20"
        d="M 292.851 310 L 329.149 310 C 332.291 310 335.307 311.249 337.529 313.471 C 339.751 315.693 341 318.709 341 321.851 L 341 551.149 C 341 554.291 339.751 557.307 337.529 559.529 C 335.307 561.751 332.291 563 329.149 563 L 292.851 563 C 289.709 563 286.693 561.751 284.471 559.529 C 282.249 557.307 281 554.291 281 551.149 L 281 321.851 C 281 318.709 282.249 315.693 284.471 313.471 C 286.693 311.249 289.709 310 292.851 310 Z"
        fill="#00000000"
        stroke="#3f3d56"
        stroke-width="1"/>
    <path
        id="path_21"
        d="M 406.851 244 L 443.149 244 C 446.291 244 449.307 245.249 451.529 247.471 C 453.751 249.693 455 252.709 455 255.851 L 455 551.149 C 455 554.291 453.751 557.307 451.529 559.529 C 449.307 561.751 446.291 563 443.149 563 L 406.851 563 C 403.709 563 400.693 561.751 398.471 559.529 C 396.249 557.307 395 554.291 395 551.149 L 395 255.851 C 395 252.709 396.249 249.693 398.471 247.471 C 400.693 245.249 403.709 244 406.851 244 Z"
        fill="#00000000"
        stroke="#3f3d56"
        stroke-width="1"/>
    <path
        id="path_22"
        d="M 520.851 181 L 557.149 181 C 560.291 181 563.307 182.249 565.529 184.471 C 567.751 186.693 569 189.709 569 192.851 L 569 551.149 C 569 554.291 567.751 557.307 565.529 559.529 C 563.307 561.751 560.291 563 557.149 563 L 520.851 563 C 517.709 563 514.693 561.751 512.471 559.529 C 510.249 557.307 509 554.291 509 551.149 L 509 192.851 C 509 189.709 510.249 186.693 512.471 184.471 C 514.693 182.249 517.709 181 520.851 181 Z"
        fill="#00000000"
        stroke="#3f3d56"
        stroke-width="1"/>
    <path
        id="path_23"
        d="M 634.851 71 L 671.149 71 C 674.291 71 677.307 72.249 679.529 74.471 C 681.751 76.693 683 79.709 683 82.851 L 683 551.149 C 683 554.291 681.751 557.307 679.529 559.529 C 677.307 561.751 674.291 563 671.149 563 L 634.851 563 C 631.709 563 628.693 561.751 626.471 559.529 C 624.249 557.307 623 554.291 623 551.149 L 623 82.851 C 623 79.709 624.249 76.693 626.471 74.471 C 628.693 72.249 631.709 71 634.851 71 Z"
        fill="#00000000"
        stroke="#3f3d56"
        stroke-width="1"/>
    <path
        id="path_24"
        d="M 861 571.5 L 0 571.5"
        fill="#00000000"
        stroke="#3f3d56"
        stroke-width="1"/>
    <path
        id="path_25"
        d="M 806.703 475.576 C 806.703 475.576 816.114 509.455 804.193 514.474 C 792.272 519.493 796.037 476.831 796.037 476.831 Z"
        fill="#a0616a"/>
    <path
        id="path_26"
        d="M 721.378 692.653 C 721.378 692.653 712.595 692.026 709.458 693.908 C 708.519 694.457 707.472 694.798 706.389 694.906 C 705.307 695.014 704.213 694.887 703.184 694.535 C 703.184 694.535 689.381 693.28 694.401 700.182 C 699.421 707.084 704.439 709.593 704.439 712.729 C 704.439 715.865 725.143 715.866 725.77 712.729 C 726.397 709.592 727.025 693.28 725.77 692.653 C 724.515 692.026 721.378 692.653 721.378 692.653 Z"
        fill="#575a89"/>
    <path
        id="path_27"
        d="M 744.592 692.653 C 744.592 692.653 753.375 692.026 756.512 693.908 C 757.451 694.457 758.498 694.798 759.581 694.906 C 760.663 695.014 761.757 694.887 762.786 694.535 C 762.786 694.535 776.589 693.28 771.569 700.182 C 766.549 707.084 761.531 709.593 761.531 712.73 C 761.531 715.867 740.827 715.867 740.2 712.73 C 739.573 709.593 738.945 693.281 740.2 692.654 C 741.455 692.027 744.592 692.653 744.592 692.653 Z"
        fill="#575a89"/>
    <path
        id="path_28"
        d="M 695.655 468.675 C 695.655 468.675 691.263 567.803 693.773 572.822 C 696.283 577.841 705.066 662.539 703.811 667.558 C 702.556 672.577 696.282 693.281 703.811 696.418 C 711.34 699.555 727.652 696.418 727.652 696.418 C 727.652 696.418 732.044 671.322 730.162 658.147 C 728.28 644.972 727.652 589.761 727.652 589.761 L 740.2 532.041 L 744.592 586.624 C 744.592 586.624 745.847 661.283 737.063 676.341 C 728.279 691.399 740.2 697.672 740.2 697.672 C 740.2 697.672 764.041 700.809 766.55 700.182 C 769.059 699.555 764.668 675.086 766.55 664.421 C 768.432 653.756 772.824 594.153 776.588 579.723 C 780.352 565.293 801.684 484.987 785.999 468.675 C 770.314 452.363 695.655 468.675 695.655 468.675 Z"
        fill="#3f3d56"/>
    <path
        id="path_29"
        d="M 741.455 246.579 M 719.496 246.579 C 719.465 241.922 720.915 237.374 723.637 233.596 C 726.359 229.817 730.214 227.001 734.641 225.556 C 739.068 224.111 743.841 224.111 748.268 225.556 C 752.695 227.001 756.55 229.817 759.272 233.596 C 761.994 237.374 763.444 241.922 763.413 246.579 C 763.444 251.236 761.994 255.784 759.272 259.562 C 756.55 263.341 752.695 266.157 748.268 267.602 C 743.841 269.047 739.068 269.047 734.641 267.602 C 730.214 266.157 726.359 263.341 723.637 259.562 C 720.915 255.784 719.465 251.236 719.496 246.579"
        fill="#a0616a"/>
    <path
        id="path_30"
        d="M 725.142 256.617 C 725.142 256.617 728.906 286.732 727.024 287.359 C 725.142 287.986 760.276 287.359 760.276 287.359 C 760.276 287.359 753.375 269.165 760.276 254.735 Z"
        fill="#a0616a"/>
    <path
        id="path_31"
        d="M 725.142 281.085 C 725.142 281.085 740.433 266.028 758.511 281.085 L 759.681 285.573 L 750.238 285.476 L 725.142 285.477 Z"
        fill="#f2f2f2"/>
    <path
        id="path_32"
        d="M 799.802 473.694 C 798.353 473.983 794.802 474.572 790.172 475.275 C 774.757 477.603 747.441 481.129 746.474 478.713 C 745.219 475.576 740.827 464.283 737.691 469.302 C 734.555 474.321 736.436 478.713 723.261 479.34 C 714.296 479.767 701.265 478.449 694.05 476.379 C 690.662 475.407 688.554 474.271 688.755 473.066 C 689.382 469.302 696.284 397.779 696.284 390.878 C 696.284 383.977 698.794 350.725 698.794 350.725 L 680.763 315.246 L 679.345 312.454 C 679.345 312.454 681.227 305.553 686.874 304.298 C 692.521 303.043 719.496 287.359 719.496 287.359 C 719.496 287.359 725.143 278.576 735.808 279.203 C 746.473 279.83 748.983 275.439 763.413 287.359 C 763.413 287.359 780.98 294.888 787.254 298.652 C 793.528 302.416 800.429 302.416 801.057 308.69 C 801.182 309.951 800.499 312.379 799.325 315.447 C 795.027 326.69 784.167 346.584 782.467 349.684 C 782.316 349.954 782.235 350.098 782.235 350.098 C 782.235 350.098 781.909 361.378 782.254 374.585 L 782.254 374.616 C 782.593 387.283 783.546 401.719 786 409.7 C 791.018 426.012 806.076 472.439 799.802 473.694 Z"
        fill="#575a89"/>
    <path
        id="path_33"
        d="M 769.961 237.565 C 769.522 235.566 768.677 233.678 767.479 232.019 C 767.001 227.431 765.471 223.014 763.006 219.114 C 762.041 217.287 760.67 215.705 758.999 214.489 C 757.085 213.387 754.901 212.842 752.694 212.917 C 752.294 212.91 751.574 213.032 750.925 213.061 C 750.51 212.933 750.092 212.818 749.672 212.71 C 749.427 212.165 748.942 210.577 748.806 210.685 L 746.976 212.139 C 746.202 212.005 745.425 211.9 744.644 211.817 Q 744.218 210.601 743.792 209.386 C 743.331 210.111 742.927 210.871 742.583 211.658 Q 741.418 211.601 740.251 211.618 L 738.696 210.124 C 738.604 210.54 738.393 210.921 738.089 211.22 C 737.784 211.518 737.399 211.721 736.981 211.804 C 736.265 211.877 735.553 211.973 734.843 212.088 C 734.785 212.088 734.727 212.088 734.67 212.087 C 730.841 211.992 726.72 211.82 723.518 213.922 C 722.02 214.951 720.8 216.335 719.968 217.951 C 719.576 218.217 719.183 218.482 718.802 218.765 C 717.518 219.641 716.404 220.744 715.517 222.021 C 714.872 223.122 714.383 224.308 714.064 225.543 C 712.842 229.261 712.276 233.164 712.391 237.076 C 712.522 241.014 714.009 244.789 716.599 247.758 C 718.241 249.523 720.329 250.826 721.974 252.588 C 725.36 256.217 725.995 261.279 728.891 265.119 C 731.955 269.181 737.546 271.853 742.456 272.619 C 745.408 273.064 748.419 272.921 751.316 272.198 C 754.213 271.476 756.939 270.188 759.336 268.409 C 760.487 267.608 761.464 266.583 762.21 265.396 C 763.914 262.448 763.192 258.743 763.825 255.397 C 765.012 249.126 770.997 243.863 769.961 237.565 Z"
        fill="#3f3d56"/>
    <path
        id="path_34"
        d="M 686.244 477.458 C 686.244 477.458 695.655 511.337 683.734 516.356 C 671.813 521.375 675.578 478.713 675.578 478.713 Z"
        fill="#a0616a"/>
    <path
        id="path_35"
        d="M 697.531 400.578 C 697.531 400.578 693.415 461.661 694.049 476.379 C 690.661 475.407 688.553 474.271 688.754 473.066 C 689.381 469.302 696.283 397.779 696.283 390.878 C 696.283 383.977 698.793 350.725 698.793 350.725 L 680.762 315.246 C 681.051 313.489 681.226 312.454 681.226 312.454 L 690.323 331.589 L 703.184 335.04 Z"
        fill="#000000"
        fill-opacity="0.1"
        stroke-opacity="0.1"/>
    <path
        id="path_36"
        d="M 683.735 308.69 L 679.343 312.454 C 679.343 312.454 673.696 345.706 674.324 353.862 C 674.952 362.018 661.149 485.614 671.814 485.614 C 682.479 485.614 694.4 483.732 692.518 479.34 C 690.636 474.948 695.651 400.578 695.651 400.578 L 701.301 335.041 Z"
        fill="#575a89"/>
    <path
        id="path_37"
        d="M 799.325 315.447 C 795.027 326.69 784.167 346.584 782.467 349.684 C 782.517 341.66 782.549 335.982 782.549 335.982 L 795.724 309.004 L 798.547 306.808 C 798.547 306.808 798.848 310.127 799.325 315.447 Z"
        fill="#000000"
        fill-opacity="0.1"
        stroke-opacity="0.1"/>
    <path
        id="path_38"
        d="M 799.802 473.694 C 798.353 473.983 794.802 474.572 790.172 475.275 C 787.769 457.507 781.345 406.413 781.752 401.601 C 781.953 399.229 782.122 387.51 782.254 374.617 C 782.593 387.284 783.546 401.72 786 409.701 C 791.018 426.012 806.076 472.439 799.802 473.694 Z"
        fill="#000000"
        fill-opacity="0.1"
        stroke-opacity="0.1"/>
    <path
        id="path_39"
        d="M 791.646 304.298 L 801.057 306.808 C 801.057 306.808 807.331 376.448 807.958 388.369 C 808.585 400.29 816.114 473.694 814.859 476.831 C 813.604 479.968 794.155 484.36 793.528 481.223 C 792.901 478.086 783.78 407.302 784.262 401.6 C 784.744 395.898 781.607 336.923 781.607 336.923 Z"
        fill="#575a89"/>
    <path
        id="path_40"
        d="M 196.5 344.5 L 310.5 249.5 L 425.5 184.5 L 539.5 121.5 L 653.5 11.5"
        fill="#00000000"
        stroke="#3f3d56"
        stroke-width="1"/>
    <path
        id="path_41"
        d="M 193.5 349.5 M 182.5 349.5 C 182.5 346.584 183.66 343.784 185.722 341.722 C 187.784 339.66 190.584 338.5 193.5 338.5 C 196.416 338.5 199.216 339.66 201.278 341.722 C 203.34 343.784 204.5 346.584 204.5 349.5 C 204.5 352.416 203.34 355.216 201.278 357.278 C 199.216 359.34 196.416 360.5 193.5 360.5 C 190.584 360.5 187.784 359.34 185.722 357.278 C 183.66 355.216 182.5 352.416 182.5 349.5"
        fill="#f2f2f2"/>
    <path
        id="path_42"
        d="M 307.5 254.5 M 296.5 254.5 C 296.5 251.584 297.66 248.784 299.722 246.722 C 301.784 244.66 304.584 243.5 307.5 243.5 C 310.416 243.5 313.216 244.66 315.278 246.722 C 317.34 248.784 318.5 251.584 318.5 254.5 C 318.5 257.416 317.34 260.216 315.278 262.278 C 313.216 264.34 310.416 265.5 307.5 265.5 C 304.584 265.5 301.784 264.34 299.722 262.278 C 297.66 260.216 296.5 257.416 296.5 254.5"
        fill="#f2f2f2"/>
    <path
        id="path_43"
        d="M 422.5 189.5 M 411.5 189.5 C 411.5 186.584 412.66 183.784 414.722 181.722 C 416.784 179.66 419.584 178.5 422.5 178.5 C 425.416 178.5 428.216 179.66 430.278 181.722 C 432.34 183.784 433.5 186.584 433.5 189.5 C 433.5 192.416 432.34 195.216 430.278 197.278 C 428.216 199.34 425.416 200.5 422.5 200.5 C 419.584 200.5 416.784 199.34 414.722 197.278 C 412.66 195.216 411.5 192.416 411.5 189.5"
        fill="#f2f2f2"/>
    <path
        id="path_44"
        d="M 536.5 126.5 M 525.5 126.5 C 525.5 123.584 526.66 120.784 528.722 118.722 C 530.784 116.66 533.584 115.5 536.5 115.5 C 539.416 115.5 542.216 116.66 544.278 118.722 C 546.34 120.784 547.5 123.584 547.5 126.5 C 547.5 129.416 546.34 132.216 544.278 134.278 C 542.216 136.34 539.416 137.5 536.5 137.5 C 533.584 137.5 530.784 136.34 528.722 134.278 C 526.66 132.216 525.5 129.416 525.5 126.5"
        fill="#f2f2f2"/>
    <path
        id="path_45"
        d="M 650.5 16.5 M 639.5 16.5 C 639.5 13.584 640.66 10.784 642.722 8.722 C 644.784 6.66 647.584 5.5 650.5 5.5 C 653.416 5.5 656.216 6.66 658.278 8.722 C 660.34 10.784 661.5 13.584 661.5 16.5 C 661.5 19.416 660.34 22.216 658.278 24.278 C 656.216 26.34 653.416 27.5 650.5 27.5 C 647.584 27.5 644.784 26.34 642.722 24.278 C 640.66 22.216 639.5 19.416 639.5 16.5"
        fill="#f2f2f2"/>
    <path
        id="path_46"
        d="M 196.5 344.5 M 185.5 344.5 C 185.5 341.584 186.66 338.784 188.722 336.722 C 190.784 334.66 193.584 333.5 196.5 333.5 C 199.416 333.5 202.216 334.66 204.278 336.722 C 206.34 338.784 207.5 341.584 207.5 344.5 C 207.5 347.416 206.34 350.216 204.278 352.278 C 202.216 354.34 199.416 355.5 196.5 355.5 C 193.584 355.5 190.784 354.34 188.722 352.278 C 186.66 350.216 185.5 347.416 185.5 344.5"
        fill="#00000000"
        stroke="#3f3d56"
        stroke-width="1"/>
    <path
        id="path_47"
        d="M 310.5 249.5 M 299.5 249.5 C 299.5 246.584 300.66 243.784 302.722 241.722 C 304.784 239.66 307.584 238.5 310.5 238.5 C 313.416 238.5 316.216 239.66 318.278 241.722 C 320.34 243.784 321.5 246.584 321.5 249.5 C 321.5 252.416 320.34 255.216 318.278 257.278 C 316.216 259.34 313.416 260.5 310.5 260.5 C 307.584 260.5 304.784 259.34 302.722 257.278 C 300.66 255.216 299.5 252.416 299.5 249.5"
        fill="#00000000"
        stroke="#3f3d56"
        stroke-width="1"/>
    <path
        id="path_48"
        d="M 425.5 184.5 M 414.5 184.5 C 414.5 181.584 415.66 178.784 417.722 176.722 C 419.784 174.66 422.584 173.5 425.5 173.5 C 428.416 173.5 431.216 174.66 433.278 176.722 C 435.34 178.784 436.5 181.584 436.5 184.5 C 436.5 187.416 435.34 190.216 433.278 192.278 C 431.216 194.34 428.416 195.5 425.5 195.5 C 422.584 195.5 419.784 194.34 417.722 192.278 C 415.66 190.216 414.5 187.416 414.5 184.5"
        fill="#00000000"
        stroke="#3f3d56"
        stroke-width="1"/>
    <path
        id="path_49"
        d="M 539.5 121.5 M 528.5 121.5 C 528.5 118.584 529.66 115.784 531.722 113.722 C 533.784 111.66 536.584 110.5 539.5 110.5 C 542.416 110.5 545.216 111.66 547.278 113.722 C 549.34 115.784 550.5 118.584 550.5 121.5 C 550.5 124.416 549.34 127.216 547.278 129.278 C 545.216 131.34 542.416 132.5 539.5 132.5 C 536.584 132.5 533.784 131.34 531.722 129.278 C 529.66 127.216 528.5 124.416 528.5 121.5"
        fill="#00000000"
        stroke="#3f3d56"
        stroke-width="1"/>
    <path
        id="path_50"
        d="M 653.5 11.5 M 642.5 11.5 C 642.5 8.584 643.66 5.784 645.722 3.722 C 647.784 1.66 650.584 0.5 653.5 0.5 C 656.416 0.5 659.216 1.66 661.278 3.722 C 663.34 5.784 664.5 8.584 664.5 11.5 C 664.5 14.416 663.34 17.216 661.278 19.278 C 659.216 21.34 656.416 22.5 653.5 22.5 C 650.584 22.5 647.784 21.34 645.722 19.278 C 643.66 17.216 642.5 14.416 642.5 11.5"
        fill="#00000000"
        stroke="#3f3d56"
        stroke-width="1"/>
</svg>
